G75*
%MOIN*%
%OFA0B0*%
%FSLAX25Y25*%
%IPPOS*%
%LPD*%
%AMOC8*
5,1,8,0,0,1.08239X$1,22.5*
%
%ADD10C,0.00800*%
%ADD11C,0.00000*%
D10*
X0093333Y0281400D02*
X0093333Y0381400D01*
X0243333Y0381400D01*
X0243333Y0281400D01*
X0093333Y0281400D01*
D11*
X0097333Y0331400D02*
X0097335Y0331554D01*
X0097341Y0331709D01*
X0097351Y0331863D01*
X0097365Y0332017D01*
X0097383Y0332170D01*
X0097404Y0332323D01*
X0097430Y0332476D01*
X0097460Y0332627D01*
X0097493Y0332778D01*
X0097531Y0332928D01*
X0097572Y0333077D01*
X0097617Y0333225D01*
X0097666Y0333371D01*
X0097719Y0333517D01*
X0097775Y0333660D01*
X0097835Y0333803D01*
X0097899Y0333943D01*
X0097966Y0334083D01*
X0098037Y0334220D01*
X0098111Y0334355D01*
X0098189Y0334489D01*
X0098270Y0334620D01*
X0098355Y0334749D01*
X0098443Y0334877D01*
X0098534Y0335001D01*
X0098628Y0335124D01*
X0098726Y0335244D01*
X0098826Y0335361D01*
X0098930Y0335476D01*
X0099036Y0335588D01*
X0099145Y0335697D01*
X0099257Y0335803D01*
X0099372Y0335907D01*
X0099489Y0336007D01*
X0099609Y0336105D01*
X0099732Y0336199D01*
X0099856Y0336290D01*
X0099984Y0336378D01*
X0100113Y0336463D01*
X0100244Y0336544D01*
X0100378Y0336622D01*
X0100513Y0336696D01*
X0100650Y0336767D01*
X0100790Y0336834D01*
X0100930Y0336898D01*
X0101073Y0336958D01*
X0101216Y0337014D01*
X0101362Y0337067D01*
X0101508Y0337116D01*
X0101656Y0337161D01*
X0101805Y0337202D01*
X0101955Y0337240D01*
X0102106Y0337273D01*
X0102257Y0337303D01*
X0102410Y0337329D01*
X0102563Y0337350D01*
X0102716Y0337368D01*
X0102870Y0337382D01*
X0103024Y0337392D01*
X0103179Y0337398D01*
X0103333Y0337400D01*
X0103487Y0337398D01*
X0103642Y0337392D01*
X0103796Y0337382D01*
X0103950Y0337368D01*
X0104103Y0337350D01*
X0104256Y0337329D01*
X0104409Y0337303D01*
X0104560Y0337273D01*
X0104711Y0337240D01*
X0104861Y0337202D01*
X0105010Y0337161D01*
X0105158Y0337116D01*
X0105304Y0337067D01*
X0105450Y0337014D01*
X0105593Y0336958D01*
X0105736Y0336898D01*
X0105876Y0336834D01*
X0106016Y0336767D01*
X0106153Y0336696D01*
X0106288Y0336622D01*
X0106422Y0336544D01*
X0106553Y0336463D01*
X0106682Y0336378D01*
X0106810Y0336290D01*
X0106934Y0336199D01*
X0107057Y0336105D01*
X0107177Y0336007D01*
X0107294Y0335907D01*
X0107409Y0335803D01*
X0107521Y0335697D01*
X0107630Y0335588D01*
X0107736Y0335476D01*
X0107840Y0335361D01*
X0107940Y0335244D01*
X0108038Y0335124D01*
X0108132Y0335001D01*
X0108223Y0334877D01*
X0108311Y0334749D01*
X0108396Y0334620D01*
X0108477Y0334489D01*
X0108555Y0334355D01*
X0108629Y0334220D01*
X0108700Y0334083D01*
X0108767Y0333943D01*
X0108831Y0333803D01*
X0108891Y0333660D01*
X0108947Y0333517D01*
X0109000Y0333371D01*
X0109049Y0333225D01*
X0109094Y0333077D01*
X0109135Y0332928D01*
X0109173Y0332778D01*
X0109206Y0332627D01*
X0109236Y0332476D01*
X0109262Y0332323D01*
X0109283Y0332170D01*
X0109301Y0332017D01*
X0109315Y0331863D01*
X0109325Y0331709D01*
X0109331Y0331554D01*
X0109333Y0331400D01*
X0109331Y0331246D01*
X0109325Y0331091D01*
X0109315Y0330937D01*
X0109301Y0330783D01*
X0109283Y0330630D01*
X0109262Y0330477D01*
X0109236Y0330324D01*
X0109206Y0330173D01*
X0109173Y0330022D01*
X0109135Y0329872D01*
X0109094Y0329723D01*
X0109049Y0329575D01*
X0109000Y0329429D01*
X0108947Y0329283D01*
X0108891Y0329140D01*
X0108831Y0328997D01*
X0108767Y0328857D01*
X0108700Y0328717D01*
X0108629Y0328580D01*
X0108555Y0328445D01*
X0108477Y0328311D01*
X0108396Y0328180D01*
X0108311Y0328051D01*
X0108223Y0327923D01*
X0108132Y0327799D01*
X0108038Y0327676D01*
X0107940Y0327556D01*
X0107840Y0327439D01*
X0107736Y0327324D01*
X0107630Y0327212D01*
X0107521Y0327103D01*
X0107409Y0326997D01*
X0107294Y0326893D01*
X0107177Y0326793D01*
X0107057Y0326695D01*
X0106934Y0326601D01*
X0106810Y0326510D01*
X0106682Y0326422D01*
X0106553Y0326337D01*
X0106422Y0326256D01*
X0106288Y0326178D01*
X0106153Y0326104D01*
X0106016Y0326033D01*
X0105876Y0325966D01*
X0105736Y0325902D01*
X0105593Y0325842D01*
X0105450Y0325786D01*
X0105304Y0325733D01*
X0105158Y0325684D01*
X0105010Y0325639D01*
X0104861Y0325598D01*
X0104711Y0325560D01*
X0104560Y0325527D01*
X0104409Y0325497D01*
X0104256Y0325471D01*
X0104103Y0325450D01*
X0103950Y0325432D01*
X0103796Y0325418D01*
X0103642Y0325408D01*
X0103487Y0325402D01*
X0103333Y0325400D01*
X0103179Y0325402D01*
X0103024Y0325408D01*
X0102870Y0325418D01*
X0102716Y0325432D01*
X0102563Y0325450D01*
X0102410Y0325471D01*
X0102257Y0325497D01*
X0102106Y0325527D01*
X0101955Y0325560D01*
X0101805Y0325598D01*
X0101656Y0325639D01*
X0101508Y0325684D01*
X0101362Y0325733D01*
X0101216Y0325786D01*
X0101073Y0325842D01*
X0100930Y0325902D01*
X0100790Y0325966D01*
X0100650Y0326033D01*
X0100513Y0326104D01*
X0100378Y0326178D01*
X0100244Y0326256D01*
X0100113Y0326337D01*
X0099984Y0326422D01*
X0099856Y0326510D01*
X0099732Y0326601D01*
X0099609Y0326695D01*
X0099489Y0326793D01*
X0099372Y0326893D01*
X0099257Y0326997D01*
X0099145Y0327103D01*
X0099036Y0327212D01*
X0098930Y0327324D01*
X0098826Y0327439D01*
X0098726Y0327556D01*
X0098628Y0327676D01*
X0098534Y0327799D01*
X0098443Y0327923D01*
X0098355Y0328051D01*
X0098270Y0328180D01*
X0098189Y0328311D01*
X0098111Y0328445D01*
X0098037Y0328580D01*
X0097966Y0328717D01*
X0097899Y0328857D01*
X0097835Y0328997D01*
X0097775Y0329140D01*
X0097719Y0329283D01*
X0097666Y0329429D01*
X0097617Y0329575D01*
X0097572Y0329723D01*
X0097531Y0329872D01*
X0097493Y0330022D01*
X0097460Y0330173D01*
X0097430Y0330324D01*
X0097404Y0330477D01*
X0097383Y0330630D01*
X0097365Y0330783D01*
X0097351Y0330937D01*
X0097341Y0331091D01*
X0097335Y0331246D01*
X0097333Y0331400D01*
X0227333Y0331400D02*
X0227335Y0331554D01*
X0227341Y0331709D01*
X0227351Y0331863D01*
X0227365Y0332017D01*
X0227383Y0332170D01*
X0227404Y0332323D01*
X0227430Y0332476D01*
X0227460Y0332627D01*
X0227493Y0332778D01*
X0227531Y0332928D01*
X0227572Y0333077D01*
X0227617Y0333225D01*
X0227666Y0333371D01*
X0227719Y0333517D01*
X0227775Y0333660D01*
X0227835Y0333803D01*
X0227899Y0333943D01*
X0227966Y0334083D01*
X0228037Y0334220D01*
X0228111Y0334355D01*
X0228189Y0334489D01*
X0228270Y0334620D01*
X0228355Y0334749D01*
X0228443Y0334877D01*
X0228534Y0335001D01*
X0228628Y0335124D01*
X0228726Y0335244D01*
X0228826Y0335361D01*
X0228930Y0335476D01*
X0229036Y0335588D01*
X0229145Y0335697D01*
X0229257Y0335803D01*
X0229372Y0335907D01*
X0229489Y0336007D01*
X0229609Y0336105D01*
X0229732Y0336199D01*
X0229856Y0336290D01*
X0229984Y0336378D01*
X0230113Y0336463D01*
X0230244Y0336544D01*
X0230378Y0336622D01*
X0230513Y0336696D01*
X0230650Y0336767D01*
X0230790Y0336834D01*
X0230930Y0336898D01*
X0231073Y0336958D01*
X0231216Y0337014D01*
X0231362Y0337067D01*
X0231508Y0337116D01*
X0231656Y0337161D01*
X0231805Y0337202D01*
X0231955Y0337240D01*
X0232106Y0337273D01*
X0232257Y0337303D01*
X0232410Y0337329D01*
X0232563Y0337350D01*
X0232716Y0337368D01*
X0232870Y0337382D01*
X0233024Y0337392D01*
X0233179Y0337398D01*
X0233333Y0337400D01*
X0233487Y0337398D01*
X0233642Y0337392D01*
X0233796Y0337382D01*
X0233950Y0337368D01*
X0234103Y0337350D01*
X0234256Y0337329D01*
X0234409Y0337303D01*
X0234560Y0337273D01*
X0234711Y0337240D01*
X0234861Y0337202D01*
X0235010Y0337161D01*
X0235158Y0337116D01*
X0235304Y0337067D01*
X0235450Y0337014D01*
X0235593Y0336958D01*
X0235736Y0336898D01*
X0235876Y0336834D01*
X0236016Y0336767D01*
X0236153Y0336696D01*
X0236288Y0336622D01*
X0236422Y0336544D01*
X0236553Y0336463D01*
X0236682Y0336378D01*
X0236810Y0336290D01*
X0236934Y0336199D01*
X0237057Y0336105D01*
X0237177Y0336007D01*
X0237294Y0335907D01*
X0237409Y0335803D01*
X0237521Y0335697D01*
X0237630Y0335588D01*
X0237736Y0335476D01*
X0237840Y0335361D01*
X0237940Y0335244D01*
X0238038Y0335124D01*
X0238132Y0335001D01*
X0238223Y0334877D01*
X0238311Y0334749D01*
X0238396Y0334620D01*
X0238477Y0334489D01*
X0238555Y0334355D01*
X0238629Y0334220D01*
X0238700Y0334083D01*
X0238767Y0333943D01*
X0238831Y0333803D01*
X0238891Y0333660D01*
X0238947Y0333517D01*
X0239000Y0333371D01*
X0239049Y0333225D01*
X0239094Y0333077D01*
X0239135Y0332928D01*
X0239173Y0332778D01*
X0239206Y0332627D01*
X0239236Y0332476D01*
X0239262Y0332323D01*
X0239283Y0332170D01*
X0239301Y0332017D01*
X0239315Y0331863D01*
X0239325Y0331709D01*
X0239331Y0331554D01*
X0239333Y0331400D01*
X0239331Y0331246D01*
X0239325Y0331091D01*
X0239315Y0330937D01*
X0239301Y0330783D01*
X0239283Y0330630D01*
X0239262Y0330477D01*
X0239236Y0330324D01*
X0239206Y0330173D01*
X0239173Y0330022D01*
X0239135Y0329872D01*
X0239094Y0329723D01*
X0239049Y0329575D01*
X0239000Y0329429D01*
X0238947Y0329283D01*
X0238891Y0329140D01*
X0238831Y0328997D01*
X0238767Y0328857D01*
X0238700Y0328717D01*
X0238629Y0328580D01*
X0238555Y0328445D01*
X0238477Y0328311D01*
X0238396Y0328180D01*
X0238311Y0328051D01*
X0238223Y0327923D01*
X0238132Y0327799D01*
X0238038Y0327676D01*
X0237940Y0327556D01*
X0237840Y0327439D01*
X0237736Y0327324D01*
X0237630Y0327212D01*
X0237521Y0327103D01*
X0237409Y0326997D01*
X0237294Y0326893D01*
X0237177Y0326793D01*
X0237057Y0326695D01*
X0236934Y0326601D01*
X0236810Y0326510D01*
X0236682Y0326422D01*
X0236553Y0326337D01*
X0236422Y0326256D01*
X0236288Y0326178D01*
X0236153Y0326104D01*
X0236016Y0326033D01*
X0235876Y0325966D01*
X0235736Y0325902D01*
X0235593Y0325842D01*
X0235450Y0325786D01*
X0235304Y0325733D01*
X0235158Y0325684D01*
X0235010Y0325639D01*
X0234861Y0325598D01*
X0234711Y0325560D01*
X0234560Y0325527D01*
X0234409Y0325497D01*
X0234256Y0325471D01*
X0234103Y0325450D01*
X0233950Y0325432D01*
X0233796Y0325418D01*
X0233642Y0325408D01*
X0233487Y0325402D01*
X0233333Y0325400D01*
X0233179Y0325402D01*
X0233024Y0325408D01*
X0232870Y0325418D01*
X0232716Y0325432D01*
X0232563Y0325450D01*
X0232410Y0325471D01*
X0232257Y0325497D01*
X0232106Y0325527D01*
X0231955Y0325560D01*
X0231805Y0325598D01*
X0231656Y0325639D01*
X0231508Y0325684D01*
X0231362Y0325733D01*
X0231216Y0325786D01*
X0231073Y0325842D01*
X0230930Y0325902D01*
X0230790Y0325966D01*
X0230650Y0326033D01*
X0230513Y0326104D01*
X0230378Y0326178D01*
X0230244Y0326256D01*
X0230113Y0326337D01*
X0229984Y0326422D01*
X0229856Y0326510D01*
X0229732Y0326601D01*
X0229609Y0326695D01*
X0229489Y0326793D01*
X0229372Y0326893D01*
X0229257Y0326997D01*
X0229145Y0327103D01*
X0229036Y0327212D01*
X0228930Y0327324D01*
X0228826Y0327439D01*
X0228726Y0327556D01*
X0228628Y0327676D01*
X0228534Y0327799D01*
X0228443Y0327923D01*
X0228355Y0328051D01*
X0228270Y0328180D01*
X0228189Y0328311D01*
X0228111Y0328445D01*
X0228037Y0328580D01*
X0227966Y0328717D01*
X0227899Y0328857D01*
X0227835Y0328997D01*
X0227775Y0329140D01*
X0227719Y0329283D01*
X0227666Y0329429D01*
X0227617Y0329575D01*
X0227572Y0329723D01*
X0227531Y0329872D01*
X0227493Y0330022D01*
X0227460Y0330173D01*
X0227430Y0330324D01*
X0227404Y0330477D01*
X0227383Y0330630D01*
X0227365Y0330783D01*
X0227351Y0330937D01*
X0227341Y0331091D01*
X0227335Y0331246D01*
X0227333Y0331400D01*
M02*
