G75*
%MOIN*%
%OFA0B0*%
%FSLAX25Y25*%
%IPPOS*%
%LPD*%
%AMOC8*
5,1,8,0,0,1.08239X$1,22.5*
%
%ADD10C,0.01000*%
%ADD11C,0.02500*%
%ADD12C,0.04000*%
%ADD13C,0.20000*%
%ADD14C,0.00800*%
%ADD15C,0.02900*%
D10*
X0096333Y0281400D02*
X0120333Y0281400D01*
X0120333Y0295400D01*
X0120211Y0297108D01*
X0119847Y0298781D01*
X0119249Y0300385D01*
X0118428Y0301888D01*
X0117402Y0303258D01*
X0116192Y0304469D01*
X0114821Y0305495D01*
X0113318Y0306316D01*
X0111714Y0306914D01*
X0110041Y0307278D01*
X0108333Y0307400D01*
X0106626Y0307278D01*
X0104953Y0306914D01*
X0103348Y0306316D01*
X0101846Y0305495D01*
X0100475Y0304469D01*
X0099264Y0303258D01*
X0098238Y0301888D01*
X0097418Y0300385D01*
X0096819Y0298781D01*
X0096455Y0297108D01*
X0096333Y0295400D01*
X0096333Y0281400D01*
X0120333Y0281400D01*
X0120333Y0282399D02*
X0096333Y0282399D01*
X0096333Y0283397D02*
X0120333Y0283397D01*
X0120333Y0284396D02*
X0096333Y0284396D01*
X0096333Y0285394D02*
X0120333Y0285394D01*
X0120333Y0286393D02*
X0096333Y0286393D01*
X0096333Y0287391D02*
X0120333Y0287391D01*
X0120333Y0288390D02*
X0096333Y0288390D01*
X0096333Y0289388D02*
X0120333Y0289388D01*
X0120333Y0290387D02*
X0096333Y0290387D01*
X0096333Y0291385D02*
X0120333Y0291385D01*
X0120333Y0292384D02*
X0096333Y0292384D01*
X0096333Y0293382D02*
X0120333Y0293382D01*
X0120333Y0294381D02*
X0096333Y0294381D01*
X0096333Y0295379D02*
X0120333Y0295379D01*
X0120263Y0296378D02*
X0096403Y0296378D01*
X0096514Y0297376D02*
X0120153Y0297376D01*
X0119936Y0298375D02*
X0096731Y0298375D01*
X0097040Y0299373D02*
X0119626Y0299373D01*
X0119254Y0300372D02*
X0097413Y0300372D01*
X0097956Y0301370D02*
X0118711Y0301370D01*
X0118068Y0302369D02*
X0098598Y0302369D01*
X0099373Y0303367D02*
X0117293Y0303367D01*
X0116295Y0304366D02*
X0100372Y0304366D01*
X0101671Y0305364D02*
X0114996Y0305364D01*
X0113192Y0306363D02*
X0103475Y0306363D01*
X0107792Y0307361D02*
X0108874Y0307361D01*
X0136819Y0298781D02*
X0136455Y0297108D01*
X0136333Y0295400D01*
X0136333Y0281400D01*
X0160333Y0281400D01*
X0160333Y0295400D01*
X0160211Y0297108D01*
X0159847Y0298781D01*
X0159249Y0300385D01*
X0158428Y0301888D01*
X0157402Y0303258D01*
X0156192Y0304469D01*
X0154821Y0305495D01*
X0153318Y0306316D01*
X0151714Y0306914D01*
X0150041Y0307278D01*
X0148333Y0307400D01*
X0146626Y0307278D01*
X0144953Y0306914D01*
X0143348Y0306316D01*
X0141846Y0305495D01*
X0140475Y0304469D01*
X0139264Y0303258D01*
X0138238Y0301888D01*
X0137418Y0300385D01*
X0136819Y0298781D01*
X0136731Y0298375D02*
X0159936Y0298375D01*
X0160153Y0297376D02*
X0136514Y0297376D01*
X0136403Y0296378D02*
X0160263Y0296378D01*
X0160333Y0295379D02*
X0136333Y0295379D01*
X0136333Y0294381D02*
X0160333Y0294381D01*
X0160333Y0293382D02*
X0136333Y0293382D01*
X0136333Y0292384D02*
X0160333Y0292384D01*
X0160333Y0291385D02*
X0136333Y0291385D01*
X0136333Y0290387D02*
X0160333Y0290387D01*
X0160333Y0289388D02*
X0136333Y0289388D01*
X0136333Y0288390D02*
X0160333Y0288390D01*
X0160333Y0287391D02*
X0136333Y0287391D01*
X0136333Y0286393D02*
X0160333Y0286393D01*
X0160333Y0285394D02*
X0136333Y0285394D01*
X0136333Y0284396D02*
X0160333Y0284396D01*
X0160333Y0283397D02*
X0136333Y0283397D01*
X0136333Y0282399D02*
X0160333Y0282399D01*
X0160333Y0281400D02*
X0136333Y0281400D01*
X0137040Y0299373D02*
X0159626Y0299373D01*
X0159254Y0300372D02*
X0137413Y0300372D01*
X0137956Y0301370D02*
X0158711Y0301370D01*
X0158068Y0302369D02*
X0138598Y0302369D01*
X0139373Y0303367D02*
X0157293Y0303367D01*
X0156295Y0304366D02*
X0140372Y0304366D01*
X0141671Y0305364D02*
X0154996Y0305364D01*
X0153192Y0306363D02*
X0143475Y0306363D01*
X0147792Y0307361D02*
X0148874Y0307361D01*
X0163791Y0288403D02*
X0163791Y0284400D01*
X0165125Y0284400D02*
X0162457Y0284400D01*
X0165125Y0287069D02*
X0163791Y0288403D01*
X0167060Y0287736D02*
X0169729Y0285067D01*
X0169062Y0284400D01*
X0167728Y0284400D01*
X0167060Y0285067D01*
X0167060Y0287736D01*
X0167728Y0288403D01*
X0169062Y0288403D01*
X0169729Y0287736D01*
X0169729Y0285067D01*
X0171664Y0287069D02*
X0172999Y0284400D01*
X0174333Y0287069D01*
X0176333Y0287391D02*
X0200333Y0287391D01*
X0200333Y0286393D02*
X0176333Y0286393D01*
X0176333Y0285394D02*
X0200333Y0285394D01*
X0200333Y0284396D02*
X0176333Y0284396D01*
X0176333Y0283397D02*
X0200333Y0283397D01*
X0200333Y0282399D02*
X0176333Y0282399D01*
X0176333Y0281400D02*
X0200333Y0281400D01*
X0200333Y0295400D01*
X0200211Y0297108D01*
X0199847Y0298781D01*
X0199249Y0300385D01*
X0198428Y0301888D01*
X0197402Y0303258D01*
X0196192Y0304469D01*
X0194821Y0305495D01*
X0193318Y0306316D01*
X0191714Y0306914D01*
X0190041Y0307278D01*
X0188333Y0307400D01*
X0186626Y0307278D01*
X0184953Y0306914D01*
X0183348Y0306316D01*
X0181846Y0305495D01*
X0180475Y0304469D01*
X0179264Y0303258D01*
X0178238Y0301888D01*
X0177418Y0300385D01*
X0176819Y0298781D01*
X0176455Y0297108D01*
X0176333Y0295400D01*
X0176333Y0281400D01*
X0200333Y0281400D01*
X0200333Y0288390D02*
X0176333Y0288390D01*
X0176333Y0289388D02*
X0200333Y0289388D01*
X0200333Y0290387D02*
X0176333Y0290387D01*
X0176333Y0291385D02*
X0200333Y0291385D01*
X0200333Y0292384D02*
X0176333Y0292384D01*
X0176333Y0293382D02*
X0200333Y0293382D01*
X0200333Y0294381D02*
X0176333Y0294381D01*
X0176333Y0295379D02*
X0200333Y0295379D01*
X0200263Y0296378D02*
X0176403Y0296378D01*
X0176514Y0297376D02*
X0200153Y0297376D01*
X0199936Y0298375D02*
X0176731Y0298375D01*
X0177040Y0299373D02*
X0199626Y0299373D01*
X0199254Y0300372D02*
X0177413Y0300372D01*
X0177956Y0301370D02*
X0198711Y0301370D01*
X0198068Y0302369D02*
X0178598Y0302369D01*
X0179373Y0303367D02*
X0197293Y0303367D01*
X0196295Y0304366D02*
X0180372Y0304366D01*
X0181671Y0305364D02*
X0194996Y0305364D01*
X0193192Y0306363D02*
X0183475Y0306363D01*
X0187792Y0307361D02*
X0188874Y0307361D01*
X0216819Y0298781D02*
X0216455Y0297108D01*
X0216333Y0295400D01*
X0216333Y0281400D01*
X0240333Y0281400D01*
X0240333Y0295400D01*
X0240211Y0297108D01*
X0239847Y0298781D01*
X0239249Y0300385D01*
X0238428Y0301888D01*
X0237402Y0303258D01*
X0236192Y0304469D01*
X0234821Y0305495D01*
X0233318Y0306316D01*
X0231714Y0306914D01*
X0230041Y0307278D01*
X0228333Y0307400D01*
X0226626Y0307278D01*
X0224953Y0306914D01*
X0223348Y0306316D01*
X0221846Y0305495D01*
X0220475Y0304469D01*
X0219264Y0303258D01*
X0218238Y0301888D01*
X0217418Y0300385D01*
X0216819Y0298781D01*
X0216731Y0298375D02*
X0239936Y0298375D01*
X0240153Y0297376D02*
X0216514Y0297376D01*
X0216403Y0296378D02*
X0240263Y0296378D01*
X0240333Y0295379D02*
X0216333Y0295379D01*
X0216333Y0294381D02*
X0240333Y0294381D01*
X0240333Y0293382D02*
X0216333Y0293382D01*
X0216333Y0292384D02*
X0240333Y0292384D01*
X0240333Y0291385D02*
X0216333Y0291385D01*
X0216333Y0290387D02*
X0240333Y0290387D01*
X0240333Y0289388D02*
X0216333Y0289388D01*
X0216333Y0288390D02*
X0240333Y0288390D01*
X0240333Y0287391D02*
X0216333Y0287391D01*
X0216333Y0286393D02*
X0240333Y0286393D01*
X0240333Y0285394D02*
X0216333Y0285394D01*
X0216333Y0284396D02*
X0240333Y0284396D01*
X0240333Y0283397D02*
X0216333Y0283397D01*
X0216333Y0282399D02*
X0240333Y0282399D01*
X0240333Y0281400D02*
X0216333Y0281400D01*
X0217040Y0299373D02*
X0239626Y0299373D01*
X0239254Y0300372D02*
X0217413Y0300372D01*
X0217956Y0301370D02*
X0238711Y0301370D01*
X0238068Y0302369D02*
X0218598Y0302369D01*
X0219373Y0303367D02*
X0237293Y0303367D01*
X0236295Y0304366D02*
X0220372Y0304366D01*
X0221671Y0305364D02*
X0234996Y0305364D01*
X0233192Y0306363D02*
X0223475Y0306363D01*
X0227792Y0307361D02*
X0228874Y0307361D01*
X0228333Y0355400D02*
X0226626Y0355522D01*
X0224953Y0355886D01*
X0223348Y0356484D01*
X0221846Y0357305D01*
X0220475Y0358331D01*
X0219264Y0359542D01*
X0218238Y0360912D01*
X0217418Y0362415D01*
X0216819Y0364019D01*
X0216455Y0365692D01*
X0216333Y0367400D01*
X0216333Y0381400D01*
X0240333Y0381400D01*
X0240333Y0367400D01*
X0240211Y0365692D01*
X0239847Y0364019D01*
X0239249Y0362415D01*
X0238428Y0360912D01*
X0237402Y0359542D01*
X0236192Y0358331D01*
X0234821Y0357305D01*
X0233318Y0356484D01*
X0231714Y0355886D01*
X0230041Y0355522D01*
X0228333Y0355400D01*
X0223874Y0356288D02*
X0232793Y0356288D01*
X0234788Y0357287D02*
X0221879Y0357287D01*
X0220536Y0358285D02*
X0236131Y0358285D01*
X0237145Y0359284D02*
X0219522Y0359284D01*
X0218710Y0360282D02*
X0237957Y0360282D01*
X0238630Y0361281D02*
X0218037Y0361281D01*
X0217492Y0362279D02*
X0239175Y0362279D01*
X0239571Y0363278D02*
X0217096Y0363278D01*
X0216763Y0364276D02*
X0239903Y0364276D01*
X0240120Y0365275D02*
X0216546Y0365275D01*
X0216414Y0366273D02*
X0240253Y0366273D01*
X0240324Y0367272D02*
X0216342Y0367272D01*
X0216333Y0368270D02*
X0240333Y0368270D01*
X0240333Y0369269D02*
X0216333Y0369269D01*
X0216333Y0370268D02*
X0240333Y0370268D01*
X0240333Y0371266D02*
X0216333Y0371266D01*
X0216333Y0372265D02*
X0240333Y0372265D01*
X0240333Y0373263D02*
X0216333Y0373263D01*
X0216333Y0374262D02*
X0240333Y0374262D01*
X0240333Y0375260D02*
X0216333Y0375260D01*
X0216333Y0376259D02*
X0240333Y0376259D01*
X0240333Y0377257D02*
X0216333Y0377257D01*
X0216333Y0378256D02*
X0240333Y0378256D01*
X0240333Y0379254D02*
X0216333Y0379254D01*
X0216333Y0380253D02*
X0240333Y0380253D01*
X0240333Y0381251D02*
X0216333Y0381251D01*
X0200333Y0381251D02*
X0176333Y0381251D01*
X0176333Y0381400D02*
X0176333Y0367400D01*
X0176455Y0365692D01*
X0176819Y0364019D01*
X0177418Y0362415D01*
X0178238Y0360912D01*
X0179264Y0359542D01*
X0180475Y0358331D01*
X0181846Y0357305D01*
X0183348Y0356484D01*
X0184953Y0355886D01*
X0186626Y0355522D01*
X0188333Y0355400D01*
X0190041Y0355522D01*
X0191714Y0355886D01*
X0193318Y0356484D01*
X0194821Y0357305D01*
X0196192Y0358331D01*
X0197402Y0359542D01*
X0198428Y0360912D01*
X0199249Y0362415D01*
X0199847Y0364019D01*
X0200211Y0365692D01*
X0200333Y0367400D01*
X0200333Y0381400D01*
X0176333Y0381400D01*
X0176333Y0380253D02*
X0200333Y0380253D01*
X0200333Y0379254D02*
X0176333Y0379254D01*
X0176333Y0378256D02*
X0200333Y0378256D01*
X0200333Y0377257D02*
X0176333Y0377257D01*
X0176333Y0376259D02*
X0200333Y0376259D01*
X0200333Y0375260D02*
X0176333Y0375260D01*
X0176333Y0374262D02*
X0200333Y0374262D01*
X0200333Y0373263D02*
X0176333Y0373263D01*
X0176333Y0372265D02*
X0200333Y0372265D01*
X0200333Y0371266D02*
X0176333Y0371266D01*
X0176333Y0370268D02*
X0200333Y0370268D01*
X0200333Y0369269D02*
X0176333Y0369269D01*
X0176333Y0368270D02*
X0200333Y0368270D01*
X0200324Y0367272D02*
X0176342Y0367272D01*
X0176414Y0366273D02*
X0200253Y0366273D01*
X0200120Y0365275D02*
X0176546Y0365275D01*
X0176763Y0364276D02*
X0199903Y0364276D01*
X0199571Y0363278D02*
X0177096Y0363278D01*
X0177492Y0362279D02*
X0199175Y0362279D01*
X0198630Y0361281D02*
X0178037Y0361281D01*
X0178710Y0360282D02*
X0197957Y0360282D01*
X0197145Y0359284D02*
X0179522Y0359284D01*
X0180536Y0358285D02*
X0196131Y0358285D01*
X0194788Y0357287D02*
X0181879Y0357287D01*
X0183874Y0356288D02*
X0192793Y0356288D01*
X0159847Y0364019D02*
X0160211Y0365692D01*
X0160333Y0367400D01*
X0160333Y0381400D01*
X0136333Y0381400D01*
X0136333Y0367400D01*
X0136455Y0365692D01*
X0136819Y0364019D01*
X0137418Y0362415D01*
X0138238Y0360912D01*
X0139264Y0359542D01*
X0140475Y0358331D01*
X0141846Y0357305D01*
X0143348Y0356484D01*
X0144953Y0355886D01*
X0146626Y0355522D01*
X0148333Y0355400D01*
X0150041Y0355522D01*
X0151714Y0355886D01*
X0153318Y0356484D01*
X0154821Y0357305D01*
X0156192Y0358331D01*
X0157402Y0359542D01*
X0158428Y0360912D01*
X0159249Y0362415D01*
X0159847Y0364019D01*
X0159903Y0364276D02*
X0136763Y0364276D01*
X0136546Y0365275D02*
X0160120Y0365275D01*
X0160253Y0366273D02*
X0136414Y0366273D01*
X0136342Y0367272D02*
X0160324Y0367272D01*
X0160333Y0368270D02*
X0136333Y0368270D01*
X0136333Y0369269D02*
X0160333Y0369269D01*
X0160333Y0370268D02*
X0136333Y0370268D01*
X0136333Y0371266D02*
X0160333Y0371266D01*
X0160333Y0372265D02*
X0136333Y0372265D01*
X0136333Y0373263D02*
X0160333Y0373263D01*
X0160333Y0374262D02*
X0136333Y0374262D01*
X0136333Y0375260D02*
X0160333Y0375260D01*
X0160333Y0376259D02*
X0136333Y0376259D01*
X0136333Y0377257D02*
X0160333Y0377257D01*
X0160333Y0378256D02*
X0136333Y0378256D01*
X0136333Y0379254D02*
X0160333Y0379254D01*
X0160333Y0380253D02*
X0136333Y0380253D01*
X0136333Y0381251D02*
X0160333Y0381251D01*
X0159571Y0363278D02*
X0137096Y0363278D01*
X0137492Y0362279D02*
X0159175Y0362279D01*
X0158630Y0361281D02*
X0138037Y0361281D01*
X0138710Y0360282D02*
X0157957Y0360282D01*
X0157145Y0359284D02*
X0139522Y0359284D01*
X0140536Y0358285D02*
X0156131Y0358285D01*
X0154788Y0357287D02*
X0141879Y0357287D01*
X0143874Y0356288D02*
X0152793Y0356288D01*
X0119847Y0364019D02*
X0120211Y0365692D01*
X0120333Y0367400D01*
X0120333Y0381400D01*
X0096333Y0381400D01*
X0096333Y0367400D01*
X0096455Y0365692D01*
X0096819Y0364019D01*
X0097418Y0362415D01*
X0098238Y0360912D01*
X0099264Y0359542D01*
X0100475Y0358331D01*
X0101846Y0357305D01*
X0103348Y0356484D01*
X0104953Y0355886D01*
X0106626Y0355522D01*
X0108333Y0355400D01*
X0110041Y0355522D01*
X0111714Y0355886D01*
X0113318Y0356484D01*
X0114821Y0357305D01*
X0116192Y0358331D01*
X0117402Y0359542D01*
X0118428Y0360912D01*
X0119249Y0362415D01*
X0119847Y0364019D01*
X0119903Y0364276D02*
X0096763Y0364276D01*
X0096546Y0365275D02*
X0120120Y0365275D01*
X0120253Y0366273D02*
X0096414Y0366273D01*
X0096342Y0367272D02*
X0120324Y0367272D01*
X0120333Y0368270D02*
X0096333Y0368270D01*
X0096333Y0369269D02*
X0120333Y0369269D01*
X0120333Y0370268D02*
X0096333Y0370268D01*
X0096333Y0371266D02*
X0120333Y0371266D01*
X0120333Y0372265D02*
X0096333Y0372265D01*
X0096333Y0373263D02*
X0120333Y0373263D01*
X0120333Y0374262D02*
X0096333Y0374262D01*
X0096333Y0375260D02*
X0120333Y0375260D01*
X0120333Y0376259D02*
X0096333Y0376259D01*
X0096333Y0377257D02*
X0120333Y0377257D01*
X0120333Y0378256D02*
X0096333Y0378256D01*
X0096333Y0379254D02*
X0120333Y0379254D01*
X0120333Y0380253D02*
X0096333Y0380253D01*
X0096333Y0381251D02*
X0120333Y0381251D01*
X0119571Y0363278D02*
X0097096Y0363278D01*
X0097492Y0362279D02*
X0119175Y0362279D01*
X0118630Y0361281D02*
X0098037Y0361281D01*
X0098710Y0360282D02*
X0117957Y0360282D01*
X0117145Y0359284D02*
X0099522Y0359284D01*
X0100536Y0358285D02*
X0116131Y0358285D01*
X0114788Y0357287D02*
X0101879Y0357287D01*
X0103874Y0356288D02*
X0112793Y0356288D01*
D11*
X0095833Y0306400D03*
X0240833Y0356400D03*
D12*
X0145833Y0321400D03*
D13*
X0148333Y0295400D03*
X0188333Y0295400D03*
X0228333Y0295400D03*
X0228333Y0367400D03*
X0188333Y0367400D03*
X0148333Y0367400D03*
X0108333Y0367400D03*
X0108333Y0295400D03*
D14*
X0107933Y0295773D02*
X0095333Y0295773D01*
X0095333Y0295800D02*
X0107933Y0295800D01*
X0107933Y0295000D01*
X0095333Y0295000D01*
X0095333Y0295800D01*
X0098394Y0305134D02*
X0098683Y0305833D01*
X0098683Y0306967D01*
X0098249Y0308014D01*
X0097448Y0308816D01*
X0096400Y0309250D01*
X0095333Y0309250D01*
X0095333Y0326656D01*
X0096099Y0325330D01*
X0098612Y0323222D01*
X0098612Y0323222D01*
X0101693Y0322100D01*
X0104973Y0322100D01*
X0108055Y0323222D01*
X0110567Y0325330D01*
X0112207Y0328170D01*
X0112207Y0328170D01*
X0112777Y0331400D01*
X0112207Y0334630D01*
X0110567Y0337470D01*
X0108055Y0339578D01*
X0104973Y0340700D01*
X0101693Y0340700D01*
X0098612Y0339578D01*
X0098612Y0339578D01*
X0096099Y0337470D01*
X0095333Y0336144D01*
X0095333Y0362429D01*
X0095339Y0362412D01*
X0095339Y0362412D01*
X0095931Y0361081D01*
X0095931Y0361081D01*
X0096660Y0359819D01*
X0097516Y0358640D01*
X0098491Y0357558D01*
X0098491Y0357558D01*
X0098875Y0357212D01*
X0099574Y0356583D01*
X0100019Y0356259D01*
X0100752Y0355726D01*
X0100752Y0355726D01*
X0101657Y0355204D01*
X0102014Y0354998D01*
X0102014Y0354998D01*
X0103152Y0354492D01*
X0103345Y0354405D01*
X0104731Y0353955D01*
X0106156Y0353652D01*
X0107605Y0353500D01*
X0107933Y0353500D01*
X0107933Y0367000D01*
X0095333Y0367000D01*
X0095333Y0367800D01*
X0107933Y0367800D01*
X0107933Y0367000D01*
X0108733Y0367000D01*
X0108733Y0353500D01*
X0109062Y0353500D01*
X0110511Y0353652D01*
X0111936Y0353955D01*
X0113321Y0354405D01*
X0114652Y0354998D01*
X0115914Y0355726D01*
X0117093Y0356583D01*
X0118176Y0357558D01*
X0119150Y0358640D01*
X0119150Y0358640D01*
X0119153Y0358645D01*
X0120007Y0359819D01*
X0120007Y0359819D01*
X0120735Y0361081D01*
X0121328Y0362412D01*
X0121778Y0363797D01*
X0121778Y0363797D01*
X0122081Y0365223D01*
X0122233Y0366672D01*
X0122233Y0367000D01*
X0108733Y0367000D01*
X0108733Y0367800D01*
X0107933Y0367800D01*
X0107933Y0379400D01*
X0108733Y0379400D01*
X0108733Y0367800D01*
X0122233Y0367800D01*
X0122233Y0379400D01*
X0134233Y0379400D01*
X0134233Y0368183D01*
X0134177Y0368118D01*
X0134233Y0367325D01*
X0134233Y0366530D01*
X0134295Y0366469D01*
X0134311Y0366240D01*
X0134219Y0366096D01*
X0134372Y0365393D01*
X0134423Y0364675D01*
X0134552Y0364563D01*
X0134619Y0364256D01*
X0134548Y0364100D01*
X0134799Y0363426D01*
X0134952Y0362723D01*
X0135096Y0362630D01*
X0135206Y0362336D01*
X0135158Y0362172D01*
X0135503Y0361540D01*
X0135754Y0360866D01*
X0135910Y0360795D01*
X0136060Y0360519D01*
X0136036Y0360350D01*
X0136467Y0359774D01*
X0136812Y0359142D01*
X0136976Y0359094D01*
X0137164Y0358843D01*
X0137164Y0358672D01*
X0137673Y0358163D01*
X0138104Y0357587D01*
X0138274Y0357563D01*
X0138496Y0357340D01*
X0138520Y0357171D01*
X0139096Y0356740D01*
X0139605Y0356231D01*
X0139776Y0356231D01*
X0140028Y0356043D01*
X0140076Y0355879D01*
X0140707Y0355534D01*
X0141284Y0355103D01*
X0141453Y0355127D01*
X0141633Y0355028D01*
X0135505Y0348900D01*
X0134333Y0347728D01*
X0134333Y0306072D01*
X0136789Y0303616D01*
X0136467Y0303026D01*
X0136036Y0302450D01*
X0136060Y0302281D01*
X0135910Y0302005D01*
X0135754Y0301934D01*
X0135503Y0301260D01*
X0135158Y0300628D01*
X0135206Y0300464D01*
X0135096Y0300170D01*
X0134952Y0300077D01*
X0134799Y0299374D01*
X0134548Y0298700D01*
X0134619Y0298544D01*
X0134552Y0298237D01*
X0134423Y0298125D01*
X0134372Y0297407D01*
X0134219Y0296704D01*
X0134311Y0296560D01*
X0134295Y0296331D01*
X0134233Y0296270D01*
X0134233Y0295475D01*
X0134177Y0294682D01*
X0134233Y0294617D01*
X0134233Y0283400D01*
X0122233Y0283400D01*
X0122233Y0295000D01*
X0108733Y0295000D01*
X0108733Y0283400D01*
X0107933Y0283400D01*
X0107933Y0295000D01*
X0108733Y0295000D01*
X0108733Y0295800D01*
X0107933Y0295800D01*
X0107933Y0309300D01*
X0107605Y0309300D01*
X0106156Y0309148D01*
X0104731Y0308845D01*
X0103345Y0308395D01*
X0102014Y0307802D01*
X0100752Y0307074D01*
X0099574Y0306217D01*
X0098491Y0305242D01*
X0098394Y0305134D01*
X0098491Y0305242D02*
X0098491Y0305242D01*
X0098485Y0305355D02*
X0098617Y0305355D01*
X0098683Y0306154D02*
X0099503Y0306154D01*
X0098683Y0306952D02*
X0100586Y0306952D01*
X0101926Y0307751D02*
X0098359Y0307751D01*
X0097714Y0308549D02*
X0103822Y0308549D01*
X0107933Y0308549D02*
X0108733Y0308549D01*
X0108733Y0309300D02*
X0108733Y0295800D01*
X0122233Y0295800D01*
X0122233Y0296128D01*
X0122081Y0297577D01*
X0122081Y0297577D01*
X0121778Y0299002D01*
X0121778Y0299003D01*
X0121328Y0300388D01*
X0121328Y0300388D01*
X0120735Y0301719D01*
X0120007Y0302981D01*
X0119150Y0304160D01*
X0118176Y0305242D01*
X0118176Y0305242D01*
X0118110Y0305301D01*
X0117093Y0306217D01*
X0117093Y0306217D01*
X0117014Y0306274D01*
X0115914Y0307074D01*
X0115819Y0307129D01*
X0114652Y0307802D01*
X0114536Y0307854D01*
X0113321Y0308395D01*
X0113175Y0308442D01*
X0111936Y0308845D01*
X0111936Y0308845D01*
X0111744Y0308886D01*
X0110511Y0309148D01*
X0109062Y0309300D01*
X0108733Y0309300D01*
X0108733Y0307751D02*
X0107933Y0307751D01*
X0107933Y0306952D02*
X0108733Y0306952D01*
X0108733Y0306154D02*
X0107933Y0306154D01*
X0107933Y0305355D02*
X0108733Y0305355D01*
X0108733Y0304557D02*
X0107933Y0304557D01*
X0107933Y0303758D02*
X0108733Y0303758D01*
X0108733Y0302960D02*
X0107933Y0302960D01*
X0107933Y0302161D02*
X0108733Y0302161D01*
X0108733Y0301363D02*
X0107933Y0301363D01*
X0107933Y0300564D02*
X0108733Y0300564D01*
X0108733Y0299766D02*
X0107933Y0299766D01*
X0107933Y0298967D02*
X0108733Y0298967D01*
X0108733Y0298169D02*
X0107933Y0298169D01*
X0107933Y0297370D02*
X0108733Y0297370D01*
X0108733Y0296572D02*
X0107933Y0296572D01*
X0108733Y0295773D02*
X0134233Y0295773D01*
X0134198Y0294975D02*
X0122233Y0294975D01*
X0122233Y0294176D02*
X0134233Y0294176D01*
X0134233Y0293378D02*
X0122233Y0293378D01*
X0122233Y0292579D02*
X0134233Y0292579D01*
X0134233Y0291781D02*
X0122233Y0291781D01*
X0122233Y0290982D02*
X0134233Y0290982D01*
X0134233Y0290184D02*
X0122233Y0290184D01*
X0122233Y0289385D02*
X0134233Y0289385D01*
X0134233Y0288587D02*
X0122233Y0288587D01*
X0122233Y0287788D02*
X0134233Y0287788D01*
X0134233Y0286990D02*
X0122233Y0286990D01*
X0122233Y0286191D02*
X0134233Y0286191D01*
X0134233Y0285393D02*
X0122233Y0285393D01*
X0122233Y0284594D02*
X0134233Y0284594D01*
X0134233Y0283796D02*
X0122233Y0283796D01*
X0122187Y0296572D02*
X0134304Y0296572D01*
X0134363Y0297370D02*
X0122103Y0297370D01*
X0121955Y0298169D02*
X0134473Y0298169D01*
X0134648Y0298967D02*
X0121786Y0298967D01*
X0121530Y0299766D02*
X0134885Y0299766D01*
X0135176Y0300564D02*
X0121249Y0300564D01*
X0120894Y0301363D02*
X0135541Y0301363D01*
X0135995Y0302161D02*
X0120480Y0302161D01*
X0120735Y0301719D02*
X0120735Y0301719D01*
X0120019Y0302960D02*
X0136418Y0302960D01*
X0136647Y0303758D02*
X0119442Y0303758D01*
X0119150Y0304160D02*
X0119150Y0304160D01*
X0118793Y0304557D02*
X0135848Y0304557D01*
X0135050Y0305355D02*
X0118050Y0305355D01*
X0118176Y0305242D02*
X0118176Y0305242D01*
X0117163Y0306154D02*
X0134333Y0306154D01*
X0134333Y0306952D02*
X0116081Y0306952D01*
X0115914Y0307074D02*
X0115914Y0307074D01*
X0114741Y0307751D02*
X0134333Y0307751D01*
X0134333Y0308549D02*
X0112845Y0308549D01*
X0113321Y0308395D02*
X0113321Y0308395D01*
X0114652Y0307802D02*
X0114652Y0307802D01*
X0110511Y0309148D02*
X0110511Y0309148D01*
X0120007Y0302981D02*
X0120007Y0302981D01*
X0108733Y0294975D02*
X0107933Y0294975D01*
X0107933Y0294176D02*
X0108733Y0294176D01*
X0108733Y0293378D02*
X0107933Y0293378D01*
X0107933Y0292579D02*
X0108733Y0292579D01*
X0108733Y0291781D02*
X0107933Y0291781D01*
X0107933Y0290982D02*
X0108733Y0290982D01*
X0108733Y0290184D02*
X0107933Y0290184D01*
X0107933Y0289385D02*
X0108733Y0289385D01*
X0108733Y0288587D02*
X0107933Y0288587D01*
X0107933Y0287788D02*
X0108733Y0287788D01*
X0108733Y0286990D02*
X0107933Y0286990D01*
X0107933Y0286191D02*
X0108733Y0286191D01*
X0108733Y0285393D02*
X0107933Y0285393D01*
X0107933Y0284594D02*
X0108733Y0284594D01*
X0108733Y0283796D02*
X0107933Y0283796D01*
X0095333Y0309348D02*
X0134333Y0309348D01*
X0134333Y0310146D02*
X0095333Y0310146D01*
X0095333Y0310945D02*
X0134333Y0310945D01*
X0134333Y0311743D02*
X0095333Y0311743D01*
X0095333Y0312542D02*
X0134333Y0312542D01*
X0134333Y0313340D02*
X0095333Y0313340D01*
X0095333Y0314139D02*
X0134333Y0314139D01*
X0134333Y0314937D02*
X0095333Y0314937D01*
X0095333Y0315736D02*
X0134333Y0315736D01*
X0134333Y0316534D02*
X0095333Y0316534D01*
X0095333Y0317333D02*
X0134333Y0317333D01*
X0134333Y0318132D02*
X0095333Y0318132D01*
X0095333Y0318930D02*
X0134333Y0318930D01*
X0134333Y0319729D02*
X0095333Y0319729D01*
X0095333Y0320527D02*
X0134333Y0320527D01*
X0134333Y0321326D02*
X0095333Y0321326D01*
X0095333Y0322124D02*
X0101627Y0322124D01*
X0099433Y0322923D02*
X0095333Y0322923D01*
X0095333Y0323721D02*
X0098016Y0323721D01*
X0097065Y0324520D02*
X0095333Y0324520D01*
X0095333Y0325318D02*
X0096113Y0325318D01*
X0096099Y0325330D02*
X0096099Y0325330D01*
X0095645Y0326117D02*
X0095333Y0326117D01*
X0105039Y0322124D02*
X0134333Y0322124D01*
X0134333Y0322923D02*
X0107233Y0322923D01*
X0108055Y0323222D02*
X0108055Y0323222D01*
X0108650Y0323721D02*
X0134333Y0323721D01*
X0134333Y0324520D02*
X0109602Y0324520D01*
X0110553Y0325318D02*
X0134333Y0325318D01*
X0134333Y0326117D02*
X0111022Y0326117D01*
X0110567Y0325330D02*
X0110567Y0325330D01*
X0110567Y0325330D01*
X0111483Y0326915D02*
X0134333Y0326915D01*
X0134333Y0327714D02*
X0111944Y0327714D01*
X0112268Y0328512D02*
X0134333Y0328512D01*
X0134333Y0329311D02*
X0112408Y0329311D01*
X0112549Y0330109D02*
X0134333Y0330109D01*
X0134333Y0330908D02*
X0112690Y0330908D01*
X0112777Y0331400D02*
X0112777Y0331400D01*
X0112723Y0331706D02*
X0134333Y0331706D01*
X0134333Y0332505D02*
X0112582Y0332505D01*
X0112441Y0333303D02*
X0134333Y0333303D01*
X0134333Y0334102D02*
X0112300Y0334102D01*
X0112207Y0334630D02*
X0112207Y0334630D01*
X0112051Y0334900D02*
X0134333Y0334900D01*
X0134333Y0335699D02*
X0111590Y0335699D01*
X0111129Y0336497D02*
X0134333Y0336497D01*
X0134333Y0337296D02*
X0110668Y0337296D01*
X0110567Y0337470D02*
X0110567Y0337470D01*
X0109824Y0338094D02*
X0134333Y0338094D01*
X0134333Y0338893D02*
X0108872Y0338893D01*
X0108055Y0339578D02*
X0108055Y0339578D01*
X0107744Y0339691D02*
X0134333Y0339691D01*
X0134333Y0340490D02*
X0105551Y0340490D01*
X0101116Y0340490D02*
X0095333Y0340490D01*
X0095333Y0341288D02*
X0134333Y0341288D01*
X0134333Y0342087D02*
X0095333Y0342087D01*
X0095333Y0342885D02*
X0134333Y0342885D01*
X0134333Y0343684D02*
X0095333Y0343684D01*
X0095333Y0344482D02*
X0134333Y0344482D01*
X0134333Y0345281D02*
X0095333Y0345281D01*
X0095333Y0346079D02*
X0134333Y0346079D01*
X0134333Y0346878D02*
X0095333Y0346878D01*
X0095333Y0347676D02*
X0134333Y0347676D01*
X0135080Y0348475D02*
X0095333Y0348475D01*
X0095333Y0349273D02*
X0135878Y0349273D01*
X0136677Y0350072D02*
X0095333Y0350072D01*
X0095333Y0350870D02*
X0137475Y0350870D01*
X0138274Y0351669D02*
X0095333Y0351669D01*
X0095333Y0352468D02*
X0139072Y0352468D01*
X0139871Y0353266D02*
X0095333Y0353266D01*
X0095333Y0354065D02*
X0104394Y0354065D01*
X0103345Y0354405D02*
X0103345Y0354405D01*
X0102317Y0354863D02*
X0095333Y0354863D01*
X0095333Y0355662D02*
X0100865Y0355662D01*
X0099743Y0356460D02*
X0095333Y0356460D01*
X0095333Y0357259D02*
X0098823Y0357259D01*
X0098491Y0357558D02*
X0098491Y0357558D01*
X0098041Y0358057D02*
X0095333Y0358057D01*
X0095333Y0358856D02*
X0097360Y0358856D01*
X0097516Y0358640D02*
X0097516Y0358640D01*
X0096780Y0359654D02*
X0095333Y0359654D01*
X0095333Y0360453D02*
X0096294Y0360453D01*
X0096660Y0359819D02*
X0096660Y0359819D01*
X0095856Y0361251D02*
X0095333Y0361251D01*
X0095333Y0362050D02*
X0095500Y0362050D01*
X0095333Y0367639D02*
X0107933Y0367639D01*
X0107933Y0366841D02*
X0108733Y0366841D01*
X0108733Y0367639D02*
X0134211Y0367639D01*
X0134233Y0366841D02*
X0122233Y0366841D01*
X0122167Y0366042D02*
X0134230Y0366042D01*
X0134382Y0365244D02*
X0122083Y0365244D01*
X0122081Y0365223D02*
X0122081Y0365223D01*
X0121916Y0364445D02*
X0134578Y0364445D01*
X0134717Y0363647D02*
X0121729Y0363647D01*
X0121470Y0362848D02*
X0134925Y0362848D01*
X0135225Y0362050D02*
X0121167Y0362050D01*
X0121328Y0362412D02*
X0121328Y0362412D01*
X0120811Y0361251D02*
X0135611Y0361251D01*
X0136051Y0360453D02*
X0120373Y0360453D01*
X0120735Y0361081D02*
X0120735Y0361081D01*
X0119887Y0359654D02*
X0136533Y0359654D01*
X0137155Y0358856D02*
X0119307Y0358856D01*
X0118625Y0358057D02*
X0137752Y0358057D01*
X0138508Y0357259D02*
X0117843Y0357259D01*
X0118176Y0357558D02*
X0118176Y0357558D01*
X0116924Y0356460D02*
X0139376Y0356460D01*
X0140473Y0355662D02*
X0115802Y0355662D01*
X0114349Y0354863D02*
X0141468Y0354863D01*
X0140669Y0354065D02*
X0112272Y0354065D01*
X0108733Y0354065D02*
X0107933Y0354065D01*
X0107933Y0354863D02*
X0108733Y0354863D01*
X0108733Y0355662D02*
X0107933Y0355662D01*
X0107933Y0356460D02*
X0108733Y0356460D01*
X0108733Y0357259D02*
X0107933Y0357259D01*
X0107933Y0358057D02*
X0108733Y0358057D01*
X0108733Y0358856D02*
X0107933Y0358856D01*
X0107933Y0359654D02*
X0108733Y0359654D01*
X0108733Y0360453D02*
X0107933Y0360453D01*
X0107933Y0361251D02*
X0108733Y0361251D01*
X0108733Y0362050D02*
X0107933Y0362050D01*
X0107933Y0362848D02*
X0108733Y0362848D01*
X0108733Y0363647D02*
X0107933Y0363647D01*
X0107933Y0364445D02*
X0108733Y0364445D01*
X0108733Y0365244D02*
X0107933Y0365244D01*
X0107933Y0366042D02*
X0108733Y0366042D01*
X0108733Y0368438D02*
X0107933Y0368438D01*
X0107933Y0369236D02*
X0108733Y0369236D01*
X0108733Y0370035D02*
X0107933Y0370035D01*
X0107933Y0370833D02*
X0108733Y0370833D01*
X0108733Y0371632D02*
X0107933Y0371632D01*
X0107933Y0372430D02*
X0108733Y0372430D01*
X0108733Y0373229D02*
X0107933Y0373229D01*
X0107933Y0374027D02*
X0108733Y0374027D01*
X0108733Y0374826D02*
X0107933Y0374826D01*
X0107933Y0375624D02*
X0108733Y0375624D01*
X0108733Y0376423D02*
X0107933Y0376423D01*
X0107933Y0377221D02*
X0108733Y0377221D01*
X0108733Y0378020D02*
X0107933Y0378020D01*
X0107933Y0378818D02*
X0108733Y0378818D01*
X0122233Y0378818D02*
X0134233Y0378818D01*
X0134233Y0378020D02*
X0122233Y0378020D01*
X0122233Y0377221D02*
X0134233Y0377221D01*
X0134233Y0376423D02*
X0122233Y0376423D01*
X0122233Y0375624D02*
X0134233Y0375624D01*
X0134233Y0374826D02*
X0122233Y0374826D01*
X0122233Y0374027D02*
X0134233Y0374027D01*
X0134233Y0373229D02*
X0122233Y0373229D01*
X0122233Y0372430D02*
X0134233Y0372430D01*
X0134233Y0371632D02*
X0122233Y0371632D01*
X0122233Y0370833D02*
X0134233Y0370833D01*
X0134233Y0370035D02*
X0122233Y0370035D01*
X0122233Y0369236D02*
X0134233Y0369236D01*
X0134233Y0368438D02*
X0122233Y0368438D01*
X0141535Y0349273D02*
X0241333Y0349273D01*
X0241333Y0348475D02*
X0140737Y0348475D01*
X0139938Y0347676D02*
X0241333Y0347676D01*
X0241333Y0346878D02*
X0139140Y0346878D01*
X0138341Y0346079D02*
X0241333Y0346079D01*
X0241333Y0345281D02*
X0138333Y0345281D01*
X0138333Y0346072D02*
X0145742Y0353480D01*
X0146326Y0353438D01*
X0147029Y0353285D01*
X0147173Y0353378D01*
X0147486Y0353355D01*
X0147616Y0353243D01*
X0148333Y0353295D01*
X0149051Y0353243D01*
X0149180Y0353355D01*
X0149494Y0353378D01*
X0149638Y0353285D01*
X0150341Y0353438D01*
X0151059Y0353490D01*
X0151170Y0353619D01*
X0151478Y0353686D01*
X0151633Y0353615D01*
X0152307Y0353866D01*
X0153010Y0354019D01*
X0153103Y0354163D01*
X0153397Y0354273D01*
X0153561Y0354224D01*
X0154193Y0354569D01*
X0154867Y0354821D01*
X0154938Y0354976D01*
X0155214Y0355127D01*
X0155383Y0355103D01*
X0155959Y0355534D01*
X0156591Y0355879D01*
X0156639Y0356043D01*
X0156891Y0356231D01*
X0157062Y0356231D01*
X0157570Y0356740D01*
X0158146Y0357171D01*
X0158171Y0357340D01*
X0158393Y0357563D01*
X0158562Y0357587D01*
X0158993Y0358163D01*
X0159502Y0358672D01*
X0159502Y0358843D01*
X0159691Y0359094D01*
X0159855Y0359142D01*
X0160200Y0359774D01*
X0160631Y0360350D01*
X0160606Y0360519D01*
X0160757Y0360795D01*
X0160913Y0360866D01*
X0161164Y0361540D01*
X0161509Y0362172D01*
X0161461Y0362336D01*
X0161571Y0362630D01*
X0161714Y0362723D01*
X0161867Y0363426D01*
X0162119Y0364100D01*
X0162048Y0364256D01*
X0162115Y0364563D01*
X0162244Y0364675D01*
X0162295Y0365393D01*
X0162448Y0366096D01*
X0162356Y0366240D01*
X0162372Y0366469D01*
X0162433Y0366530D01*
X0162433Y0367325D01*
X0162490Y0368118D01*
X0162433Y0368183D01*
X0162433Y0379400D01*
X0174233Y0379400D01*
X0174233Y0368183D01*
X0174177Y0368118D01*
X0174233Y0367325D01*
X0174233Y0366530D01*
X0174295Y0366469D01*
X0174311Y0366240D01*
X0174219Y0366096D01*
X0174372Y0365393D01*
X0174423Y0364675D01*
X0174552Y0364563D01*
X0174619Y0364256D01*
X0174548Y0364100D01*
X0174799Y0363426D01*
X0174952Y0362723D01*
X0175096Y0362630D01*
X0175206Y0362336D01*
X0175158Y0362172D01*
X0175503Y0361540D01*
X0175754Y0360866D01*
X0175910Y0360795D01*
X0176060Y0360519D01*
X0176036Y0360350D01*
X0176467Y0359774D01*
X0176812Y0359142D01*
X0176976Y0359094D01*
X0177164Y0358843D01*
X0177164Y0358672D01*
X0177673Y0358163D01*
X0178104Y0357587D01*
X0178274Y0357563D01*
X0178496Y0357340D01*
X0178520Y0357171D01*
X0179096Y0356740D01*
X0179605Y0356231D01*
X0179776Y0356231D01*
X0180028Y0356043D01*
X0180076Y0355879D01*
X0180707Y0355534D01*
X0181284Y0355103D01*
X0181453Y0355127D01*
X0181728Y0354976D01*
X0181799Y0354821D01*
X0182474Y0354569D01*
X0183105Y0354224D01*
X0183269Y0354273D01*
X0183564Y0354163D01*
X0183656Y0354019D01*
X0184359Y0353866D01*
X0185034Y0353615D01*
X0185189Y0353686D01*
X0185496Y0353619D01*
X0185608Y0353490D01*
X0186326Y0353438D01*
X0187029Y0353285D01*
X0187173Y0353378D01*
X0187486Y0353355D01*
X0187616Y0353243D01*
X0188333Y0353295D01*
X0189051Y0353243D01*
X0189180Y0353355D01*
X0189494Y0353378D01*
X0189638Y0353285D01*
X0190341Y0353438D01*
X0191059Y0353490D01*
X0191170Y0353619D01*
X0191478Y0353686D01*
X0191633Y0353615D01*
X0192307Y0353866D01*
X0193010Y0354019D01*
X0193103Y0354163D01*
X0193397Y0354273D01*
X0193561Y0354224D01*
X0194193Y0354569D01*
X0194867Y0354821D01*
X0194938Y0354976D01*
X0195214Y0355127D01*
X0195383Y0355103D01*
X0195959Y0355534D01*
X0196591Y0355879D01*
X0196639Y0356043D01*
X0196891Y0356231D01*
X0197062Y0356231D01*
X0197570Y0356740D01*
X0198146Y0357171D01*
X0198171Y0357340D01*
X0198393Y0357563D01*
X0198562Y0357587D01*
X0198993Y0358163D01*
X0199502Y0358672D01*
X0199502Y0358843D01*
X0199691Y0359094D01*
X0199855Y0359142D01*
X0200200Y0359774D01*
X0200631Y0360350D01*
X0200606Y0360519D01*
X0200757Y0360795D01*
X0200913Y0360866D01*
X0201164Y0361540D01*
X0201509Y0362172D01*
X0201461Y0362336D01*
X0201571Y0362630D01*
X0201714Y0362723D01*
X0201867Y0363426D01*
X0202119Y0364100D01*
X0202048Y0364256D01*
X0202115Y0364563D01*
X0202244Y0364675D01*
X0202295Y0365393D01*
X0202448Y0366096D01*
X0202356Y0366240D01*
X0202372Y0366469D01*
X0202433Y0366530D01*
X0202433Y0367325D01*
X0202490Y0368118D01*
X0202433Y0368183D01*
X0202433Y0379400D01*
X0214233Y0379400D01*
X0214233Y0368183D01*
X0214177Y0368118D01*
X0214233Y0367325D01*
X0214233Y0366530D01*
X0214295Y0366469D01*
X0214311Y0366240D01*
X0214219Y0366096D01*
X0214372Y0365393D01*
X0214423Y0364675D01*
X0214552Y0364563D01*
X0214619Y0364256D01*
X0214548Y0364100D01*
X0214799Y0363426D01*
X0214952Y0362723D01*
X0215096Y0362630D01*
X0215206Y0362336D01*
X0215158Y0362172D01*
X0215503Y0361540D01*
X0215754Y0360866D01*
X0215910Y0360795D01*
X0216060Y0360519D01*
X0216036Y0360350D01*
X0216467Y0359774D01*
X0216812Y0359142D01*
X0216976Y0359094D01*
X0217164Y0358843D01*
X0217164Y0358672D01*
X0217673Y0358163D01*
X0218104Y0357587D01*
X0218274Y0357563D01*
X0218496Y0357340D01*
X0218520Y0357171D01*
X0219096Y0356740D01*
X0219605Y0356231D01*
X0219776Y0356231D01*
X0220028Y0356043D01*
X0220076Y0355879D01*
X0220707Y0355534D01*
X0221284Y0355103D01*
X0221453Y0355127D01*
X0221728Y0354976D01*
X0221799Y0354821D01*
X0222474Y0354569D01*
X0223105Y0354224D01*
X0223269Y0354273D01*
X0223564Y0354163D01*
X0223656Y0354019D01*
X0224359Y0353866D01*
X0225034Y0353615D01*
X0225189Y0353686D01*
X0225496Y0353619D01*
X0225608Y0353490D01*
X0226326Y0353438D01*
X0227029Y0353285D01*
X0227173Y0353378D01*
X0227486Y0353355D01*
X0227616Y0353243D01*
X0228333Y0353295D01*
X0229051Y0353243D01*
X0229180Y0353355D01*
X0229494Y0353378D01*
X0229638Y0353285D01*
X0230341Y0353438D01*
X0231059Y0353490D01*
X0231170Y0353619D01*
X0231478Y0353686D01*
X0231633Y0353615D01*
X0232307Y0353866D01*
X0233010Y0354019D01*
X0233103Y0354163D01*
X0233397Y0354273D01*
X0233561Y0354224D01*
X0234193Y0354569D01*
X0234867Y0354821D01*
X0234938Y0354976D01*
X0235214Y0355127D01*
X0235383Y0355103D01*
X0235959Y0355534D01*
X0236591Y0355879D01*
X0236639Y0356043D01*
X0236891Y0356231D01*
X0237062Y0356231D01*
X0237570Y0356740D01*
X0238033Y0357086D01*
X0237983Y0356967D01*
X0237983Y0355833D01*
X0238417Y0354786D01*
X0239219Y0353984D01*
X0240266Y0353550D01*
X0241333Y0353550D01*
X0241333Y0336144D01*
X0240567Y0337470D01*
X0238055Y0339578D01*
X0234973Y0340700D01*
X0231693Y0340700D01*
X0228612Y0339578D01*
X0228612Y0339578D01*
X0226099Y0337470D01*
X0224459Y0334630D01*
X0223890Y0331400D01*
X0224459Y0328170D01*
X0226099Y0325330D01*
X0228612Y0323222D01*
X0231693Y0322100D01*
X0234973Y0322100D01*
X0238055Y0323222D01*
X0240567Y0325330D01*
X0241333Y0326656D01*
X0241333Y0300949D01*
X0241164Y0301260D01*
X0240913Y0301934D01*
X0240757Y0302005D01*
X0240606Y0302281D01*
X0240631Y0302450D01*
X0240200Y0303026D01*
X0239855Y0303658D01*
X0239691Y0303706D01*
X0239502Y0303957D01*
X0239502Y0304128D01*
X0238993Y0304637D01*
X0238562Y0305213D01*
X0238393Y0305237D01*
X0238171Y0305460D01*
X0238146Y0305629D01*
X0237570Y0306060D01*
X0237062Y0306569D01*
X0236891Y0306569D01*
X0236639Y0306757D01*
X0236591Y0306921D01*
X0235959Y0307266D01*
X0235383Y0307697D01*
X0235214Y0307673D01*
X0234938Y0307824D01*
X0234867Y0307979D01*
X0234193Y0308231D01*
X0233561Y0308576D01*
X0233397Y0308527D01*
X0233103Y0308637D01*
X0233010Y0308781D01*
X0232307Y0308934D01*
X0231633Y0309185D01*
X0231478Y0309114D01*
X0231170Y0309181D01*
X0231059Y0309310D01*
X0230341Y0309362D01*
X0229638Y0309515D01*
X0229494Y0309422D01*
X0229180Y0309445D01*
X0229051Y0309557D01*
X0228333Y0309505D01*
X0227616Y0309557D01*
X0227486Y0309445D01*
X0227173Y0309422D01*
X0227029Y0309515D01*
X0226326Y0309362D01*
X0225608Y0309310D01*
X0225496Y0309181D01*
X0225189Y0309114D01*
X0225034Y0309185D01*
X0224359Y0308934D01*
X0223656Y0308781D01*
X0223564Y0308637D01*
X0223269Y0308527D01*
X0223105Y0308576D01*
X0222474Y0308231D01*
X0221799Y0307979D01*
X0221728Y0307824D01*
X0221453Y0307673D01*
X0221284Y0307697D01*
X0220707Y0307266D01*
X0220076Y0306921D01*
X0220028Y0306757D01*
X0219776Y0306569D01*
X0219605Y0306569D01*
X0219096Y0306060D01*
X0218520Y0305629D01*
X0218496Y0305460D01*
X0218274Y0305237D01*
X0218104Y0305213D01*
X0217673Y0304637D01*
X0217164Y0304128D01*
X0217164Y0303957D01*
X0216976Y0303706D01*
X0216812Y0303658D01*
X0216467Y0303026D01*
X0216036Y0302450D01*
X0216060Y0302281D01*
X0215910Y0302005D01*
X0215754Y0301934D01*
X0215503Y0301260D01*
X0215158Y0300628D01*
X0215206Y0300464D01*
X0215096Y0300170D01*
X0214952Y0300077D01*
X0214799Y0299374D01*
X0214548Y0298700D01*
X0214619Y0298544D01*
X0214552Y0298237D01*
X0214423Y0298125D01*
X0214372Y0297407D01*
X0214219Y0296704D01*
X0214311Y0296560D01*
X0214295Y0296331D01*
X0214233Y0296270D01*
X0214233Y0295475D01*
X0214177Y0294682D01*
X0214233Y0294617D01*
X0214233Y0283400D01*
X0202433Y0283400D01*
X0202433Y0294617D01*
X0202490Y0294682D01*
X0202433Y0295475D01*
X0202433Y0296270D01*
X0202372Y0296331D01*
X0202356Y0296560D01*
X0202448Y0296704D01*
X0202295Y0297407D01*
X0202244Y0298125D01*
X0202115Y0298237D01*
X0202048Y0298544D01*
X0202119Y0298700D01*
X0201867Y0299374D01*
X0201714Y0300077D01*
X0201571Y0300170D01*
X0201461Y0300464D01*
X0201509Y0300628D01*
X0201164Y0301260D01*
X0200913Y0301934D01*
X0200757Y0302005D01*
X0200606Y0302281D01*
X0200631Y0302450D01*
X0200200Y0303026D01*
X0199855Y0303658D01*
X0199691Y0303706D01*
X0199502Y0303957D01*
X0199502Y0304128D01*
X0198993Y0304637D01*
X0198562Y0305213D01*
X0198393Y0305237D01*
X0198171Y0305460D01*
X0198146Y0305629D01*
X0197570Y0306060D01*
X0197062Y0306569D01*
X0196891Y0306569D01*
X0196639Y0306757D01*
X0196591Y0306921D01*
X0195959Y0307266D01*
X0195383Y0307697D01*
X0195214Y0307673D01*
X0194938Y0307824D01*
X0194867Y0307979D01*
X0194193Y0308231D01*
X0193561Y0308576D01*
X0193397Y0308527D01*
X0193103Y0308637D01*
X0193010Y0308781D01*
X0192307Y0308934D01*
X0191633Y0309185D01*
X0191478Y0309114D01*
X0191170Y0309181D01*
X0191059Y0309310D01*
X0190341Y0309362D01*
X0189638Y0309515D01*
X0189494Y0309422D01*
X0189180Y0309445D01*
X0189051Y0309557D01*
X0188333Y0309505D01*
X0187616Y0309557D01*
X0187486Y0309445D01*
X0187173Y0309422D01*
X0187029Y0309515D01*
X0186326Y0309362D01*
X0185608Y0309310D01*
X0185496Y0309181D01*
X0185189Y0309114D01*
X0185034Y0309185D01*
X0184359Y0308934D01*
X0183656Y0308781D01*
X0183564Y0308637D01*
X0183269Y0308527D01*
X0183105Y0308576D01*
X0182474Y0308231D01*
X0181799Y0307979D01*
X0181728Y0307824D01*
X0181453Y0307673D01*
X0181284Y0307697D01*
X0180707Y0307266D01*
X0180076Y0306921D01*
X0180028Y0306757D01*
X0179776Y0306569D01*
X0179605Y0306569D01*
X0179096Y0306060D01*
X0178520Y0305629D01*
X0178496Y0305460D01*
X0178274Y0305237D01*
X0178104Y0305213D01*
X0177673Y0304637D01*
X0177164Y0304128D01*
X0177164Y0303957D01*
X0176976Y0303706D01*
X0176812Y0303658D01*
X0176467Y0303026D01*
X0176036Y0302450D01*
X0176060Y0302281D01*
X0175910Y0302005D01*
X0175754Y0301934D01*
X0175503Y0301260D01*
X0175158Y0300628D01*
X0175206Y0300464D01*
X0175096Y0300170D01*
X0174952Y0300077D01*
X0174799Y0299374D01*
X0174548Y0298700D01*
X0174619Y0298544D01*
X0174552Y0298237D01*
X0174423Y0298125D01*
X0174372Y0297407D01*
X0174219Y0296704D01*
X0174311Y0296560D01*
X0174295Y0296331D01*
X0174233Y0296270D01*
X0174233Y0295475D01*
X0174177Y0294682D01*
X0174233Y0294617D01*
X0174233Y0289249D01*
X0172999Y0288838D01*
X0171503Y0289336D01*
X0171234Y0289202D01*
X0171162Y0289273D01*
X0169932Y0290503D01*
X0166858Y0290503D01*
X0166191Y0289836D01*
X0165759Y0289405D01*
X0164661Y0290503D01*
X0162921Y0290503D01*
X0162433Y0290016D01*
X0162433Y0294617D01*
X0162490Y0294682D01*
X0162433Y0295475D01*
X0162433Y0296270D01*
X0162372Y0296331D01*
X0162356Y0296560D01*
X0162448Y0296704D01*
X0162295Y0297407D01*
X0162244Y0298125D01*
X0162115Y0298237D01*
X0162048Y0298544D01*
X0162119Y0298700D01*
X0161867Y0299374D01*
X0161714Y0300077D01*
X0161571Y0300170D01*
X0161461Y0300464D01*
X0161509Y0300628D01*
X0161164Y0301260D01*
X0160913Y0301934D01*
X0160757Y0302005D01*
X0160606Y0302281D01*
X0160631Y0302450D01*
X0160200Y0303026D01*
X0159855Y0303658D01*
X0159691Y0303706D01*
X0159502Y0303957D01*
X0159502Y0304128D01*
X0158993Y0304637D01*
X0158562Y0305213D01*
X0158393Y0305237D01*
X0158171Y0305460D01*
X0158146Y0305629D01*
X0157570Y0306060D01*
X0157062Y0306569D01*
X0156891Y0306569D01*
X0156639Y0306757D01*
X0156591Y0306921D01*
X0155959Y0307266D01*
X0155383Y0307697D01*
X0155214Y0307673D01*
X0154938Y0307824D01*
X0154867Y0307979D01*
X0154193Y0308231D01*
X0153561Y0308576D01*
X0153397Y0308527D01*
X0153103Y0308637D01*
X0153010Y0308781D01*
X0152307Y0308934D01*
X0151633Y0309185D01*
X0151478Y0309114D01*
X0151170Y0309181D01*
X0151059Y0309310D01*
X0150341Y0309362D01*
X0149638Y0309515D01*
X0149494Y0309422D01*
X0149180Y0309445D01*
X0149051Y0309557D01*
X0148333Y0309505D01*
X0147616Y0309557D01*
X0147486Y0309445D01*
X0147173Y0309422D01*
X0147029Y0309515D01*
X0146326Y0309362D01*
X0145608Y0309310D01*
X0145496Y0309181D01*
X0145189Y0309114D01*
X0145034Y0309185D01*
X0144359Y0308934D01*
X0143656Y0308781D01*
X0143564Y0308637D01*
X0143269Y0308527D01*
X0143105Y0308576D01*
X0142474Y0308231D01*
X0141799Y0307979D01*
X0141728Y0307824D01*
X0141453Y0307673D01*
X0141284Y0307697D01*
X0140707Y0307266D01*
X0140076Y0306921D01*
X0140028Y0306757D01*
X0139776Y0306569D01*
X0139605Y0306569D01*
X0139549Y0306513D01*
X0138333Y0307728D01*
X0138333Y0346072D01*
X0138333Y0344482D02*
X0241333Y0344482D01*
X0241333Y0343684D02*
X0138333Y0343684D01*
X0138333Y0342885D02*
X0155495Y0342885D01*
X0155719Y0342978D02*
X0154598Y0342514D01*
X0153740Y0341656D01*
X0153276Y0340535D01*
X0153276Y0339322D01*
X0153740Y0338201D01*
X0154598Y0337343D01*
X0155719Y0336878D01*
X0155833Y0336878D01*
X0155833Y0330213D01*
X0155248Y0329628D01*
X0154783Y0328507D01*
X0154783Y0327678D01*
X0150505Y0323400D01*
X0148902Y0323400D01*
X0148885Y0323439D01*
X0147873Y0324452D01*
X0146549Y0325000D01*
X0145117Y0325000D01*
X0143794Y0324452D01*
X0142781Y0323439D01*
X0142233Y0322116D01*
X0142233Y0320684D01*
X0142781Y0319361D01*
X0143794Y0318348D01*
X0145117Y0317800D01*
X0146549Y0317800D01*
X0147873Y0318348D01*
X0148885Y0319361D01*
X0148902Y0319400D01*
X0152162Y0319400D01*
X0153333Y0320572D01*
X0157612Y0324850D01*
X0158440Y0324850D01*
X0159561Y0325314D01*
X0160419Y0326172D01*
X0160883Y0327293D01*
X0160883Y0328507D01*
X0160419Y0329628D01*
X0159833Y0330213D01*
X0159833Y0339249D01*
X0159376Y0339707D01*
X0159376Y0340535D01*
X0158912Y0341656D01*
X0158054Y0342514D01*
X0156933Y0342978D01*
X0155719Y0342978D01*
X0157157Y0342885D02*
X0241333Y0342885D01*
X0241333Y0342087D02*
X0158481Y0342087D01*
X0159064Y0341288D02*
X0241333Y0341288D01*
X0241333Y0340490D02*
X0235551Y0340490D01*
X0237744Y0339691D02*
X0241333Y0339691D01*
X0241333Y0338893D02*
X0238872Y0338893D01*
X0238055Y0339578D02*
X0238055Y0339578D01*
X0239824Y0338094D02*
X0241333Y0338094D01*
X0241333Y0337296D02*
X0240668Y0337296D01*
X0240567Y0337470D02*
X0240567Y0337470D01*
X0241129Y0336497D02*
X0241333Y0336497D01*
X0231116Y0340490D02*
X0159376Y0340490D01*
X0159391Y0339691D02*
X0228922Y0339691D01*
X0227795Y0338893D02*
X0159833Y0338893D01*
X0159833Y0338094D02*
X0226843Y0338094D01*
X0226099Y0337470D02*
X0226099Y0337470D01*
X0226099Y0337470D01*
X0225999Y0337296D02*
X0169312Y0337296D01*
X0168940Y0337450D02*
X0167727Y0337450D01*
X0166606Y0336986D01*
X0165748Y0336128D01*
X0165283Y0335007D01*
X0165283Y0333793D01*
X0165748Y0332672D01*
X0166606Y0331814D01*
X0167727Y0331350D01*
X0168940Y0331350D01*
X0170061Y0331814D01*
X0170647Y0332400D01*
X0194505Y0332400D01*
X0195283Y0331622D01*
X0195283Y0330793D01*
X0195748Y0329672D01*
X0196606Y0328814D01*
X0197727Y0328350D01*
X0198940Y0328350D01*
X0200061Y0328814D01*
X0200919Y0329672D01*
X0201383Y0330793D01*
X0201383Y0332007D01*
X0200919Y0333128D01*
X0200061Y0333986D01*
X0198940Y0334450D01*
X0198112Y0334450D01*
X0197333Y0335228D01*
X0196162Y0336400D01*
X0170647Y0336400D01*
X0170061Y0336986D01*
X0168940Y0337450D01*
X0167354Y0337296D02*
X0159833Y0337296D01*
X0159833Y0336497D02*
X0166117Y0336497D01*
X0165570Y0335699D02*
X0159833Y0335699D01*
X0159833Y0334900D02*
X0165283Y0334900D01*
X0165283Y0334102D02*
X0159833Y0334102D01*
X0159833Y0333303D02*
X0165486Y0333303D01*
X0165915Y0332505D02*
X0159833Y0332505D01*
X0159833Y0331706D02*
X0166867Y0331706D01*
X0169800Y0331706D02*
X0195199Y0331706D01*
X0195283Y0330908D02*
X0159833Y0330908D01*
X0159937Y0330109D02*
X0195567Y0330109D01*
X0196109Y0329311D02*
X0160550Y0329311D01*
X0160881Y0328512D02*
X0197335Y0328512D01*
X0199332Y0328512D02*
X0224399Y0328512D01*
X0224459Y0328170D02*
X0224459Y0328170D01*
X0224723Y0327714D02*
X0160883Y0327714D01*
X0160727Y0326915D02*
X0225184Y0326915D01*
X0225645Y0326117D02*
X0160363Y0326117D01*
X0159565Y0325318D02*
X0226113Y0325318D01*
X0226099Y0325330D02*
X0226099Y0325330D01*
X0227065Y0324520D02*
X0157281Y0324520D01*
X0156483Y0323721D02*
X0228016Y0323721D01*
X0228612Y0323222D02*
X0228612Y0323222D01*
X0229433Y0322923D02*
X0155684Y0322923D01*
X0154886Y0322124D02*
X0231627Y0322124D01*
X0235039Y0322124D02*
X0241333Y0322124D01*
X0241333Y0321326D02*
X0154087Y0321326D01*
X0153289Y0320527D02*
X0241333Y0320527D01*
X0241333Y0319729D02*
X0152490Y0319729D01*
X0151333Y0321400D02*
X0145833Y0321400D01*
X0142233Y0321326D02*
X0138333Y0321326D01*
X0138333Y0322124D02*
X0142237Y0322124D01*
X0142567Y0322923D02*
X0138333Y0322923D01*
X0138333Y0323721D02*
X0143063Y0323721D01*
X0143958Y0324520D02*
X0138333Y0324520D01*
X0138333Y0325318D02*
X0152423Y0325318D01*
X0151625Y0324520D02*
X0147709Y0324520D01*
X0148603Y0323721D02*
X0150826Y0323721D01*
X0151333Y0321400D02*
X0157833Y0327900D01*
X0157833Y0338421D01*
X0156326Y0339928D01*
X0154171Y0342087D02*
X0138333Y0342087D01*
X0138333Y0341288D02*
X0153588Y0341288D01*
X0153276Y0340490D02*
X0138333Y0340490D01*
X0138333Y0339691D02*
X0153276Y0339691D01*
X0153454Y0338893D02*
X0138333Y0338893D01*
X0138333Y0338094D02*
X0153847Y0338094D01*
X0154711Y0337296D02*
X0138333Y0337296D01*
X0138333Y0336497D02*
X0155833Y0336497D01*
X0155833Y0335699D02*
X0138333Y0335699D01*
X0138333Y0334900D02*
X0155833Y0334900D01*
X0155833Y0334102D02*
X0138333Y0334102D01*
X0138333Y0333303D02*
X0155833Y0333303D01*
X0155833Y0332505D02*
X0138333Y0332505D01*
X0138333Y0331706D02*
X0155833Y0331706D01*
X0155833Y0330908D02*
X0138333Y0330908D01*
X0138333Y0330109D02*
X0155729Y0330109D01*
X0155116Y0329311D02*
X0138333Y0329311D01*
X0138333Y0328512D02*
X0154786Y0328512D01*
X0154783Y0327714D02*
X0138333Y0327714D01*
X0138333Y0326915D02*
X0154020Y0326915D01*
X0153222Y0326117D02*
X0138333Y0326117D01*
X0138333Y0320527D02*
X0142298Y0320527D01*
X0142629Y0319729D02*
X0138333Y0319729D01*
X0138333Y0318930D02*
X0143212Y0318930D01*
X0144317Y0318132D02*
X0138333Y0318132D01*
X0138333Y0317333D02*
X0241333Y0317333D01*
X0241333Y0316534D02*
X0138333Y0316534D01*
X0138333Y0315736D02*
X0241333Y0315736D01*
X0241333Y0314937D02*
X0138333Y0314937D01*
X0138333Y0314139D02*
X0241333Y0314139D01*
X0241333Y0313340D02*
X0138333Y0313340D01*
X0138333Y0312542D02*
X0241333Y0312542D01*
X0241333Y0311743D02*
X0138333Y0311743D01*
X0138333Y0310945D02*
X0241333Y0310945D01*
X0241333Y0310146D02*
X0138333Y0310146D01*
X0138333Y0309348D02*
X0146132Y0309348D01*
X0143328Y0308549D02*
X0143195Y0308549D01*
X0143057Y0308549D02*
X0138333Y0308549D01*
X0138333Y0307751D02*
X0141595Y0307751D01*
X0140133Y0306952D02*
X0139109Y0306952D01*
X0136333Y0306900D02*
X0147833Y0295400D01*
X0148333Y0295400D01*
X0158275Y0305355D02*
X0178391Y0305355D01*
X0177593Y0304557D02*
X0159074Y0304557D01*
X0159651Y0303758D02*
X0177015Y0303758D01*
X0176418Y0302960D02*
X0160249Y0302960D01*
X0160672Y0302161D02*
X0175995Y0302161D01*
X0175541Y0301363D02*
X0161126Y0301363D01*
X0161490Y0300564D02*
X0175176Y0300564D01*
X0174885Y0299766D02*
X0161782Y0299766D01*
X0162019Y0298967D02*
X0174648Y0298967D01*
X0174473Y0298169D02*
X0162194Y0298169D01*
X0162303Y0297370D02*
X0174363Y0297370D01*
X0174304Y0296572D02*
X0162363Y0296572D01*
X0162433Y0295773D02*
X0174233Y0295773D01*
X0174198Y0294975D02*
X0162469Y0294975D01*
X0162433Y0294176D02*
X0174233Y0294176D01*
X0174233Y0293378D02*
X0162433Y0293378D01*
X0162433Y0292579D02*
X0174233Y0292579D01*
X0174233Y0291781D02*
X0162433Y0291781D01*
X0162433Y0290982D02*
X0174233Y0290982D01*
X0174233Y0290184D02*
X0170252Y0290184D01*
X0171050Y0289385D02*
X0174233Y0289385D01*
X0166538Y0290184D02*
X0164981Y0290184D01*
X0166191Y0289836D02*
X0166191Y0289836D01*
X0162601Y0290184D02*
X0162433Y0290184D01*
X0157477Y0306154D02*
X0179190Y0306154D01*
X0180133Y0306952D02*
X0156534Y0306952D01*
X0155072Y0307751D02*
X0181595Y0307751D01*
X0183057Y0308549D02*
X0153609Y0308549D01*
X0153472Y0308549D02*
X0153338Y0308549D01*
X0150535Y0309348D02*
X0186132Y0309348D01*
X0183328Y0308549D02*
X0183195Y0308549D01*
X0190535Y0309348D02*
X0226132Y0309348D01*
X0223328Y0308549D02*
X0223195Y0308549D01*
X0223057Y0308549D02*
X0193609Y0308549D01*
X0193472Y0308549D02*
X0193338Y0308549D01*
X0195072Y0307751D02*
X0221595Y0307751D01*
X0220133Y0306952D02*
X0196534Y0306952D01*
X0197477Y0306154D02*
X0219190Y0306154D01*
X0218391Y0305355D02*
X0198275Y0305355D01*
X0199074Y0304557D02*
X0217593Y0304557D01*
X0217015Y0303758D02*
X0199651Y0303758D01*
X0200249Y0302960D02*
X0216418Y0302960D01*
X0215995Y0302161D02*
X0200672Y0302161D01*
X0201126Y0301363D02*
X0215541Y0301363D01*
X0215176Y0300564D02*
X0201490Y0300564D01*
X0201782Y0299766D02*
X0214885Y0299766D01*
X0214648Y0298967D02*
X0202019Y0298967D01*
X0202194Y0298169D02*
X0214473Y0298169D01*
X0214363Y0297370D02*
X0202303Y0297370D01*
X0202363Y0296572D02*
X0214304Y0296572D01*
X0214233Y0295773D02*
X0202433Y0295773D01*
X0202469Y0294975D02*
X0214198Y0294975D01*
X0214233Y0294176D02*
X0202433Y0294176D01*
X0202433Y0293378D02*
X0214233Y0293378D01*
X0214233Y0292579D02*
X0202433Y0292579D01*
X0202433Y0291781D02*
X0214233Y0291781D01*
X0214233Y0290982D02*
X0202433Y0290982D01*
X0202433Y0290184D02*
X0214233Y0290184D01*
X0214233Y0289385D02*
X0202433Y0289385D01*
X0202433Y0288587D02*
X0214233Y0288587D01*
X0214233Y0287788D02*
X0202433Y0287788D01*
X0202433Y0286990D02*
X0214233Y0286990D01*
X0214233Y0286191D02*
X0202433Y0286191D01*
X0202433Y0285393D02*
X0214233Y0285393D01*
X0214233Y0284594D02*
X0202433Y0284594D01*
X0202433Y0283796D02*
X0214233Y0283796D01*
X0237477Y0306154D02*
X0241333Y0306154D01*
X0241333Y0306952D02*
X0236534Y0306952D01*
X0235072Y0307751D02*
X0241333Y0307751D01*
X0241333Y0308549D02*
X0233609Y0308549D01*
X0233472Y0308549D02*
X0233338Y0308549D01*
X0230535Y0309348D02*
X0241333Y0309348D01*
X0241333Y0305355D02*
X0238275Y0305355D01*
X0239074Y0304557D02*
X0241333Y0304557D01*
X0241333Y0303758D02*
X0239651Y0303758D01*
X0240249Y0302960D02*
X0241333Y0302960D01*
X0241333Y0302161D02*
X0240672Y0302161D01*
X0241126Y0301363D02*
X0241333Y0301363D01*
X0241333Y0318132D02*
X0147350Y0318132D01*
X0148455Y0318930D02*
X0241333Y0318930D01*
X0241333Y0322923D02*
X0237233Y0322923D01*
X0238055Y0323222D02*
X0238055Y0323222D01*
X0238650Y0323721D02*
X0241333Y0323721D01*
X0241333Y0324520D02*
X0239602Y0324520D01*
X0240553Y0325318D02*
X0241333Y0325318D01*
X0240567Y0325330D02*
X0240567Y0325330D01*
X0240567Y0325330D01*
X0241022Y0326117D02*
X0241333Y0326117D01*
X0225538Y0336497D02*
X0170549Y0336497D01*
X0168333Y0334400D02*
X0195333Y0334400D01*
X0198333Y0331400D01*
X0201177Y0332505D02*
X0224085Y0332505D01*
X0224225Y0333303D02*
X0200743Y0333303D01*
X0199781Y0334102D02*
X0224366Y0334102D01*
X0224459Y0334630D02*
X0224459Y0334630D01*
X0224616Y0334900D02*
X0197661Y0334900D01*
X0196863Y0335699D02*
X0225077Y0335699D01*
X0223944Y0331706D02*
X0201383Y0331706D01*
X0201383Y0330908D02*
X0223977Y0330908D01*
X0223890Y0331400D02*
X0223890Y0331400D01*
X0224117Y0330109D02*
X0201100Y0330109D01*
X0200557Y0329311D02*
X0224258Y0329311D01*
X0241333Y0350072D02*
X0142334Y0350072D01*
X0143132Y0350870D02*
X0241333Y0350870D01*
X0241333Y0351669D02*
X0143931Y0351669D01*
X0144729Y0352468D02*
X0241333Y0352468D01*
X0241333Y0353266D02*
X0229077Y0353266D01*
X0228733Y0353266D02*
X0227933Y0353266D01*
X0227589Y0353266D02*
X0189077Y0353266D01*
X0188733Y0353266D02*
X0187933Y0353266D01*
X0187589Y0353266D02*
X0149077Y0353266D01*
X0148733Y0353266D02*
X0147933Y0353266D01*
X0147589Y0353266D02*
X0145528Y0353266D01*
X0148333Y0358900D02*
X0136333Y0346900D01*
X0136333Y0306900D01*
X0098922Y0339691D02*
X0095333Y0339691D01*
X0095333Y0338893D02*
X0097795Y0338893D01*
X0096843Y0338094D02*
X0095333Y0338094D01*
X0095333Y0337296D02*
X0095999Y0337296D01*
X0096099Y0337470D02*
X0096099Y0337470D01*
X0096099Y0337470D01*
X0095538Y0336497D02*
X0095333Y0336497D01*
X0099574Y0356583D02*
X0099574Y0356583D01*
X0148333Y0358900D02*
X0148333Y0367400D01*
X0159512Y0358856D02*
X0177155Y0358856D01*
X0177752Y0358057D02*
X0158914Y0358057D01*
X0158159Y0357259D02*
X0178508Y0357259D01*
X0179376Y0356460D02*
X0157291Y0356460D01*
X0156193Y0355662D02*
X0180473Y0355662D01*
X0181780Y0354863D02*
X0154886Y0354863D01*
X0153040Y0354065D02*
X0183627Y0354065D01*
X0176533Y0359654D02*
X0160134Y0359654D01*
X0160616Y0360453D02*
X0176051Y0360453D01*
X0175611Y0361251D02*
X0161056Y0361251D01*
X0161442Y0362050D02*
X0175225Y0362050D01*
X0174925Y0362848D02*
X0161742Y0362848D01*
X0161950Y0363647D02*
X0174717Y0363647D01*
X0174578Y0364445D02*
X0162089Y0364445D01*
X0162284Y0365244D02*
X0174382Y0365244D01*
X0174230Y0366042D02*
X0162436Y0366042D01*
X0162433Y0366841D02*
X0174233Y0366841D01*
X0174211Y0367639D02*
X0162456Y0367639D01*
X0162433Y0368438D02*
X0174233Y0368438D01*
X0174233Y0369236D02*
X0162433Y0369236D01*
X0162433Y0370035D02*
X0174233Y0370035D01*
X0174233Y0370833D02*
X0162433Y0370833D01*
X0162433Y0371632D02*
X0174233Y0371632D01*
X0174233Y0372430D02*
X0162433Y0372430D01*
X0162433Y0373229D02*
X0174233Y0373229D01*
X0174233Y0374027D02*
X0162433Y0374027D01*
X0162433Y0374826D02*
X0174233Y0374826D01*
X0174233Y0375624D02*
X0162433Y0375624D01*
X0162433Y0376423D02*
X0174233Y0376423D01*
X0174233Y0377221D02*
X0162433Y0377221D01*
X0162433Y0378020D02*
X0174233Y0378020D01*
X0174233Y0378818D02*
X0162433Y0378818D01*
X0193040Y0354065D02*
X0223627Y0354065D01*
X0221780Y0354863D02*
X0194886Y0354863D01*
X0196193Y0355662D02*
X0220473Y0355662D01*
X0219376Y0356460D02*
X0197291Y0356460D01*
X0198159Y0357259D02*
X0218508Y0357259D01*
X0217752Y0358057D02*
X0198914Y0358057D01*
X0199512Y0358856D02*
X0217155Y0358856D01*
X0216533Y0359654D02*
X0200134Y0359654D01*
X0200616Y0360453D02*
X0216051Y0360453D01*
X0215611Y0361251D02*
X0201056Y0361251D01*
X0201442Y0362050D02*
X0215225Y0362050D01*
X0214925Y0362848D02*
X0201742Y0362848D01*
X0201950Y0363647D02*
X0214717Y0363647D01*
X0214578Y0364445D02*
X0202089Y0364445D01*
X0202284Y0365244D02*
X0214382Y0365244D01*
X0214230Y0366042D02*
X0202436Y0366042D01*
X0202433Y0366841D02*
X0214233Y0366841D01*
X0214211Y0367639D02*
X0202456Y0367639D01*
X0202433Y0368438D02*
X0214233Y0368438D01*
X0214233Y0369236D02*
X0202433Y0369236D01*
X0202433Y0370035D02*
X0214233Y0370035D01*
X0214233Y0370833D02*
X0202433Y0370833D01*
X0202433Y0371632D02*
X0214233Y0371632D01*
X0214233Y0372430D02*
X0202433Y0372430D01*
X0202433Y0373229D02*
X0214233Y0373229D01*
X0214233Y0374027D02*
X0202433Y0374027D01*
X0202433Y0374826D02*
X0214233Y0374826D01*
X0214233Y0375624D02*
X0202433Y0375624D01*
X0202433Y0376423D02*
X0214233Y0376423D01*
X0214233Y0377221D02*
X0202433Y0377221D01*
X0202433Y0378020D02*
X0214233Y0378020D01*
X0214233Y0378818D02*
X0202433Y0378818D01*
X0233040Y0354065D02*
X0239138Y0354065D01*
X0238385Y0354863D02*
X0234886Y0354863D01*
X0236193Y0355662D02*
X0238054Y0355662D01*
X0237983Y0356460D02*
X0237291Y0356460D01*
D15*
X0198333Y0331400D03*
X0168333Y0329400D03*
X0168333Y0334400D03*
X0168333Y0339400D03*
X0156326Y0339928D03*
X0144833Y0340400D03*
X0130333Y0331400D03*
X0126833Y0322900D03*
X0145833Y0321400D03*
X0157833Y0327900D03*
X0208333Y0291400D03*
M02*
