G75*
%MOIN*%
%OFA0B0*%
%FSLAX25Y25*%
%IPPOS*%
%LPD*%
%AMOC8*
5,1,8,0,0,1.08239X$1,22.5*
%
%ADD10C,0.02500*%
%ADD11R,0.03937X0.04331*%
%ADD12R,0.03543X0.03150*%
%ADD13R,0.02953X0.01378*%
%ADD14R,0.04331X0.03937*%
%ADD15R,0.01575X0.02953*%
%ADD16C,0.20000*%
%ADD17C,0.01000*%
%ADD18R,0.03268X0.02480*%
%ADD19C,0.01181*%
%ADD20C,0.00800*%
%ADD21C,0.02900*%
D10*
X0095833Y0306400D03*
X0240833Y0356400D03*
D11*
X0203333Y0342246D03*
X0203333Y0335554D03*
X0203333Y0327246D03*
X0203333Y0320554D03*
X0180833Y0320554D03*
X0180833Y0327246D03*
X0180833Y0335554D03*
X0180833Y0342246D03*
X0153333Y0334746D03*
X0153333Y0328054D03*
X0145833Y0328054D03*
X0145833Y0334746D03*
X0125833Y0334746D03*
X0125833Y0328054D03*
X0128333Y0294746D03*
X0128333Y0288054D03*
X0168333Y0368054D03*
X0168333Y0374746D03*
D12*
X0186896Y0342640D03*
X0186896Y0335160D03*
X0186896Y0327640D03*
X0186896Y0320160D03*
X0195164Y0323900D03*
X0195164Y0338900D03*
X0127770Y0314140D03*
X0127770Y0306660D03*
X0119503Y0310400D03*
D13*
X0163609Y0321951D03*
X0163609Y0325101D03*
X0163609Y0328250D03*
X0163609Y0331400D03*
X0163609Y0334550D03*
X0163609Y0337699D03*
X0163609Y0340849D03*
X0173058Y0340849D03*
X0173058Y0337699D03*
X0173058Y0334550D03*
X0173058Y0331400D03*
X0173058Y0328250D03*
X0173058Y0325101D03*
X0173058Y0321951D03*
D14*
X0139180Y0321400D03*
X0132487Y0321400D03*
X0132487Y0341400D03*
X0139180Y0341400D03*
D15*
X0138392Y0334648D03*
X0135833Y0334648D03*
X0133274Y0334648D03*
X0133274Y0328152D03*
X0138392Y0328152D03*
D16*
X0148333Y0295400D03*
X0188333Y0295400D03*
X0228333Y0295400D03*
X0228333Y0367400D03*
X0188333Y0367400D03*
X0148333Y0367400D03*
X0108333Y0367400D03*
X0108333Y0295400D03*
D17*
X0096333Y0281400D02*
X0120333Y0281400D01*
X0120333Y0295400D01*
X0120211Y0297108D01*
X0119847Y0298781D01*
X0119249Y0300385D01*
X0118428Y0301888D01*
X0117402Y0303258D01*
X0116192Y0304469D01*
X0114821Y0305495D01*
X0113318Y0306316D01*
X0111714Y0306914D01*
X0110041Y0307278D01*
X0108333Y0307400D01*
X0106626Y0307278D01*
X0104953Y0306914D01*
X0103348Y0306316D01*
X0101846Y0305495D01*
X0100475Y0304469D01*
X0099264Y0303258D01*
X0098238Y0301888D01*
X0097418Y0300385D01*
X0096819Y0298781D01*
X0096455Y0297108D01*
X0096333Y0295400D01*
X0096333Y0281400D01*
X0120333Y0281400D01*
X0120333Y0282399D02*
X0096333Y0282399D01*
X0096333Y0283397D02*
X0120333Y0283397D01*
X0120333Y0284396D02*
X0096333Y0284396D01*
X0096333Y0285394D02*
X0120333Y0285394D01*
X0120333Y0286393D02*
X0096333Y0286393D01*
X0096333Y0287391D02*
X0120333Y0287391D01*
X0120333Y0288390D02*
X0096333Y0288390D01*
X0096333Y0289388D02*
X0120333Y0289388D01*
X0120333Y0290387D02*
X0096333Y0290387D01*
X0096333Y0291385D02*
X0120333Y0291385D01*
X0120333Y0292384D02*
X0096333Y0292384D01*
X0096333Y0293382D02*
X0120333Y0293382D01*
X0120333Y0294381D02*
X0096333Y0294381D01*
X0096333Y0295379D02*
X0120333Y0295379D01*
X0120263Y0296378D02*
X0096403Y0296378D01*
X0096514Y0297376D02*
X0120153Y0297376D01*
X0119936Y0298375D02*
X0096731Y0298375D01*
X0097040Y0299373D02*
X0119626Y0299373D01*
X0119254Y0300372D02*
X0097413Y0300372D01*
X0097956Y0301370D02*
X0118711Y0301370D01*
X0118068Y0302369D02*
X0098598Y0302369D01*
X0099373Y0303367D02*
X0117293Y0303367D01*
X0116295Y0304366D02*
X0100372Y0304366D01*
X0101671Y0305364D02*
X0114996Y0305364D01*
X0113192Y0306363D02*
X0103475Y0306363D01*
X0107792Y0307361D02*
X0108874Y0307361D01*
X0136819Y0298781D02*
X0136455Y0297108D01*
X0136333Y0295400D01*
X0136333Y0281400D01*
X0160333Y0281400D01*
X0160333Y0295400D01*
X0160211Y0297108D01*
X0159847Y0298781D01*
X0159249Y0300385D01*
X0158428Y0301888D01*
X0157402Y0303258D01*
X0156192Y0304469D01*
X0154821Y0305495D01*
X0153318Y0306316D01*
X0151714Y0306914D01*
X0150041Y0307278D01*
X0148333Y0307400D01*
X0146626Y0307278D01*
X0144953Y0306914D01*
X0143348Y0306316D01*
X0141846Y0305495D01*
X0140475Y0304469D01*
X0139264Y0303258D01*
X0138238Y0301888D01*
X0137418Y0300385D01*
X0136819Y0298781D01*
X0136731Y0298375D02*
X0159936Y0298375D01*
X0160153Y0297376D02*
X0136514Y0297376D01*
X0136403Y0296378D02*
X0160263Y0296378D01*
X0160333Y0295379D02*
X0136333Y0295379D01*
X0136333Y0294381D02*
X0160333Y0294381D01*
X0160333Y0293382D02*
X0136333Y0293382D01*
X0136333Y0292384D02*
X0160333Y0292384D01*
X0160333Y0291385D02*
X0136333Y0291385D01*
X0136333Y0290387D02*
X0160333Y0290387D01*
X0160333Y0289388D02*
X0136333Y0289388D01*
X0136333Y0288390D02*
X0160333Y0288390D01*
X0160333Y0287391D02*
X0136333Y0287391D01*
X0136333Y0286393D02*
X0160333Y0286393D01*
X0160333Y0285394D02*
X0136333Y0285394D01*
X0136333Y0284396D02*
X0160333Y0284396D01*
X0160333Y0283397D02*
X0136333Y0283397D01*
X0136333Y0282399D02*
X0160333Y0282399D01*
X0160333Y0281400D02*
X0136333Y0281400D01*
X0137040Y0299373D02*
X0159626Y0299373D01*
X0159254Y0300372D02*
X0137413Y0300372D01*
X0137956Y0301370D02*
X0158711Y0301370D01*
X0158068Y0302369D02*
X0138598Y0302369D01*
X0139373Y0303367D02*
X0157293Y0303367D01*
X0156295Y0304366D02*
X0140372Y0304366D01*
X0141671Y0305364D02*
X0154996Y0305364D01*
X0153192Y0306363D02*
X0143475Y0306363D01*
X0147792Y0307361D02*
X0148874Y0307361D01*
X0176819Y0298781D02*
X0176455Y0297108D01*
X0176333Y0295400D01*
X0176333Y0281400D01*
X0200333Y0281400D01*
X0200333Y0295400D01*
X0200211Y0297108D01*
X0199847Y0298781D01*
X0199249Y0300385D01*
X0198428Y0301888D01*
X0197402Y0303258D01*
X0196192Y0304469D01*
X0194821Y0305495D01*
X0193318Y0306316D01*
X0191714Y0306914D01*
X0190041Y0307278D01*
X0188333Y0307400D01*
X0186626Y0307278D01*
X0184953Y0306914D01*
X0183348Y0306316D01*
X0181846Y0305495D01*
X0180475Y0304469D01*
X0179264Y0303258D01*
X0178238Y0301888D01*
X0177418Y0300385D01*
X0176819Y0298781D01*
X0176731Y0298375D02*
X0199936Y0298375D01*
X0200153Y0297376D02*
X0176514Y0297376D01*
X0176403Y0296378D02*
X0200263Y0296378D01*
X0200333Y0295379D02*
X0176333Y0295379D01*
X0176333Y0294381D02*
X0200333Y0294381D01*
X0200333Y0293382D02*
X0176333Y0293382D01*
X0176333Y0292384D02*
X0200333Y0292384D01*
X0200333Y0291385D02*
X0176333Y0291385D01*
X0176333Y0290387D02*
X0200333Y0290387D01*
X0200333Y0289388D02*
X0176333Y0289388D01*
X0176333Y0288390D02*
X0200333Y0288390D01*
X0200333Y0287391D02*
X0176333Y0287391D01*
X0176333Y0286393D02*
X0200333Y0286393D01*
X0200333Y0285394D02*
X0176333Y0285394D01*
X0176333Y0284396D02*
X0200333Y0284396D01*
X0200333Y0283397D02*
X0176333Y0283397D01*
X0176333Y0282399D02*
X0200333Y0282399D01*
X0200333Y0281400D02*
X0176333Y0281400D01*
X0177040Y0299373D02*
X0199626Y0299373D01*
X0199254Y0300372D02*
X0177413Y0300372D01*
X0177956Y0301370D02*
X0198711Y0301370D01*
X0198068Y0302369D02*
X0178598Y0302369D01*
X0179373Y0303367D02*
X0197293Y0303367D01*
X0196295Y0304366D02*
X0180372Y0304366D01*
X0181671Y0305364D02*
X0194996Y0305364D01*
X0193192Y0306363D02*
X0183475Y0306363D01*
X0187792Y0307361D02*
X0188874Y0307361D01*
X0216819Y0298781D02*
X0216455Y0297108D01*
X0216333Y0295400D01*
X0216333Y0281400D01*
X0240333Y0281400D01*
X0240333Y0295400D01*
X0240211Y0297108D01*
X0239847Y0298781D01*
X0239249Y0300385D01*
X0238428Y0301888D01*
X0237402Y0303258D01*
X0236192Y0304469D01*
X0234821Y0305495D01*
X0233318Y0306316D01*
X0231714Y0306914D01*
X0230041Y0307278D01*
X0228333Y0307400D01*
X0226626Y0307278D01*
X0224953Y0306914D01*
X0223348Y0306316D01*
X0221846Y0305495D01*
X0220475Y0304469D01*
X0219264Y0303258D01*
X0218238Y0301888D01*
X0217418Y0300385D01*
X0216819Y0298781D01*
X0216731Y0298375D02*
X0239936Y0298375D01*
X0240153Y0297376D02*
X0216514Y0297376D01*
X0216403Y0296378D02*
X0240263Y0296378D01*
X0240333Y0295379D02*
X0216333Y0295379D01*
X0216333Y0294381D02*
X0240333Y0294381D01*
X0240333Y0293382D02*
X0216333Y0293382D01*
X0216333Y0292384D02*
X0240333Y0292384D01*
X0240333Y0291385D02*
X0216333Y0291385D01*
X0216333Y0290387D02*
X0240333Y0290387D01*
X0240333Y0289388D02*
X0216333Y0289388D01*
X0216333Y0288390D02*
X0240333Y0288390D01*
X0240333Y0287391D02*
X0216333Y0287391D01*
X0216333Y0286393D02*
X0240333Y0286393D01*
X0240333Y0285394D02*
X0216333Y0285394D01*
X0216333Y0284396D02*
X0240333Y0284396D01*
X0240333Y0283397D02*
X0216333Y0283397D01*
X0216333Y0282399D02*
X0240333Y0282399D01*
X0240333Y0281400D02*
X0216333Y0281400D01*
X0217040Y0299373D02*
X0239626Y0299373D01*
X0239254Y0300372D02*
X0217413Y0300372D01*
X0217956Y0301370D02*
X0238711Y0301370D01*
X0238068Y0302369D02*
X0218598Y0302369D01*
X0219373Y0303367D02*
X0237293Y0303367D01*
X0236295Y0304366D02*
X0220372Y0304366D01*
X0221671Y0305364D02*
X0234996Y0305364D01*
X0233192Y0306363D02*
X0223475Y0306363D01*
X0227792Y0307361D02*
X0228874Y0307361D01*
X0228333Y0355400D02*
X0226626Y0355522D01*
X0224953Y0355886D01*
X0223348Y0356484D01*
X0221846Y0357305D01*
X0220475Y0358331D01*
X0219264Y0359542D01*
X0218238Y0360912D01*
X0217418Y0362415D01*
X0216819Y0364019D01*
X0216455Y0365692D01*
X0216333Y0367400D01*
X0216333Y0381400D01*
X0240333Y0381400D01*
X0240333Y0367400D01*
X0240211Y0365692D01*
X0239847Y0364019D01*
X0239249Y0362415D01*
X0238428Y0360912D01*
X0237402Y0359542D01*
X0236192Y0358331D01*
X0234821Y0357305D01*
X0233318Y0356484D01*
X0231714Y0355886D01*
X0230041Y0355522D01*
X0228333Y0355400D01*
X0223874Y0356288D02*
X0232793Y0356288D01*
X0234788Y0357287D02*
X0221879Y0357287D01*
X0220536Y0358285D02*
X0236131Y0358285D01*
X0237145Y0359284D02*
X0219522Y0359284D01*
X0218710Y0360282D02*
X0237957Y0360282D01*
X0238630Y0361281D02*
X0218037Y0361281D01*
X0217492Y0362279D02*
X0239175Y0362279D01*
X0239571Y0363278D02*
X0217096Y0363278D01*
X0216763Y0364276D02*
X0239903Y0364276D01*
X0240120Y0365275D02*
X0216546Y0365275D01*
X0216414Y0366273D02*
X0240253Y0366273D01*
X0240324Y0367272D02*
X0216342Y0367272D01*
X0216333Y0368270D02*
X0240333Y0368270D01*
X0240333Y0369269D02*
X0216333Y0369269D01*
X0216333Y0370268D02*
X0240333Y0370268D01*
X0240333Y0371266D02*
X0216333Y0371266D01*
X0216333Y0372265D02*
X0240333Y0372265D01*
X0240333Y0373263D02*
X0216333Y0373263D01*
X0216333Y0374262D02*
X0240333Y0374262D01*
X0240333Y0375260D02*
X0216333Y0375260D01*
X0216333Y0376259D02*
X0240333Y0376259D01*
X0240333Y0377257D02*
X0216333Y0377257D01*
X0216333Y0378256D02*
X0240333Y0378256D01*
X0240333Y0379254D02*
X0216333Y0379254D01*
X0216333Y0380253D02*
X0240333Y0380253D01*
X0240333Y0381251D02*
X0216333Y0381251D01*
X0200333Y0381251D02*
X0176333Y0381251D01*
X0176333Y0381400D02*
X0176333Y0367400D01*
X0176455Y0365692D01*
X0176819Y0364019D01*
X0177418Y0362415D01*
X0178238Y0360912D01*
X0179264Y0359542D01*
X0180475Y0358331D01*
X0181846Y0357305D01*
X0183348Y0356484D01*
X0184953Y0355886D01*
X0186626Y0355522D01*
X0188333Y0355400D01*
X0190041Y0355522D01*
X0191714Y0355886D01*
X0193318Y0356484D01*
X0194821Y0357305D01*
X0196192Y0358331D01*
X0197402Y0359542D01*
X0198428Y0360912D01*
X0199249Y0362415D01*
X0199847Y0364019D01*
X0200211Y0365692D01*
X0200333Y0367400D01*
X0200333Y0381400D01*
X0176333Y0381400D01*
X0176333Y0380253D02*
X0200333Y0380253D01*
X0200333Y0379254D02*
X0176333Y0379254D01*
X0176333Y0378256D02*
X0200333Y0378256D01*
X0200333Y0377257D02*
X0176333Y0377257D01*
X0176333Y0376259D02*
X0200333Y0376259D01*
X0200333Y0375260D02*
X0176333Y0375260D01*
X0176333Y0374262D02*
X0200333Y0374262D01*
X0200333Y0373263D02*
X0176333Y0373263D01*
X0176333Y0372265D02*
X0200333Y0372265D01*
X0200333Y0371266D02*
X0176333Y0371266D01*
X0176333Y0370268D02*
X0200333Y0370268D01*
X0200333Y0369269D02*
X0176333Y0369269D01*
X0176333Y0368270D02*
X0200333Y0368270D01*
X0200324Y0367272D02*
X0176342Y0367272D01*
X0176414Y0366273D02*
X0200253Y0366273D01*
X0200120Y0365275D02*
X0176546Y0365275D01*
X0176763Y0364276D02*
X0199903Y0364276D01*
X0199571Y0363278D02*
X0177096Y0363278D01*
X0177492Y0362279D02*
X0199175Y0362279D01*
X0198630Y0361281D02*
X0178037Y0361281D01*
X0178710Y0360282D02*
X0197957Y0360282D01*
X0197145Y0359284D02*
X0179522Y0359284D01*
X0180536Y0358285D02*
X0196131Y0358285D01*
X0194788Y0357287D02*
X0181879Y0357287D01*
X0183874Y0356288D02*
X0192793Y0356288D01*
X0159847Y0364019D02*
X0160211Y0365692D01*
X0160333Y0367400D01*
X0160333Y0381400D01*
X0136333Y0381400D01*
X0136333Y0367400D01*
X0136455Y0365692D01*
X0136819Y0364019D01*
X0137418Y0362415D01*
X0138238Y0360912D01*
X0139264Y0359542D01*
X0140475Y0358331D01*
X0141846Y0357305D01*
X0143348Y0356484D01*
X0144953Y0355886D01*
X0146626Y0355522D01*
X0148333Y0355400D01*
X0150041Y0355522D01*
X0151714Y0355886D01*
X0153318Y0356484D01*
X0154821Y0357305D01*
X0156192Y0358331D01*
X0157402Y0359542D01*
X0158428Y0360912D01*
X0159249Y0362415D01*
X0159847Y0364019D01*
X0159903Y0364276D02*
X0136763Y0364276D01*
X0136546Y0365275D02*
X0160120Y0365275D01*
X0160253Y0366273D02*
X0136414Y0366273D01*
X0136342Y0367272D02*
X0160324Y0367272D01*
X0160333Y0368270D02*
X0136333Y0368270D01*
X0136333Y0369269D02*
X0160333Y0369269D01*
X0160333Y0370268D02*
X0136333Y0370268D01*
X0136333Y0371266D02*
X0160333Y0371266D01*
X0160333Y0372265D02*
X0136333Y0372265D01*
X0136333Y0373263D02*
X0160333Y0373263D01*
X0160333Y0374262D02*
X0136333Y0374262D01*
X0136333Y0375260D02*
X0160333Y0375260D01*
X0160333Y0376259D02*
X0136333Y0376259D01*
X0136333Y0377257D02*
X0160333Y0377257D01*
X0160333Y0378256D02*
X0136333Y0378256D01*
X0136333Y0379254D02*
X0160333Y0379254D01*
X0160333Y0380253D02*
X0136333Y0380253D01*
X0136333Y0381251D02*
X0160333Y0381251D01*
X0159571Y0363278D02*
X0137096Y0363278D01*
X0137492Y0362279D02*
X0159175Y0362279D01*
X0158630Y0361281D02*
X0138037Y0361281D01*
X0138710Y0360282D02*
X0157957Y0360282D01*
X0157145Y0359284D02*
X0139522Y0359284D01*
X0140536Y0358285D02*
X0156131Y0358285D01*
X0154788Y0357287D02*
X0141879Y0357287D01*
X0143874Y0356288D02*
X0152793Y0356288D01*
X0119847Y0364019D02*
X0120211Y0365692D01*
X0120333Y0367400D01*
X0120333Y0381400D01*
X0096333Y0381400D01*
X0096333Y0367400D01*
X0096455Y0365692D01*
X0096819Y0364019D01*
X0097418Y0362415D01*
X0098238Y0360912D01*
X0099264Y0359542D01*
X0100475Y0358331D01*
X0101846Y0357305D01*
X0103348Y0356484D01*
X0104953Y0355886D01*
X0106626Y0355522D01*
X0108333Y0355400D01*
X0110041Y0355522D01*
X0111714Y0355886D01*
X0113318Y0356484D01*
X0114821Y0357305D01*
X0116192Y0358331D01*
X0117402Y0359542D01*
X0118428Y0360912D01*
X0119249Y0362415D01*
X0119847Y0364019D01*
X0119903Y0364276D02*
X0096763Y0364276D01*
X0096546Y0365275D02*
X0120120Y0365275D01*
X0120253Y0366273D02*
X0096414Y0366273D01*
X0096342Y0367272D02*
X0120324Y0367272D01*
X0120333Y0368270D02*
X0096333Y0368270D01*
X0096333Y0369269D02*
X0120333Y0369269D01*
X0120333Y0370268D02*
X0096333Y0370268D01*
X0096333Y0371266D02*
X0120333Y0371266D01*
X0120333Y0372265D02*
X0096333Y0372265D01*
X0096333Y0373263D02*
X0120333Y0373263D01*
X0120333Y0374262D02*
X0096333Y0374262D01*
X0096333Y0375260D02*
X0120333Y0375260D01*
X0120333Y0376259D02*
X0096333Y0376259D01*
X0096333Y0377257D02*
X0120333Y0377257D01*
X0120333Y0378256D02*
X0096333Y0378256D01*
X0096333Y0379254D02*
X0120333Y0379254D01*
X0120333Y0380253D02*
X0096333Y0380253D01*
X0096333Y0381251D02*
X0120333Y0381251D01*
X0119571Y0363278D02*
X0097096Y0363278D01*
X0097492Y0362279D02*
X0119175Y0362279D01*
X0118630Y0361281D02*
X0098037Y0361281D01*
X0098710Y0360282D02*
X0117957Y0360282D01*
X0117145Y0359284D02*
X0099522Y0359284D01*
X0100536Y0358285D02*
X0116131Y0358285D01*
X0114788Y0357287D02*
X0101879Y0357287D01*
X0103874Y0356288D02*
X0112793Y0356288D01*
D18*
X0133833Y0314928D03*
X0133833Y0305872D03*
X0168333Y0295928D03*
X0168333Y0286872D03*
X0208333Y0286872D03*
X0208333Y0295928D03*
D19*
X0170408Y0357522D02*
X0170408Y0360278D01*
X0173164Y0360278D01*
X0173164Y0357522D01*
X0170408Y0357522D01*
X0170408Y0358644D02*
X0173164Y0358644D01*
X0173164Y0359766D02*
X0170408Y0359766D01*
X0163503Y0360278D02*
X0163503Y0357522D01*
X0163503Y0360278D02*
X0166259Y0360278D01*
X0166259Y0357522D01*
X0163503Y0357522D01*
X0163503Y0358644D02*
X0166259Y0358644D01*
X0166259Y0359766D02*
X0163503Y0359766D01*
D20*
X0164881Y0358900D02*
X0164881Y0352947D01*
X0163333Y0351400D01*
X0123333Y0351400D01*
X0120833Y0348900D01*
X0120833Y0338400D01*
X0120987Y0338246D01*
X0123333Y0338246D01*
X0122680Y0338246D01*
X0123333Y0338246D01*
X0125833Y0338246D01*
X0125833Y0334746D01*
X0125833Y0338246D02*
X0132487Y0338246D01*
X0132487Y0341400D01*
X0132487Y0338246D02*
X0133274Y0337459D01*
X0133274Y0334648D01*
X0133274Y0332459D01*
X0134333Y0331400D01*
X0138333Y0331400D01*
X0138392Y0331459D01*
X0153333Y0331459D01*
X0153333Y0334746D01*
X0153333Y0331459D02*
X0156892Y0331459D01*
X0158333Y0332900D01*
X0158333Y0334550D01*
X0158333Y0336400D01*
X0159633Y0337699D01*
X0163609Y0337699D01*
X0166685Y0338094D02*
X0169981Y0338094D01*
X0169981Y0337296D02*
X0169312Y0337296D01*
X0168940Y0337450D02*
X0167727Y0337450D01*
X0166685Y0337019D01*
X0166685Y0339051D01*
X0166462Y0339274D01*
X0166685Y0339497D01*
X0166685Y0342201D01*
X0165748Y0343138D01*
X0161470Y0343138D01*
X0160533Y0342201D01*
X0160533Y0339699D01*
X0159376Y0339699D01*
X0159376Y0340535D01*
X0158912Y0341656D01*
X0158326Y0342242D01*
X0158326Y0343564D01*
X0159162Y0344400D01*
X0177265Y0344400D01*
X0177265Y0339418D01*
X0177783Y0338900D01*
X0177265Y0338382D01*
X0177265Y0333160D01*
X0176333Y0332228D01*
X0175934Y0331829D01*
X0175934Y0332273D01*
X0175839Y0332629D01*
X0175739Y0332803D01*
X0176134Y0333198D01*
X0176134Y0335901D01*
X0175911Y0336124D01*
X0176134Y0336347D01*
X0176134Y0339051D01*
X0175911Y0339274D01*
X0176134Y0339497D01*
X0176134Y0342201D01*
X0175197Y0343138D01*
X0170919Y0343138D01*
X0169981Y0342201D01*
X0169981Y0339497D01*
X0170204Y0339274D01*
X0169981Y0339051D01*
X0169981Y0337019D01*
X0168940Y0337450D01*
X0167354Y0337296D02*
X0166685Y0337296D01*
X0166685Y0338893D02*
X0169981Y0338893D01*
X0169981Y0339691D02*
X0166685Y0339691D01*
X0166685Y0340490D02*
X0169981Y0340490D01*
X0169981Y0341288D02*
X0166685Y0341288D01*
X0166685Y0342087D02*
X0169981Y0342087D01*
X0170666Y0342885D02*
X0166000Y0342885D01*
X0161217Y0342885D02*
X0158326Y0342885D01*
X0158446Y0343684D02*
X0177265Y0343684D01*
X0177265Y0342885D02*
X0175449Y0342885D01*
X0176134Y0342087D02*
X0177265Y0342087D01*
X0177265Y0341288D02*
X0176134Y0341288D01*
X0176134Y0340490D02*
X0177265Y0340490D01*
X0177265Y0339691D02*
X0176134Y0339691D01*
X0176134Y0338893D02*
X0177776Y0338893D01*
X0177265Y0338094D02*
X0176134Y0338094D01*
X0176134Y0337296D02*
X0177265Y0337296D01*
X0177265Y0336497D02*
X0176134Y0336497D01*
X0176134Y0335699D02*
X0177265Y0335699D01*
X0177265Y0334900D02*
X0176134Y0334900D01*
X0176134Y0334102D02*
X0177265Y0334102D01*
X0177333Y0333900D02*
X0174833Y0331400D01*
X0173058Y0331400D01*
X0175505Y0331400D01*
X0175505Y0331400D01*
X0173058Y0331400D01*
X0173058Y0331400D01*
X0170181Y0331400D01*
X0173058Y0331400D01*
X0173058Y0331400D01*
X0170181Y0331400D02*
X0170181Y0330527D01*
X0170277Y0330171D01*
X0170377Y0329997D01*
X0169981Y0329602D01*
X0169981Y0326899D01*
X0170204Y0326676D01*
X0169981Y0326452D01*
X0169981Y0323749D01*
X0170204Y0323526D01*
X0169981Y0323303D01*
X0169981Y0320599D01*
X0170919Y0319662D01*
X0175197Y0319662D01*
X0176134Y0320599D01*
X0176134Y0322424D01*
X0177265Y0321294D01*
X0177265Y0317725D01*
X0178202Y0316788D01*
X0183465Y0316788D01*
X0184062Y0317385D01*
X0184462Y0316985D01*
X0188833Y0316985D01*
X0188833Y0314728D01*
X0187505Y0313400D01*
X0170005Y0313400D01*
X0168833Y0312228D01*
X0166333Y0309728D01*
X0166333Y0298768D01*
X0166037Y0298768D01*
X0165099Y0297830D01*
X0165099Y0294025D01*
X0166037Y0293087D01*
X0170630Y0293087D01*
X0171567Y0294025D01*
X0171567Y0297830D01*
X0170630Y0298768D01*
X0170333Y0298768D01*
X0170333Y0308072D01*
X0171662Y0309400D01*
X0186333Y0309400D01*
X0186333Y0309363D01*
X0186326Y0309362D01*
X0185608Y0309310D01*
X0185496Y0309181D01*
X0185189Y0309114D01*
X0185034Y0309185D01*
X0184359Y0308934D01*
X0183656Y0308781D01*
X0183564Y0308637D01*
X0183269Y0308527D01*
X0183105Y0308576D01*
X0182474Y0308231D01*
X0181799Y0307979D01*
X0181728Y0307824D01*
X0181453Y0307673D01*
X0181284Y0307697D01*
X0180707Y0307266D01*
X0180076Y0306921D01*
X0180028Y0306757D01*
X0179776Y0306569D01*
X0179605Y0306569D01*
X0179096Y0306060D01*
X0178520Y0305629D01*
X0178496Y0305460D01*
X0178274Y0305237D01*
X0178104Y0305213D01*
X0177673Y0304637D01*
X0177164Y0304128D01*
X0177164Y0303957D01*
X0176976Y0303706D01*
X0176812Y0303658D01*
X0176467Y0303026D01*
X0176036Y0302450D01*
X0176060Y0302281D01*
X0175910Y0302005D01*
X0175754Y0301934D01*
X0175503Y0301260D01*
X0175158Y0300628D01*
X0175206Y0300464D01*
X0175096Y0300170D01*
X0174952Y0300077D01*
X0174799Y0299374D01*
X0174548Y0298700D01*
X0174619Y0298544D01*
X0174552Y0298237D01*
X0174423Y0298125D01*
X0174372Y0297407D01*
X0174219Y0296704D01*
X0174311Y0296560D01*
X0174295Y0296331D01*
X0174233Y0296270D01*
X0174233Y0295475D01*
X0174177Y0294682D01*
X0174233Y0294617D01*
X0174233Y0283400D01*
X0162433Y0283400D01*
X0162433Y0294617D01*
X0162490Y0294682D01*
X0162433Y0295475D01*
X0162433Y0296270D01*
X0162372Y0296331D01*
X0162356Y0296560D01*
X0162448Y0296704D01*
X0162295Y0297407D01*
X0162244Y0298125D01*
X0162115Y0298237D01*
X0162048Y0298544D01*
X0162119Y0298700D01*
X0161867Y0299374D01*
X0161714Y0300077D01*
X0161571Y0300170D01*
X0161461Y0300464D01*
X0161509Y0300628D01*
X0161164Y0301260D01*
X0160913Y0301934D01*
X0160757Y0302005D01*
X0160606Y0302281D01*
X0160631Y0302450D01*
X0160200Y0303026D01*
X0159855Y0303658D01*
X0159691Y0303706D01*
X0159502Y0303957D01*
X0159502Y0304128D01*
X0158993Y0304637D01*
X0158562Y0305213D01*
X0158393Y0305237D01*
X0158171Y0305460D01*
X0158146Y0305629D01*
X0157570Y0306060D01*
X0157062Y0306569D01*
X0156891Y0306569D01*
X0156639Y0306757D01*
X0156591Y0306921D01*
X0155959Y0307266D01*
X0155383Y0307697D01*
X0155214Y0307673D01*
X0154938Y0307824D01*
X0154867Y0307979D01*
X0154193Y0308231D01*
X0153561Y0308576D01*
X0153397Y0308527D01*
X0153103Y0308637D01*
X0153010Y0308781D01*
X0152307Y0308934D01*
X0151633Y0309185D01*
X0151478Y0309114D01*
X0151170Y0309181D01*
X0151059Y0309310D01*
X0150341Y0309362D01*
X0149638Y0309515D01*
X0149494Y0309422D01*
X0149180Y0309445D01*
X0149051Y0309557D01*
X0148333Y0309505D01*
X0147616Y0309557D01*
X0147486Y0309445D01*
X0147173Y0309422D01*
X0147029Y0309515D01*
X0146326Y0309362D01*
X0145608Y0309310D01*
X0145496Y0309181D01*
X0145189Y0309114D01*
X0145034Y0309185D01*
X0144359Y0308934D01*
X0143656Y0308781D01*
X0143564Y0308637D01*
X0143462Y0308599D01*
X0139662Y0312400D01*
X0136442Y0312400D01*
X0137067Y0313025D01*
X0137067Y0316830D01*
X0136130Y0317768D01*
X0131537Y0317768D01*
X0130697Y0316928D01*
X0130592Y0316928D01*
X0130205Y0317315D01*
X0127424Y0317315D01*
X0122833Y0321906D01*
X0122833Y0324940D01*
X0123005Y0324768D01*
X0123324Y0324584D01*
X0123680Y0324488D01*
X0125433Y0324488D01*
X0125433Y0327653D01*
X0126233Y0327653D01*
X0126233Y0324488D01*
X0127986Y0324488D01*
X0128342Y0324584D01*
X0128661Y0324768D01*
X0128922Y0325029D01*
X0129106Y0325348D01*
X0129202Y0325704D01*
X0129202Y0327654D01*
X0126233Y0327654D01*
X0126233Y0328454D01*
X0129202Y0328454D01*
X0129202Y0330403D01*
X0129106Y0330759D01*
X0128922Y0331079D01*
X0128742Y0331259D01*
X0129402Y0331918D01*
X0129402Y0336246D01*
X0130887Y0336246D01*
X0130887Y0332509D01*
X0131274Y0332122D01*
X0131274Y0331631D01*
X0131967Y0330938D01*
X0131946Y0330933D01*
X0131627Y0330749D01*
X0131367Y0330488D01*
X0131182Y0330169D01*
X0131087Y0329813D01*
X0131087Y0328152D01*
X0133274Y0328152D01*
X0133274Y0328152D01*
X0131087Y0328152D01*
X0131087Y0326491D01*
X0131182Y0326135D01*
X0131367Y0325816D01*
X0131627Y0325555D01*
X0131946Y0325371D01*
X0132303Y0325276D01*
X0133274Y0325276D01*
X0133274Y0328152D01*
X0133274Y0328152D01*
X0133274Y0325276D01*
X0134246Y0325276D01*
X0134602Y0325371D01*
X0134921Y0325555D01*
X0135182Y0325816D01*
X0135366Y0326135D01*
X0135462Y0326491D01*
X0135462Y0328152D01*
X0135462Y0329400D01*
X0136005Y0329400D01*
X0136005Y0326013D01*
X0136942Y0325076D01*
X0139329Y0325076D01*
X0139436Y0324968D01*
X0136352Y0324968D01*
X0135692Y0324309D01*
X0135512Y0324489D01*
X0135193Y0324673D01*
X0134837Y0324768D01*
X0132887Y0324768D01*
X0132887Y0321800D01*
X0132087Y0321800D01*
X0132087Y0324768D01*
X0130137Y0324768D01*
X0129781Y0324673D01*
X0129462Y0324489D01*
X0129201Y0324228D01*
X0129017Y0323909D01*
X0128922Y0323553D01*
X0128922Y0321800D01*
X0132087Y0321800D01*
X0132087Y0321000D01*
X0132887Y0321000D01*
X0132887Y0318031D01*
X0134837Y0318031D01*
X0135193Y0318127D01*
X0135512Y0318311D01*
X0135692Y0318491D01*
X0136352Y0317831D01*
X0142008Y0317831D01*
X0142945Y0318769D01*
X0142945Y0320403D01*
X0143248Y0319672D01*
X0144106Y0318814D01*
X0145227Y0318350D01*
X0146440Y0318350D01*
X0147561Y0318814D01*
X0148419Y0319672D01*
X0148883Y0320793D01*
X0148883Y0322007D01*
X0148419Y0323128D01*
X0147561Y0323986D01*
X0146831Y0324288D01*
X0148465Y0324288D01*
X0149402Y0325225D01*
X0149402Y0329459D01*
X0149765Y0329459D01*
X0149765Y0325225D01*
X0150702Y0324288D01*
X0154270Y0324288D01*
X0155458Y0323101D01*
X0160533Y0323101D01*
X0160533Y0320599D01*
X0161470Y0319662D01*
X0165748Y0319662D01*
X0166685Y0320599D01*
X0166685Y0323303D01*
X0166462Y0323526D01*
X0166685Y0323749D01*
X0166685Y0326452D01*
X0166290Y0326848D01*
X0166390Y0327021D01*
X0166485Y0327377D01*
X0166485Y0328250D01*
X0163609Y0328250D01*
X0163609Y0328250D01*
X0166485Y0328250D01*
X0166485Y0329124D01*
X0166390Y0329480D01*
X0166290Y0329653D01*
X0166685Y0330048D01*
X0166685Y0331781D01*
X0167727Y0331350D01*
X0168940Y0331350D01*
X0170061Y0331814D01*
X0170181Y0331935D01*
X0170181Y0331400D01*
X0170181Y0331706D02*
X0169800Y0331706D01*
X0170181Y0330908D02*
X0166685Y0330908D01*
X0166685Y0331706D02*
X0166867Y0331706D01*
X0166685Y0330109D02*
X0170312Y0330109D01*
X0169981Y0329311D02*
X0166435Y0329311D01*
X0166485Y0328512D02*
X0169981Y0328512D01*
X0169981Y0327714D02*
X0166485Y0327714D01*
X0166329Y0326915D02*
X0169981Y0326915D01*
X0169981Y0326117D02*
X0166685Y0326117D01*
X0166685Y0325318D02*
X0169981Y0325318D01*
X0169981Y0324520D02*
X0166685Y0324520D01*
X0166657Y0323721D02*
X0170009Y0323721D01*
X0169981Y0322923D02*
X0166685Y0322923D01*
X0166685Y0322124D02*
X0169981Y0322124D01*
X0169981Y0321326D02*
X0166685Y0321326D01*
X0166613Y0320527D02*
X0170054Y0320527D01*
X0170852Y0319729D02*
X0165814Y0319729D01*
X0161403Y0319729D02*
X0148442Y0319729D01*
X0148773Y0320527D02*
X0160605Y0320527D01*
X0160533Y0321326D02*
X0148883Y0321326D01*
X0148835Y0322124D02*
X0160533Y0322124D01*
X0160533Y0322923D02*
X0148504Y0322923D01*
X0147826Y0323721D02*
X0154837Y0323721D01*
X0156286Y0325101D02*
X0153333Y0328054D01*
X0149765Y0327714D02*
X0149402Y0327714D01*
X0149402Y0328512D02*
X0149765Y0328512D01*
X0149765Y0329311D02*
X0149402Y0329311D01*
X0149402Y0326915D02*
X0149765Y0326915D01*
X0149765Y0326117D02*
X0149402Y0326117D01*
X0149402Y0325318D02*
X0149765Y0325318D01*
X0150471Y0324520D02*
X0148696Y0324520D01*
X0145833Y0321400D02*
X0142583Y0324650D01*
X0142430Y0324650D01*
X0139180Y0321400D01*
X0142945Y0319729D02*
X0143224Y0319729D01*
X0142945Y0318930D02*
X0143990Y0318930D01*
X0142308Y0318132D02*
X0177265Y0318132D01*
X0177265Y0318930D02*
X0147677Y0318930D01*
X0142583Y0324650D02*
X0140833Y0326400D01*
X0140833Y0328054D01*
X0145833Y0328054D01*
X0140833Y0328054D02*
X0138491Y0328054D01*
X0138392Y0328152D01*
X0136005Y0328512D02*
X0135462Y0328512D01*
X0135462Y0328152D02*
X0133274Y0328152D01*
X0133274Y0328152D01*
X0135462Y0328152D01*
X0135462Y0327714D02*
X0136005Y0327714D01*
X0136005Y0326915D02*
X0135462Y0326915D01*
X0135356Y0326117D02*
X0136005Y0326117D01*
X0136700Y0325318D02*
X0134405Y0325318D01*
X0133274Y0325318D02*
X0133274Y0325318D01*
X0133274Y0326117D02*
X0133274Y0326117D01*
X0133274Y0326915D02*
X0133274Y0326915D01*
X0133274Y0327714D02*
X0133274Y0327714D01*
X0131087Y0327714D02*
X0126233Y0327714D01*
X0126233Y0326915D02*
X0125433Y0326915D01*
X0125433Y0326117D02*
X0126233Y0326117D01*
X0126233Y0325318D02*
X0125433Y0325318D01*
X0125433Y0324520D02*
X0126233Y0324520D01*
X0128103Y0324520D02*
X0129515Y0324520D01*
X0129089Y0325318D02*
X0132144Y0325318D01*
X0132087Y0324520D02*
X0132887Y0324520D01*
X0132887Y0323721D02*
X0132087Y0323721D01*
X0132087Y0322923D02*
X0132887Y0322923D01*
X0132887Y0322124D02*
X0132087Y0322124D01*
X0132087Y0321326D02*
X0123413Y0321326D01*
X0122833Y0322124D02*
X0128922Y0322124D01*
X0128922Y0322923D02*
X0122833Y0322923D01*
X0122833Y0323721D02*
X0128967Y0323721D01*
X0129202Y0326117D02*
X0131193Y0326117D01*
X0131087Y0326915D02*
X0129202Y0326915D01*
X0129202Y0328512D02*
X0131087Y0328512D01*
X0131087Y0329311D02*
X0129202Y0329311D01*
X0129202Y0330109D02*
X0131166Y0330109D01*
X0131903Y0330908D02*
X0129021Y0330908D01*
X0129190Y0331706D02*
X0131274Y0331706D01*
X0130891Y0332505D02*
X0129402Y0332505D01*
X0129402Y0333303D02*
X0130887Y0333303D01*
X0130887Y0334102D02*
X0129402Y0334102D01*
X0129402Y0334900D02*
X0130887Y0334900D01*
X0130887Y0335699D02*
X0129402Y0335699D01*
X0128722Y0340246D02*
X0122833Y0340246D01*
X0122833Y0348072D01*
X0124162Y0349400D01*
X0164162Y0349400D01*
X0166881Y0352119D01*
X0166881Y0355331D01*
X0167166Y0355331D01*
X0168333Y0356499D01*
X0169501Y0355331D01*
X0174071Y0355331D01*
X0175355Y0356615D01*
X0175355Y0361185D01*
X0174071Y0362468D01*
X0171046Y0362468D01*
X0170333Y0363181D01*
X0170333Y0364288D01*
X0170965Y0364288D01*
X0171902Y0365225D01*
X0171902Y0370882D01*
X0171242Y0371541D01*
X0171422Y0371721D01*
X0171606Y0372041D01*
X0171702Y0372397D01*
X0171702Y0374346D01*
X0168733Y0374346D01*
X0168733Y0375146D01*
X0171702Y0375146D01*
X0171702Y0377096D01*
X0171606Y0377452D01*
X0171422Y0377771D01*
X0171161Y0378032D01*
X0170842Y0378216D01*
X0170486Y0378312D01*
X0168733Y0378312D01*
X0168733Y0375146D01*
X0167933Y0375146D01*
X0167933Y0374346D01*
X0164965Y0374346D01*
X0164965Y0372397D01*
X0165060Y0372041D01*
X0165245Y0371721D01*
X0165425Y0371541D01*
X0164765Y0370882D01*
X0164765Y0365225D01*
X0165702Y0364288D01*
X0166333Y0364288D01*
X0166333Y0362468D01*
X0162595Y0362468D01*
X0161312Y0361185D01*
X0161312Y0356615D01*
X0162595Y0355331D01*
X0162881Y0355331D01*
X0162881Y0353776D01*
X0162505Y0353400D01*
X0150165Y0353400D01*
X0150341Y0353438D01*
X0151059Y0353490D01*
X0151170Y0353619D01*
X0151478Y0353686D01*
X0151633Y0353615D01*
X0152307Y0353866D01*
X0153010Y0354019D01*
X0153103Y0354163D01*
X0153397Y0354273D01*
X0153561Y0354224D01*
X0154193Y0354569D01*
X0154867Y0354821D01*
X0154938Y0354976D01*
X0155214Y0355127D01*
X0155383Y0355103D01*
X0155959Y0355534D01*
X0156591Y0355879D01*
X0156639Y0356043D01*
X0156891Y0356231D01*
X0157062Y0356231D01*
X0157570Y0356740D01*
X0158146Y0357171D01*
X0158171Y0357340D01*
X0158393Y0357563D01*
X0158562Y0357587D01*
X0158993Y0358163D01*
X0159502Y0358672D01*
X0159502Y0358843D01*
X0159691Y0359094D01*
X0159855Y0359142D01*
X0160200Y0359774D01*
X0160631Y0360350D01*
X0160606Y0360519D01*
X0160757Y0360795D01*
X0160913Y0360866D01*
X0161164Y0361540D01*
X0161509Y0362172D01*
X0161461Y0362336D01*
X0161571Y0362630D01*
X0161714Y0362723D01*
X0161867Y0363426D01*
X0162119Y0364100D01*
X0162048Y0364256D01*
X0162115Y0364563D01*
X0162244Y0364675D01*
X0162295Y0365393D01*
X0162448Y0366096D01*
X0162356Y0366240D01*
X0162372Y0366469D01*
X0162433Y0366530D01*
X0162433Y0367325D01*
X0162490Y0368118D01*
X0162433Y0368183D01*
X0162433Y0379400D01*
X0174233Y0379400D01*
X0174233Y0368183D01*
X0174177Y0368118D01*
X0174233Y0367325D01*
X0174233Y0366530D01*
X0174295Y0366469D01*
X0174311Y0366240D01*
X0174219Y0366096D01*
X0174372Y0365393D01*
X0174423Y0364675D01*
X0174552Y0364563D01*
X0174619Y0364256D01*
X0174548Y0364100D01*
X0174799Y0363426D01*
X0174952Y0362723D01*
X0175096Y0362630D01*
X0175206Y0362336D01*
X0175158Y0362172D01*
X0175503Y0361540D01*
X0175754Y0360866D01*
X0175910Y0360795D01*
X0176060Y0360519D01*
X0176036Y0360350D01*
X0176467Y0359774D01*
X0176812Y0359142D01*
X0176976Y0359094D01*
X0177164Y0358843D01*
X0177164Y0358672D01*
X0177673Y0358163D01*
X0178104Y0357587D01*
X0178274Y0357563D01*
X0178496Y0357340D01*
X0178520Y0357171D01*
X0179096Y0356740D01*
X0179605Y0356231D01*
X0179776Y0356231D01*
X0180028Y0356043D01*
X0180076Y0355879D01*
X0180707Y0355534D01*
X0181284Y0355103D01*
X0181453Y0355127D01*
X0181728Y0354976D01*
X0181799Y0354821D01*
X0182474Y0354569D01*
X0183105Y0354224D01*
X0183269Y0354273D01*
X0183564Y0354163D01*
X0183656Y0354019D01*
X0184359Y0353866D01*
X0185034Y0353615D01*
X0185189Y0353686D01*
X0185496Y0353619D01*
X0185608Y0353490D01*
X0186326Y0353438D01*
X0186333Y0353437D01*
X0186333Y0350572D01*
X0187505Y0349400D01*
X0188505Y0348400D01*
X0157505Y0348400D01*
X0156333Y0347228D01*
X0154326Y0345221D01*
X0154326Y0342242D01*
X0153740Y0341656D01*
X0153276Y0340535D01*
X0153276Y0339322D01*
X0153611Y0338512D01*
X0150702Y0338512D01*
X0149765Y0337575D01*
X0149765Y0333459D01*
X0149202Y0333459D01*
X0149202Y0334346D01*
X0146233Y0334346D01*
X0146233Y0335146D01*
X0149202Y0335146D01*
X0149202Y0337096D01*
X0149106Y0337452D01*
X0148922Y0337771D01*
X0148661Y0338032D01*
X0148342Y0338216D01*
X0147986Y0338312D01*
X0146233Y0338312D01*
X0146233Y0335146D01*
X0145433Y0335146D01*
X0145433Y0334346D01*
X0142465Y0334346D01*
X0142465Y0333459D01*
X0140780Y0333459D01*
X0140780Y0336787D01*
X0139843Y0337724D01*
X0136942Y0337724D01*
X0136742Y0337524D01*
X0135833Y0337524D01*
X0135274Y0337524D01*
X0135274Y0337831D01*
X0135315Y0337831D01*
X0135975Y0338491D01*
X0136155Y0338311D01*
X0136474Y0338127D01*
X0136830Y0338031D01*
X0138780Y0338031D01*
X0138780Y0341000D01*
X0139580Y0341000D01*
X0139580Y0341800D01*
X0142745Y0341800D01*
X0142745Y0343553D01*
X0142650Y0343909D01*
X0142465Y0344228D01*
X0142205Y0344489D01*
X0141886Y0344673D01*
X0141529Y0344768D01*
X0139580Y0344768D01*
X0139580Y0341800D01*
X0138780Y0341800D01*
X0138780Y0344768D01*
X0136830Y0344768D01*
X0136474Y0344673D01*
X0136155Y0344489D01*
X0135975Y0344309D01*
X0135315Y0344968D01*
X0129659Y0344968D01*
X0128722Y0344031D01*
X0128722Y0340246D01*
X0128722Y0340490D02*
X0122833Y0340490D01*
X0122833Y0341288D02*
X0128722Y0341288D01*
X0128722Y0342087D02*
X0122833Y0342087D01*
X0122833Y0342885D02*
X0128722Y0342885D01*
X0128722Y0343684D02*
X0122833Y0343684D01*
X0122833Y0344482D02*
X0129173Y0344482D01*
X0135801Y0344482D02*
X0136148Y0344482D01*
X0138780Y0344482D02*
X0139580Y0344482D01*
X0139580Y0343684D02*
X0138780Y0343684D01*
X0138780Y0342885D02*
X0139580Y0342885D01*
X0139580Y0342087D02*
X0138780Y0342087D01*
X0139580Y0341288D02*
X0153588Y0341288D01*
X0153276Y0340490D02*
X0142745Y0340490D01*
X0142745Y0341000D02*
X0139580Y0341000D01*
X0139580Y0338031D01*
X0141529Y0338031D01*
X0141886Y0338127D01*
X0142205Y0338311D01*
X0142465Y0338572D01*
X0142650Y0338891D01*
X0142745Y0339247D01*
X0142745Y0341000D01*
X0142745Y0342087D02*
X0154171Y0342087D01*
X0154326Y0342885D02*
X0142745Y0342885D01*
X0142710Y0343684D02*
X0154326Y0343684D01*
X0154326Y0344482D02*
X0142211Y0344482D01*
X0139580Y0340490D02*
X0138780Y0340490D01*
X0138780Y0339691D02*
X0139580Y0339691D01*
X0139580Y0338893D02*
X0138780Y0338893D01*
X0138780Y0338094D02*
X0139580Y0338094D01*
X0140271Y0337296D02*
X0142518Y0337296D01*
X0142560Y0337452D02*
X0142465Y0337096D01*
X0142465Y0335146D01*
X0145433Y0335146D01*
X0145433Y0338312D01*
X0143680Y0338312D01*
X0143324Y0338216D01*
X0143005Y0338032D01*
X0142745Y0337771D01*
X0142560Y0337452D01*
X0143113Y0338094D02*
X0141764Y0338094D01*
X0142650Y0338893D02*
X0153454Y0338893D01*
X0153276Y0339691D02*
X0142745Y0339691D01*
X0145433Y0338094D02*
X0146233Y0338094D01*
X0146233Y0337296D02*
X0145433Y0337296D01*
X0145433Y0336497D02*
X0146233Y0336497D01*
X0146233Y0335699D02*
X0145433Y0335699D01*
X0145433Y0334900D02*
X0140780Y0334900D01*
X0140780Y0334102D02*
X0142465Y0334102D01*
X0142465Y0335699D02*
X0140780Y0335699D01*
X0140780Y0336497D02*
X0142465Y0336497D01*
X0146233Y0334900D02*
X0149765Y0334900D01*
X0149765Y0334102D02*
X0149202Y0334102D01*
X0149202Y0335699D02*
X0149765Y0335699D01*
X0149765Y0336497D02*
X0149202Y0336497D01*
X0149148Y0337296D02*
X0149765Y0337296D01*
X0150285Y0338094D02*
X0148554Y0338094D01*
X0156326Y0339928D02*
X0156326Y0344393D01*
X0158333Y0346400D01*
X0188333Y0346400D01*
X0190833Y0343900D01*
X0190833Y0342400D01*
X0190593Y0342640D01*
X0186896Y0342640D01*
X0186503Y0342246D01*
X0180833Y0342246D01*
X0180833Y0335554D02*
X0180833Y0332400D01*
X0179833Y0331400D01*
X0180833Y0332400D01*
X0179833Y0331400D02*
X0178333Y0331400D01*
X0175184Y0328250D01*
X0173058Y0328250D01*
X0173058Y0325101D02*
X0176286Y0325101D01*
X0180833Y0320554D01*
X0186503Y0320554D01*
X0186896Y0320160D01*
X0184114Y0317333D02*
X0184009Y0317333D01*
X0188833Y0316534D02*
X0137067Y0316534D01*
X0137067Y0315736D02*
X0188833Y0315736D01*
X0188833Y0314937D02*
X0137067Y0314937D01*
X0137067Y0314139D02*
X0188244Y0314139D01*
X0190833Y0313900D02*
X0188333Y0311400D01*
X0188333Y0295400D01*
X0175995Y0302161D02*
X0170333Y0302161D01*
X0170333Y0301363D02*
X0175541Y0301363D01*
X0175176Y0300564D02*
X0170333Y0300564D01*
X0170333Y0299766D02*
X0174885Y0299766D01*
X0174648Y0298967D02*
X0170333Y0298967D01*
X0171229Y0298169D02*
X0174473Y0298169D01*
X0174363Y0297370D02*
X0171567Y0297370D01*
X0171567Y0296572D02*
X0174304Y0296572D01*
X0174233Y0295773D02*
X0171567Y0295773D01*
X0171567Y0294975D02*
X0174198Y0294975D01*
X0174233Y0294176D02*
X0171567Y0294176D01*
X0170920Y0293378D02*
X0174233Y0293378D01*
X0174233Y0292579D02*
X0162433Y0292579D01*
X0162433Y0291781D02*
X0174233Y0291781D01*
X0174233Y0290982D02*
X0162433Y0290982D01*
X0162433Y0290184D02*
X0174233Y0290184D01*
X0174233Y0289385D02*
X0170563Y0289385D01*
X0170508Y0289417D02*
X0170152Y0289513D01*
X0168553Y0289513D01*
X0168553Y0287093D01*
X0168113Y0287093D01*
X0168113Y0289513D01*
X0166515Y0289513D01*
X0166159Y0289417D01*
X0165840Y0289233D01*
X0165579Y0288972D01*
X0165395Y0288653D01*
X0165299Y0288297D01*
X0165299Y0287093D01*
X0168113Y0287093D01*
X0168113Y0286652D01*
X0168553Y0286652D01*
X0168553Y0284232D01*
X0170152Y0284232D01*
X0170508Y0284328D01*
X0170827Y0284512D01*
X0171087Y0284773D01*
X0171272Y0285092D01*
X0171367Y0285448D01*
X0171367Y0286652D01*
X0168553Y0286652D01*
X0168553Y0287093D01*
X0171367Y0287093D01*
X0171367Y0288297D01*
X0171272Y0288653D01*
X0171087Y0288972D01*
X0170827Y0289233D01*
X0170508Y0289417D01*
X0171290Y0288587D02*
X0174233Y0288587D01*
X0174233Y0287788D02*
X0171367Y0287788D01*
X0171367Y0286191D02*
X0174233Y0286191D01*
X0174233Y0285393D02*
X0171352Y0285393D01*
X0170909Y0284594D02*
X0174233Y0284594D01*
X0174233Y0283796D02*
X0162433Y0283796D01*
X0162433Y0284594D02*
X0165758Y0284594D01*
X0165840Y0284512D02*
X0166159Y0284328D01*
X0166515Y0284232D01*
X0168113Y0284232D01*
X0168113Y0286652D01*
X0165299Y0286652D01*
X0165299Y0285448D01*
X0165395Y0285092D01*
X0165579Y0284773D01*
X0165840Y0284512D01*
X0165314Y0285393D02*
X0162433Y0285393D01*
X0162433Y0286191D02*
X0165299Y0286191D01*
X0165299Y0287788D02*
X0162433Y0287788D01*
X0162433Y0286990D02*
X0168113Y0286990D01*
X0168553Y0286990D02*
X0174233Y0286990D01*
X0168553Y0287788D02*
X0168113Y0287788D01*
X0168113Y0288587D02*
X0168553Y0288587D01*
X0168553Y0289385D02*
X0168113Y0289385D01*
X0166104Y0289385D02*
X0162433Y0289385D01*
X0162433Y0288587D02*
X0165377Y0288587D01*
X0168113Y0286191D02*
X0168553Y0286191D01*
X0168553Y0285393D02*
X0168113Y0285393D01*
X0168113Y0284594D02*
X0168553Y0284594D01*
X0165746Y0293378D02*
X0162433Y0293378D01*
X0162433Y0294176D02*
X0165099Y0294176D01*
X0165099Y0294975D02*
X0162469Y0294975D01*
X0162433Y0295773D02*
X0165099Y0295773D01*
X0165099Y0296572D02*
X0162363Y0296572D01*
X0162303Y0297370D02*
X0165099Y0297370D01*
X0165438Y0298169D02*
X0162194Y0298169D01*
X0162019Y0298967D02*
X0166333Y0298967D01*
X0166333Y0299766D02*
X0161782Y0299766D01*
X0161490Y0300564D02*
X0166333Y0300564D01*
X0166333Y0301363D02*
X0161126Y0301363D01*
X0160672Y0302161D02*
X0166333Y0302161D01*
X0166333Y0302960D02*
X0160249Y0302960D01*
X0159651Y0303758D02*
X0166333Y0303758D01*
X0166333Y0304557D02*
X0159074Y0304557D01*
X0158275Y0305355D02*
X0166333Y0305355D01*
X0166333Y0306154D02*
X0157477Y0306154D01*
X0156534Y0306952D02*
X0166333Y0306952D01*
X0166333Y0307751D02*
X0155072Y0307751D01*
X0153609Y0308549D02*
X0166333Y0308549D01*
X0166333Y0309348D02*
X0150535Y0309348D01*
X0153338Y0308549D02*
X0153472Y0308549D01*
X0146132Y0309348D02*
X0142714Y0309348D01*
X0141915Y0310146D02*
X0166751Y0310146D01*
X0167550Y0310945D02*
X0141117Y0310945D01*
X0140318Y0311743D02*
X0168348Y0311743D01*
X0169147Y0312542D02*
X0136584Y0312542D01*
X0137067Y0313340D02*
X0169945Y0313340D01*
X0170833Y0311400D02*
X0168333Y0308900D01*
X0168333Y0295928D01*
X0170333Y0302960D02*
X0176418Y0302960D01*
X0177015Y0303758D02*
X0170333Y0303758D01*
X0170333Y0304557D02*
X0177593Y0304557D01*
X0178391Y0305355D02*
X0170333Y0305355D01*
X0170333Y0306154D02*
X0179190Y0306154D01*
X0180133Y0306952D02*
X0170333Y0306952D01*
X0170333Y0307751D02*
X0181595Y0307751D01*
X0183057Y0308549D02*
X0170811Y0308549D01*
X0171610Y0309348D02*
X0186132Y0309348D01*
X0183328Y0308549D02*
X0183195Y0308549D01*
X0188333Y0311400D02*
X0170833Y0311400D01*
X0177657Y0317333D02*
X0136565Y0317333D01*
X0136052Y0318132D02*
X0135201Y0318132D01*
X0132887Y0318132D02*
X0132087Y0318132D01*
X0132087Y0318031D02*
X0132087Y0321000D01*
X0128922Y0321000D01*
X0128922Y0319247D01*
X0129017Y0318891D01*
X0129201Y0318572D01*
X0129462Y0318311D01*
X0129781Y0318127D01*
X0130137Y0318031D01*
X0132087Y0318031D01*
X0132087Y0318930D02*
X0132887Y0318930D01*
X0132887Y0319729D02*
X0132087Y0319729D01*
X0132087Y0320527D02*
X0132887Y0320527D01*
X0131102Y0317333D02*
X0127406Y0317333D01*
X0126607Y0318132D02*
X0129773Y0318132D01*
X0129006Y0318930D02*
X0125809Y0318930D01*
X0125010Y0319729D02*
X0128922Y0319729D01*
X0128922Y0320527D02*
X0124212Y0320527D01*
X0120833Y0321077D02*
X0120833Y0336400D01*
X0120833Y0336400D01*
X0120833Y0338400D01*
X0118833Y0338094D02*
X0109824Y0338094D01*
X0110567Y0337470D02*
X0108055Y0339578D01*
X0104973Y0340700D01*
X0101693Y0340700D01*
X0098612Y0339578D01*
X0098612Y0339578D01*
X0096099Y0337470D01*
X0095333Y0336144D01*
X0095333Y0362429D01*
X0095339Y0362412D01*
X0095339Y0362412D01*
X0095931Y0361081D01*
X0095931Y0361081D01*
X0096660Y0359819D01*
X0097516Y0358640D01*
X0098491Y0357558D01*
X0098491Y0357558D01*
X0098769Y0357307D01*
X0099574Y0356583D01*
X0099900Y0356346D01*
X0100752Y0355726D01*
X0100752Y0355726D01*
X0101135Y0355506D01*
X0102014Y0354998D01*
X0102014Y0354998D01*
X0102464Y0354798D01*
X0103345Y0354405D01*
X0103878Y0354232D01*
X0104731Y0353955D01*
X0105372Y0353819D01*
X0106156Y0353652D01*
X0107605Y0353500D01*
X0107933Y0353500D01*
X0107933Y0367000D01*
X0095333Y0367000D01*
X0095333Y0367800D01*
X0107933Y0367800D01*
X0107933Y0367000D01*
X0108733Y0367000D01*
X0108733Y0353500D01*
X0109062Y0353500D01*
X0110511Y0353652D01*
X0111936Y0353955D01*
X0113321Y0354405D01*
X0114652Y0354998D01*
X0115914Y0355726D01*
X0117093Y0356583D01*
X0118176Y0357558D01*
X0119150Y0358640D01*
X0119150Y0358640D01*
X0119164Y0358659D01*
X0120007Y0359819D01*
X0120007Y0359819D01*
X0120735Y0361081D01*
X0121328Y0362412D01*
X0121778Y0363797D01*
X0121778Y0363797D01*
X0122081Y0365223D01*
X0122233Y0366672D01*
X0122233Y0367000D01*
X0108733Y0367000D01*
X0108733Y0367800D01*
X0107933Y0367800D01*
X0107933Y0379400D01*
X0108733Y0379400D01*
X0108733Y0367800D01*
X0122233Y0367800D01*
X0122233Y0379400D01*
X0134233Y0379400D01*
X0134233Y0368183D01*
X0134177Y0368118D01*
X0134233Y0367325D01*
X0134233Y0366530D01*
X0134295Y0366469D01*
X0134311Y0366240D01*
X0134219Y0366096D01*
X0134372Y0365393D01*
X0134423Y0364675D01*
X0134552Y0364563D01*
X0134619Y0364256D01*
X0134548Y0364100D01*
X0134799Y0363426D01*
X0134952Y0362723D01*
X0135096Y0362630D01*
X0135206Y0362336D01*
X0135158Y0362172D01*
X0135503Y0361540D01*
X0135754Y0360866D01*
X0135910Y0360795D01*
X0136060Y0360519D01*
X0136036Y0360350D01*
X0136467Y0359774D01*
X0136812Y0359142D01*
X0136976Y0359094D01*
X0137164Y0358843D01*
X0137164Y0358672D01*
X0137673Y0358163D01*
X0138104Y0357587D01*
X0138274Y0357563D01*
X0138496Y0357340D01*
X0138520Y0357171D01*
X0139096Y0356740D01*
X0139605Y0356231D01*
X0139776Y0356231D01*
X0140028Y0356043D01*
X0140076Y0355879D01*
X0140707Y0355534D01*
X0141284Y0355103D01*
X0141453Y0355127D01*
X0141728Y0354976D01*
X0141799Y0354821D01*
X0142474Y0354569D01*
X0143105Y0354224D01*
X0143269Y0354273D01*
X0143564Y0354163D01*
X0143656Y0354019D01*
X0144359Y0353866D01*
X0145034Y0353615D01*
X0145189Y0353686D01*
X0145496Y0353619D01*
X0145608Y0353490D01*
X0146326Y0353438D01*
X0146502Y0353400D01*
X0122505Y0353400D01*
X0120005Y0350900D01*
X0120005Y0350900D01*
X0118833Y0349728D01*
X0118833Y0320249D01*
X0124399Y0314683D01*
X0124399Y0312400D01*
X0122874Y0312400D01*
X0122874Y0312638D01*
X0121937Y0313575D01*
X0117068Y0313575D01*
X0116131Y0312638D01*
X0116131Y0308162D01*
X0117068Y0307225D01*
X0121937Y0307225D01*
X0122874Y0308162D01*
X0122874Y0308400D01*
X0124399Y0308400D01*
X0124399Y0304422D01*
X0125336Y0303485D01*
X0127090Y0303485D01*
X0126833Y0303228D01*
X0126833Y0298512D01*
X0125702Y0298512D01*
X0124765Y0297575D01*
X0124765Y0291918D01*
X0125425Y0291259D01*
X0125245Y0291079D01*
X0125060Y0290759D01*
X0124965Y0290403D01*
X0124965Y0288454D01*
X0127933Y0288454D01*
X0127933Y0287654D01*
X0124965Y0287654D01*
X0124965Y0285704D01*
X0125060Y0285348D01*
X0125245Y0285029D01*
X0125505Y0284768D01*
X0125824Y0284584D01*
X0126180Y0284488D01*
X0127933Y0284488D01*
X0127933Y0287653D01*
X0128733Y0287653D01*
X0128733Y0284488D01*
X0130486Y0284488D01*
X0130842Y0284584D01*
X0131161Y0284768D01*
X0131422Y0285029D01*
X0131606Y0285348D01*
X0131702Y0285704D01*
X0131702Y0287654D01*
X0128733Y0287654D01*
X0128733Y0288454D01*
X0131702Y0288454D01*
X0131702Y0290403D01*
X0131606Y0290759D01*
X0131422Y0291079D01*
X0131242Y0291259D01*
X0131902Y0291918D01*
X0131902Y0297575D01*
X0130965Y0298512D01*
X0130833Y0298512D01*
X0130833Y0301572D01*
X0131662Y0302400D01*
X0132294Y0303032D01*
X0136130Y0303032D01*
X0137067Y0303970D01*
X0137067Y0307775D01*
X0136442Y0308400D01*
X0138005Y0308400D01*
X0139810Y0306595D01*
X0139776Y0306569D01*
X0139605Y0306569D01*
X0139096Y0306060D01*
X0138520Y0305629D01*
X0138496Y0305460D01*
X0138274Y0305237D01*
X0138104Y0305213D01*
X0137673Y0304637D01*
X0137164Y0304128D01*
X0137164Y0303957D01*
X0136976Y0303706D01*
X0136812Y0303658D01*
X0136467Y0303026D01*
X0136036Y0302450D01*
X0136060Y0302281D01*
X0135910Y0302005D01*
X0135754Y0301934D01*
X0135503Y0301260D01*
X0135158Y0300628D01*
X0135206Y0300464D01*
X0135096Y0300170D01*
X0134952Y0300077D01*
X0134799Y0299374D01*
X0134548Y0298700D01*
X0134619Y0298544D01*
X0134552Y0298237D01*
X0134423Y0298125D01*
X0134372Y0297407D01*
X0134219Y0296704D01*
X0134311Y0296560D01*
X0134295Y0296331D01*
X0134233Y0296270D01*
X0134233Y0295475D01*
X0134177Y0294682D01*
X0134233Y0294617D01*
X0134233Y0283400D01*
X0122233Y0283400D01*
X0122233Y0295000D01*
X0108733Y0295000D01*
X0108733Y0283400D01*
X0107933Y0283400D01*
X0107933Y0295000D01*
X0095333Y0295000D01*
X0095333Y0295800D01*
X0107933Y0295800D01*
X0107933Y0295000D01*
X0108733Y0295000D01*
X0108733Y0295800D01*
X0107933Y0295800D01*
X0107933Y0309300D01*
X0107605Y0309300D01*
X0106156Y0309148D01*
X0104731Y0308845D01*
X0103345Y0308395D01*
X0102014Y0307802D01*
X0100752Y0307074D01*
X0099574Y0306217D01*
X0098491Y0305242D01*
X0098394Y0305134D01*
X0098683Y0305833D01*
X0098683Y0306967D01*
X0098249Y0308014D01*
X0097448Y0308816D01*
X0096400Y0309250D01*
X0095333Y0309250D01*
X0095333Y0326656D01*
X0096099Y0325330D01*
X0098612Y0323222D01*
X0101693Y0322100D01*
X0104973Y0322100D01*
X0108055Y0323222D01*
X0110567Y0325330D01*
X0112207Y0328170D01*
X0112207Y0328170D01*
X0112777Y0331400D01*
X0112207Y0334630D01*
X0110567Y0337470D01*
X0110567Y0337470D01*
X0110668Y0337296D02*
X0118833Y0337296D01*
X0118833Y0336497D02*
X0111129Y0336497D01*
X0111590Y0335699D02*
X0118833Y0335699D01*
X0118833Y0334900D02*
X0112051Y0334900D01*
X0112207Y0334630D02*
X0112207Y0334630D01*
X0112300Y0334102D02*
X0118833Y0334102D01*
X0118833Y0333303D02*
X0112441Y0333303D01*
X0112582Y0332505D02*
X0118833Y0332505D01*
X0118833Y0331706D02*
X0112723Y0331706D01*
X0112777Y0331400D02*
X0112777Y0331400D01*
X0112690Y0330908D02*
X0118833Y0330908D01*
X0118833Y0330109D02*
X0112549Y0330109D01*
X0112408Y0329311D02*
X0118833Y0329311D01*
X0118833Y0328512D02*
X0112268Y0328512D01*
X0111944Y0327714D02*
X0118833Y0327714D01*
X0118833Y0326915D02*
X0111483Y0326915D01*
X0111022Y0326117D02*
X0118833Y0326117D01*
X0118833Y0325318D02*
X0110553Y0325318D01*
X0110567Y0325330D02*
X0110567Y0325330D01*
X0110567Y0325330D01*
X0109602Y0324520D02*
X0118833Y0324520D01*
X0118833Y0323721D02*
X0108650Y0323721D01*
X0108055Y0323222D02*
X0108055Y0323222D01*
X0107233Y0322923D02*
X0118833Y0322923D01*
X0118833Y0322124D02*
X0105039Y0322124D01*
X0101627Y0322124D02*
X0095333Y0322124D01*
X0095333Y0321326D02*
X0118833Y0321326D01*
X0118833Y0320527D02*
X0095333Y0320527D01*
X0095333Y0319729D02*
X0119354Y0319729D01*
X0120152Y0318930D02*
X0095333Y0318930D01*
X0095333Y0318132D02*
X0120951Y0318132D01*
X0121749Y0317333D02*
X0095333Y0317333D01*
X0095333Y0316534D02*
X0122548Y0316534D01*
X0123346Y0315736D02*
X0095333Y0315736D01*
X0095333Y0314937D02*
X0124145Y0314937D01*
X0124399Y0314139D02*
X0095333Y0314139D01*
X0095333Y0313340D02*
X0116834Y0313340D01*
X0116131Y0312542D02*
X0095333Y0312542D01*
X0095333Y0311743D02*
X0116131Y0311743D01*
X0116131Y0310945D02*
X0095333Y0310945D01*
X0095333Y0310146D02*
X0116131Y0310146D01*
X0116131Y0309348D02*
X0095333Y0309348D01*
X0097714Y0308549D02*
X0103822Y0308549D01*
X0101926Y0307751D02*
X0098359Y0307751D01*
X0098683Y0306952D02*
X0100586Y0306952D01*
X0099503Y0306154D02*
X0098683Y0306154D01*
X0098617Y0305355D02*
X0098485Y0305355D01*
X0098491Y0305242D02*
X0098491Y0305242D01*
X0107933Y0305355D02*
X0108733Y0305355D01*
X0108733Y0304557D02*
X0107933Y0304557D01*
X0107933Y0303758D02*
X0108733Y0303758D01*
X0108733Y0302960D02*
X0107933Y0302960D01*
X0107933Y0302161D02*
X0108733Y0302161D01*
X0108733Y0301363D02*
X0107933Y0301363D01*
X0107933Y0300564D02*
X0108733Y0300564D01*
X0108733Y0299766D02*
X0107933Y0299766D01*
X0107933Y0298967D02*
X0108733Y0298967D01*
X0108733Y0298169D02*
X0107933Y0298169D01*
X0107933Y0297370D02*
X0108733Y0297370D01*
X0108733Y0296572D02*
X0107933Y0296572D01*
X0107933Y0295773D02*
X0095333Y0295773D01*
X0107933Y0294975D02*
X0108733Y0294975D01*
X0108733Y0295773D02*
X0124765Y0295773D01*
X0124765Y0294975D02*
X0122233Y0294975D01*
X0122233Y0294176D02*
X0124765Y0294176D01*
X0124765Y0293378D02*
X0122233Y0293378D01*
X0122233Y0292579D02*
X0124765Y0292579D01*
X0124903Y0291781D02*
X0122233Y0291781D01*
X0122233Y0290982D02*
X0125189Y0290982D01*
X0124965Y0290184D02*
X0122233Y0290184D01*
X0122233Y0289385D02*
X0124965Y0289385D01*
X0124965Y0288587D02*
X0122233Y0288587D01*
X0122233Y0287788D02*
X0127933Y0287788D01*
X0127933Y0286990D02*
X0128733Y0286990D01*
X0128733Y0287788D02*
X0134233Y0287788D01*
X0134233Y0286990D02*
X0131702Y0286990D01*
X0131702Y0286191D02*
X0134233Y0286191D01*
X0134233Y0285393D02*
X0131618Y0285393D01*
X0130860Y0284594D02*
X0134233Y0284594D01*
X0134233Y0283796D02*
X0122233Y0283796D01*
X0122233Y0284594D02*
X0125806Y0284594D01*
X0125048Y0285393D02*
X0122233Y0285393D01*
X0122233Y0286191D02*
X0124965Y0286191D01*
X0124965Y0286990D02*
X0122233Y0286990D01*
X0127933Y0286191D02*
X0128733Y0286191D01*
X0128733Y0285393D02*
X0127933Y0285393D01*
X0127933Y0284594D02*
X0128733Y0284594D01*
X0131702Y0288587D02*
X0134233Y0288587D01*
X0134233Y0289385D02*
X0131702Y0289385D01*
X0131702Y0290184D02*
X0134233Y0290184D01*
X0134233Y0290982D02*
X0131478Y0290982D01*
X0131764Y0291781D02*
X0134233Y0291781D01*
X0134233Y0292579D02*
X0131902Y0292579D01*
X0131902Y0293378D02*
X0134233Y0293378D01*
X0134233Y0294176D02*
X0131902Y0294176D01*
X0131902Y0294975D02*
X0134198Y0294975D01*
X0134233Y0295773D02*
X0131902Y0295773D01*
X0131902Y0296572D02*
X0134304Y0296572D01*
X0134363Y0297370D02*
X0131902Y0297370D01*
X0131308Y0298169D02*
X0134473Y0298169D01*
X0134648Y0298967D02*
X0130833Y0298967D01*
X0130833Y0299766D02*
X0134885Y0299766D01*
X0135176Y0300564D02*
X0130833Y0300564D01*
X0130833Y0301363D02*
X0135541Y0301363D01*
X0135995Y0302161D02*
X0131423Y0302161D01*
X0132222Y0302960D02*
X0136418Y0302960D01*
X0136856Y0303758D02*
X0137015Y0303758D01*
X0137067Y0304557D02*
X0137593Y0304557D01*
X0137067Y0305355D02*
X0138391Y0305355D01*
X0139190Y0306154D02*
X0137067Y0306154D01*
X0137067Y0306952D02*
X0139453Y0306952D01*
X0138654Y0307751D02*
X0137067Y0307751D01*
X0138833Y0310400D02*
X0148333Y0300900D01*
X0148333Y0295400D01*
X0138833Y0310400D02*
X0119503Y0310400D01*
X0116131Y0308549D02*
X0112845Y0308549D01*
X0112691Y0308600D02*
X0111936Y0308845D01*
X0111936Y0308845D01*
X0111191Y0309003D01*
X0110511Y0309148D01*
X0109062Y0309300D01*
X0108733Y0309300D01*
X0108733Y0295800D01*
X0122233Y0295800D01*
X0122233Y0296128D01*
X0122081Y0297577D01*
X0122081Y0297577D01*
X0121778Y0299002D01*
X0121778Y0299003D01*
X0121328Y0300388D01*
X0121328Y0300388D01*
X0120735Y0301719D01*
X0120007Y0302981D01*
X0119150Y0304160D01*
X0118176Y0305242D01*
X0118176Y0305242D01*
X0117832Y0305551D01*
X0117093Y0306217D01*
X0117093Y0306217D01*
X0116693Y0306508D01*
X0115914Y0307074D01*
X0115450Y0307342D01*
X0114652Y0307802D01*
X0114112Y0308042D01*
X0113321Y0308395D01*
X0112691Y0308600D01*
X0113321Y0308395D02*
X0113321Y0308395D01*
X0114652Y0307802D02*
X0114652Y0307802D01*
X0114741Y0307751D02*
X0116543Y0307751D01*
X0116081Y0306952D02*
X0124399Y0306952D01*
X0124399Y0306154D02*
X0117163Y0306154D01*
X0118050Y0305355D02*
X0124399Y0305355D01*
X0124399Y0304557D02*
X0118793Y0304557D01*
X0119150Y0304160D02*
X0119150Y0304160D01*
X0119442Y0303758D02*
X0125063Y0303758D01*
X0126833Y0302960D02*
X0120019Y0302960D01*
X0120007Y0302981D02*
X0120007Y0302981D01*
X0120480Y0302161D02*
X0126833Y0302161D01*
X0126833Y0301363D02*
X0120894Y0301363D01*
X0120735Y0301719D02*
X0120735Y0301719D01*
X0121249Y0300564D02*
X0126833Y0300564D01*
X0126833Y0299766D02*
X0121530Y0299766D01*
X0121786Y0298967D02*
X0126833Y0298967D01*
X0125359Y0298169D02*
X0121955Y0298169D01*
X0122103Y0297370D02*
X0124765Y0297370D01*
X0124765Y0296572D02*
X0122187Y0296572D01*
X0128333Y0294746D02*
X0128833Y0295246D01*
X0128833Y0302400D01*
X0130833Y0304400D01*
X0130833Y0305872D01*
X0128558Y0305872D01*
X0127770Y0306660D01*
X0130833Y0305872D02*
X0133833Y0305872D01*
X0124399Y0307751D02*
X0122463Y0307751D01*
X0122874Y0312542D02*
X0124399Y0312542D01*
X0124399Y0313340D02*
X0122171Y0313340D01*
X0127770Y0314140D02*
X0128558Y0314928D01*
X0133833Y0314928D01*
X0127770Y0314140D02*
X0120833Y0321077D01*
X0122833Y0324520D02*
X0123563Y0324520D01*
X0135458Y0324520D02*
X0135903Y0324520D01*
X0136005Y0329311D02*
X0135462Y0329311D01*
X0138392Y0331459D02*
X0138392Y0334648D01*
X0135833Y0334648D02*
X0135833Y0337524D01*
X0135833Y0334648D01*
X0135833Y0334648D01*
X0135833Y0334900D02*
X0135833Y0334900D01*
X0135833Y0335699D02*
X0135833Y0335699D01*
X0135833Y0336497D02*
X0135833Y0336497D01*
X0135833Y0337296D02*
X0135833Y0337296D01*
X0135578Y0338094D02*
X0136596Y0338094D01*
X0122833Y0345281D02*
X0154386Y0345281D01*
X0155184Y0346079D02*
X0122833Y0346079D01*
X0122833Y0346878D02*
X0155983Y0346878D01*
X0156781Y0347676D02*
X0122833Y0347676D01*
X0123237Y0348475D02*
X0188430Y0348475D01*
X0187631Y0349273D02*
X0124035Y0349273D01*
X0121572Y0352468D02*
X0095333Y0352468D01*
X0095333Y0353266D02*
X0122371Y0353266D01*
X0120774Y0351669D02*
X0095333Y0351669D01*
X0095333Y0350870D02*
X0119975Y0350870D01*
X0119177Y0350072D02*
X0095333Y0350072D01*
X0095333Y0349273D02*
X0118833Y0349273D01*
X0118833Y0348475D02*
X0095333Y0348475D01*
X0095333Y0347676D02*
X0118833Y0347676D01*
X0118833Y0346878D02*
X0095333Y0346878D01*
X0095333Y0346079D02*
X0118833Y0346079D01*
X0118833Y0345281D02*
X0095333Y0345281D01*
X0095333Y0344482D02*
X0118833Y0344482D01*
X0118833Y0343684D02*
X0095333Y0343684D01*
X0095333Y0342885D02*
X0118833Y0342885D01*
X0118833Y0342087D02*
X0095333Y0342087D01*
X0095333Y0341288D02*
X0118833Y0341288D01*
X0118833Y0340490D02*
X0105551Y0340490D01*
X0107744Y0339691D02*
X0118833Y0339691D01*
X0118833Y0338893D02*
X0108872Y0338893D01*
X0108055Y0339578D02*
X0108055Y0339578D01*
X0101116Y0340490D02*
X0095333Y0340490D01*
X0095333Y0339691D02*
X0098922Y0339691D01*
X0097795Y0338893D02*
X0095333Y0338893D01*
X0095333Y0338094D02*
X0096843Y0338094D01*
X0096099Y0337470D02*
X0096099Y0337470D01*
X0096099Y0337470D01*
X0095999Y0337296D02*
X0095333Y0337296D01*
X0095333Y0336497D02*
X0095538Y0336497D01*
X0095645Y0326117D02*
X0095333Y0326117D01*
X0095333Y0325318D02*
X0096113Y0325318D01*
X0096099Y0325330D02*
X0096099Y0325330D01*
X0095333Y0324520D02*
X0097065Y0324520D01*
X0098016Y0323721D02*
X0095333Y0323721D01*
X0095333Y0322923D02*
X0099433Y0322923D01*
X0098612Y0323222D02*
X0098612Y0323222D01*
X0107933Y0308549D02*
X0108733Y0308549D01*
X0108733Y0307751D02*
X0107933Y0307751D01*
X0107933Y0306952D02*
X0108733Y0306952D01*
X0108733Y0306154D02*
X0107933Y0306154D01*
X0110511Y0309148D02*
X0110511Y0309148D01*
X0115914Y0307074D02*
X0115914Y0307074D01*
X0118176Y0305242D02*
X0118176Y0305242D01*
X0108733Y0294176D02*
X0107933Y0294176D01*
X0107933Y0293378D02*
X0108733Y0293378D01*
X0108733Y0292579D02*
X0107933Y0292579D01*
X0107933Y0291781D02*
X0108733Y0291781D01*
X0108733Y0290982D02*
X0107933Y0290982D01*
X0107933Y0290184D02*
X0108733Y0290184D01*
X0108733Y0289385D02*
X0107933Y0289385D01*
X0107933Y0288587D02*
X0108733Y0288587D01*
X0108733Y0287788D02*
X0107933Y0287788D01*
X0107933Y0286990D02*
X0108733Y0286990D01*
X0108733Y0286191D02*
X0107933Y0286191D01*
X0107933Y0285393D02*
X0108733Y0285393D01*
X0108733Y0284594D02*
X0107933Y0284594D01*
X0107933Y0283796D02*
X0108733Y0283796D01*
X0156286Y0325101D02*
X0163609Y0325101D01*
X0159333Y0327900D02*
X0157833Y0327900D01*
X0159333Y0327900D02*
X0162833Y0331400D01*
X0163609Y0331400D01*
X0163609Y0334550D02*
X0168184Y0334550D01*
X0168333Y0334400D01*
X0163609Y0334550D02*
X0158333Y0334550D01*
X0159376Y0340490D02*
X0160533Y0340490D01*
X0160533Y0341288D02*
X0159064Y0341288D01*
X0158481Y0342087D02*
X0160533Y0342087D01*
X0164834Y0350072D02*
X0186833Y0350072D01*
X0186333Y0350870D02*
X0165632Y0350870D01*
X0166431Y0351669D02*
X0186333Y0351669D01*
X0186333Y0352468D02*
X0166881Y0352468D01*
X0166881Y0353266D02*
X0186333Y0353266D01*
X0188333Y0351400D02*
X0188333Y0367400D01*
X0177155Y0358856D02*
X0175355Y0358856D01*
X0175355Y0359654D02*
X0176533Y0359654D01*
X0176051Y0360453D02*
X0175355Y0360453D01*
X0175289Y0361251D02*
X0175611Y0361251D01*
X0175225Y0362050D02*
X0174490Y0362050D01*
X0174925Y0362848D02*
X0170666Y0362848D01*
X0170333Y0363647D02*
X0174717Y0363647D01*
X0174578Y0364445D02*
X0171122Y0364445D01*
X0171902Y0365244D02*
X0174382Y0365244D01*
X0174230Y0366042D02*
X0171902Y0366042D01*
X0171902Y0366841D02*
X0174233Y0366841D01*
X0174211Y0367639D02*
X0171902Y0367639D01*
X0171902Y0368438D02*
X0174233Y0368438D01*
X0174233Y0369236D02*
X0171902Y0369236D01*
X0171902Y0370035D02*
X0174233Y0370035D01*
X0174233Y0370833D02*
X0171902Y0370833D01*
X0171332Y0371632D02*
X0174233Y0371632D01*
X0174233Y0372430D02*
X0171702Y0372430D01*
X0171702Y0373229D02*
X0174233Y0373229D01*
X0174233Y0374027D02*
X0171702Y0374027D01*
X0171702Y0375624D02*
X0174233Y0375624D01*
X0174233Y0374826D02*
X0168733Y0374826D01*
X0168733Y0375624D02*
X0167933Y0375624D01*
X0167933Y0375146D02*
X0167933Y0378312D01*
X0166180Y0378312D01*
X0165824Y0378216D01*
X0165505Y0378032D01*
X0165245Y0377771D01*
X0165060Y0377452D01*
X0164965Y0377096D01*
X0164965Y0375146D01*
X0167933Y0375146D01*
X0167933Y0374826D02*
X0162433Y0374826D01*
X0162433Y0375624D02*
X0164965Y0375624D01*
X0164965Y0376423D02*
X0162433Y0376423D01*
X0162433Y0377221D02*
X0164998Y0377221D01*
X0165493Y0378020D02*
X0162433Y0378020D01*
X0162433Y0378818D02*
X0174233Y0378818D01*
X0174233Y0378020D02*
X0171174Y0378020D01*
X0171668Y0377221D02*
X0174233Y0377221D01*
X0174233Y0376423D02*
X0171702Y0376423D01*
X0168733Y0376423D02*
X0167933Y0376423D01*
X0167933Y0377221D02*
X0168733Y0377221D01*
X0168733Y0378020D02*
X0167933Y0378020D01*
X0164965Y0374027D02*
X0162433Y0374027D01*
X0162433Y0373229D02*
X0164965Y0373229D01*
X0164965Y0372430D02*
X0162433Y0372430D01*
X0162433Y0371632D02*
X0165334Y0371632D01*
X0164765Y0370833D02*
X0162433Y0370833D01*
X0162433Y0370035D02*
X0164765Y0370035D01*
X0164765Y0369236D02*
X0162433Y0369236D01*
X0162433Y0368438D02*
X0164765Y0368438D01*
X0164765Y0367639D02*
X0162456Y0367639D01*
X0162433Y0366841D02*
X0164765Y0366841D01*
X0164765Y0366042D02*
X0162436Y0366042D01*
X0162284Y0365244D02*
X0164765Y0365244D01*
X0165545Y0364445D02*
X0162089Y0364445D01*
X0161950Y0363647D02*
X0166333Y0363647D01*
X0166333Y0362848D02*
X0161742Y0362848D01*
X0161442Y0362050D02*
X0162176Y0362050D01*
X0161378Y0361251D02*
X0161056Y0361251D01*
X0161312Y0360453D02*
X0160616Y0360453D01*
X0160134Y0359654D02*
X0161312Y0359654D01*
X0161312Y0358856D02*
X0159512Y0358856D01*
X0158914Y0358057D02*
X0161312Y0358057D01*
X0161312Y0357259D02*
X0158159Y0357259D01*
X0157291Y0356460D02*
X0161467Y0356460D01*
X0162265Y0355662D02*
X0156193Y0355662D01*
X0154886Y0354863D02*
X0162881Y0354863D01*
X0162881Y0354065D02*
X0153040Y0354065D01*
X0143627Y0354065D02*
X0112272Y0354065D01*
X0114349Y0354863D02*
X0141780Y0354863D01*
X0140473Y0355662D02*
X0115802Y0355662D01*
X0116924Y0356460D02*
X0139376Y0356460D01*
X0138508Y0357259D02*
X0117843Y0357259D01*
X0118176Y0357558D02*
X0118176Y0357558D01*
X0118625Y0358057D02*
X0137752Y0358057D01*
X0137155Y0358856D02*
X0119307Y0358856D01*
X0119887Y0359654D02*
X0136533Y0359654D01*
X0136051Y0360453D02*
X0120373Y0360453D01*
X0120735Y0361081D02*
X0120735Y0361081D01*
X0120811Y0361251D02*
X0135611Y0361251D01*
X0135225Y0362050D02*
X0121167Y0362050D01*
X0121328Y0362412D02*
X0121328Y0362412D01*
X0121470Y0362848D02*
X0134925Y0362848D01*
X0134717Y0363647D02*
X0121729Y0363647D01*
X0121916Y0364445D02*
X0134578Y0364445D01*
X0134382Y0365244D02*
X0122083Y0365244D01*
X0122081Y0365223D02*
X0122081Y0365223D01*
X0122167Y0366042D02*
X0134230Y0366042D01*
X0134233Y0366841D02*
X0122233Y0366841D01*
X0122233Y0368438D02*
X0134233Y0368438D01*
X0134233Y0369236D02*
X0122233Y0369236D01*
X0122233Y0370035D02*
X0134233Y0370035D01*
X0134233Y0370833D02*
X0122233Y0370833D01*
X0122233Y0371632D02*
X0134233Y0371632D01*
X0134233Y0372430D02*
X0122233Y0372430D01*
X0122233Y0373229D02*
X0134233Y0373229D01*
X0134233Y0374027D02*
X0122233Y0374027D01*
X0122233Y0374826D02*
X0134233Y0374826D01*
X0134233Y0375624D02*
X0122233Y0375624D01*
X0122233Y0376423D02*
X0134233Y0376423D01*
X0134233Y0377221D02*
X0122233Y0377221D01*
X0122233Y0378020D02*
X0134233Y0378020D01*
X0134233Y0378818D02*
X0122233Y0378818D01*
X0108733Y0378818D02*
X0107933Y0378818D01*
X0107933Y0378020D02*
X0108733Y0378020D01*
X0108733Y0377221D02*
X0107933Y0377221D01*
X0107933Y0376423D02*
X0108733Y0376423D01*
X0108733Y0375624D02*
X0107933Y0375624D01*
X0107933Y0374826D02*
X0108733Y0374826D01*
X0108733Y0374027D02*
X0107933Y0374027D01*
X0107933Y0373229D02*
X0108733Y0373229D01*
X0108733Y0372430D02*
X0107933Y0372430D01*
X0107933Y0371632D02*
X0108733Y0371632D01*
X0108733Y0370833D02*
X0107933Y0370833D01*
X0107933Y0370035D02*
X0108733Y0370035D01*
X0108733Y0369236D02*
X0107933Y0369236D01*
X0107933Y0368438D02*
X0108733Y0368438D01*
X0108733Y0367639D02*
X0134211Y0367639D01*
X0108733Y0366841D02*
X0107933Y0366841D01*
X0107933Y0367639D02*
X0095333Y0367639D01*
X0095333Y0362050D02*
X0095500Y0362050D01*
X0095333Y0361251D02*
X0095856Y0361251D01*
X0096294Y0360453D02*
X0095333Y0360453D01*
X0095333Y0359654D02*
X0096780Y0359654D01*
X0096660Y0359819D02*
X0096660Y0359819D01*
X0097360Y0358856D02*
X0095333Y0358856D01*
X0095333Y0358057D02*
X0098041Y0358057D01*
X0098491Y0357558D02*
X0098491Y0357558D01*
X0098823Y0357259D02*
X0095333Y0357259D01*
X0095333Y0356460D02*
X0099743Y0356460D01*
X0099574Y0356583D02*
X0099574Y0356583D01*
X0100865Y0355662D02*
X0095333Y0355662D01*
X0095333Y0354863D02*
X0102317Y0354863D01*
X0103345Y0354405D02*
X0103345Y0354405D01*
X0104394Y0354065D02*
X0095333Y0354065D01*
X0097516Y0358640D02*
X0097516Y0358640D01*
X0104731Y0353955D02*
X0104731Y0353955D01*
X0106156Y0353652D02*
X0106156Y0353652D01*
X0107933Y0354065D02*
X0108733Y0354065D01*
X0108733Y0354863D02*
X0107933Y0354863D01*
X0107933Y0355662D02*
X0108733Y0355662D01*
X0108733Y0356460D02*
X0107933Y0356460D01*
X0107933Y0357259D02*
X0108733Y0357259D01*
X0108733Y0358057D02*
X0107933Y0358057D01*
X0107933Y0358856D02*
X0108733Y0358856D01*
X0108733Y0359654D02*
X0107933Y0359654D01*
X0107933Y0360453D02*
X0108733Y0360453D01*
X0108733Y0361251D02*
X0107933Y0361251D01*
X0107933Y0362050D02*
X0108733Y0362050D01*
X0108733Y0362848D02*
X0107933Y0362848D01*
X0107933Y0363647D02*
X0108733Y0363647D01*
X0108733Y0364445D02*
X0107933Y0364445D01*
X0107933Y0365244D02*
X0108733Y0365244D01*
X0108733Y0366042D02*
X0107933Y0366042D01*
X0166881Y0354863D02*
X0181780Y0354863D01*
X0180473Y0355662D02*
X0174401Y0355662D01*
X0175200Y0356460D02*
X0179376Y0356460D01*
X0178508Y0357259D02*
X0175355Y0357259D01*
X0175355Y0358057D02*
X0177752Y0358057D01*
X0171786Y0358900D02*
X0168333Y0362353D01*
X0168333Y0368054D01*
X0168294Y0356460D02*
X0168372Y0356460D01*
X0169171Y0355662D02*
X0167496Y0355662D01*
X0166881Y0354065D02*
X0183627Y0354065D01*
X0188333Y0351400D02*
X0195164Y0344569D01*
X0195164Y0342400D01*
X0195318Y0342246D01*
X0203333Y0342246D01*
X0203333Y0335554D02*
X0203333Y0331400D01*
X0198333Y0331400D01*
X0195164Y0329231D02*
X0190833Y0324900D01*
X0190833Y0313900D01*
X0192304Y0312542D02*
X0206333Y0312542D01*
X0206333Y0313340D02*
X0192833Y0313340D01*
X0192833Y0313072D02*
X0192833Y0320725D01*
X0195510Y0320725D01*
X0196510Y0319725D01*
X0197682Y0318554D01*
X0199765Y0318554D01*
X0199765Y0317725D01*
X0200702Y0316788D01*
X0205965Y0316788D01*
X0206333Y0317157D01*
X0206333Y0298768D01*
X0206037Y0298768D01*
X0205099Y0297830D01*
X0205099Y0294025D01*
X0206037Y0293087D01*
X0210630Y0293087D01*
X0211567Y0294025D01*
X0211567Y0297830D01*
X0210630Y0298768D01*
X0210333Y0298768D01*
X0210333Y0318554D01*
X0213315Y0318554D01*
X0218333Y0323572D01*
X0226333Y0315572D01*
X0226333Y0309363D01*
X0226326Y0309362D01*
X0225608Y0309310D01*
X0225496Y0309181D01*
X0225189Y0309114D01*
X0225034Y0309185D01*
X0224359Y0308934D01*
X0223656Y0308781D01*
X0223564Y0308637D01*
X0223269Y0308527D01*
X0223105Y0308576D01*
X0222474Y0308231D01*
X0221799Y0307979D01*
X0221728Y0307824D01*
X0221453Y0307673D01*
X0221284Y0307697D01*
X0220707Y0307266D01*
X0220076Y0306921D01*
X0220028Y0306757D01*
X0219776Y0306569D01*
X0219605Y0306569D01*
X0219096Y0306060D01*
X0218520Y0305629D01*
X0218496Y0305460D01*
X0218274Y0305237D01*
X0218104Y0305213D01*
X0217673Y0304637D01*
X0217164Y0304128D01*
X0217164Y0303957D01*
X0216976Y0303706D01*
X0216812Y0303658D01*
X0216467Y0303026D01*
X0216036Y0302450D01*
X0216060Y0302281D01*
X0215910Y0302005D01*
X0215754Y0301934D01*
X0215503Y0301260D01*
X0215158Y0300628D01*
X0215206Y0300464D01*
X0215096Y0300170D01*
X0214952Y0300077D01*
X0214799Y0299374D01*
X0214548Y0298700D01*
X0214619Y0298544D01*
X0214552Y0298237D01*
X0214423Y0298125D01*
X0214372Y0297407D01*
X0214219Y0296704D01*
X0214311Y0296560D01*
X0214295Y0296331D01*
X0214233Y0296270D01*
X0214233Y0295475D01*
X0214177Y0294682D01*
X0214233Y0294617D01*
X0214233Y0283400D01*
X0202433Y0283400D01*
X0202433Y0294617D01*
X0202490Y0294682D01*
X0202433Y0295475D01*
X0202433Y0296270D01*
X0202372Y0296331D01*
X0202356Y0296560D01*
X0202448Y0296704D01*
X0202295Y0297407D01*
X0202244Y0298125D01*
X0202115Y0298237D01*
X0202048Y0298544D01*
X0202119Y0298700D01*
X0201867Y0299374D01*
X0201714Y0300077D01*
X0201571Y0300170D01*
X0201461Y0300464D01*
X0201509Y0300628D01*
X0201164Y0301260D01*
X0200913Y0301934D01*
X0200757Y0302005D01*
X0200606Y0302281D01*
X0200631Y0302450D01*
X0200200Y0303026D01*
X0199855Y0303658D01*
X0199691Y0303706D01*
X0199502Y0303957D01*
X0199502Y0304128D01*
X0198993Y0304637D01*
X0198562Y0305213D01*
X0198393Y0305237D01*
X0198171Y0305460D01*
X0198146Y0305629D01*
X0197570Y0306060D01*
X0197062Y0306569D01*
X0196891Y0306569D01*
X0196639Y0306757D01*
X0196591Y0306921D01*
X0195959Y0307266D01*
X0195383Y0307697D01*
X0195214Y0307673D01*
X0194938Y0307824D01*
X0194867Y0307979D01*
X0194193Y0308231D01*
X0193561Y0308576D01*
X0193397Y0308527D01*
X0193103Y0308637D01*
X0193010Y0308781D01*
X0192307Y0308934D01*
X0191633Y0309185D01*
X0191478Y0309114D01*
X0191170Y0309181D01*
X0191059Y0309310D01*
X0190341Y0309362D01*
X0190333Y0309363D01*
X0190333Y0310572D01*
X0191662Y0311900D01*
X0192833Y0313072D01*
X0192833Y0314139D02*
X0206333Y0314139D01*
X0206333Y0314937D02*
X0192833Y0314937D01*
X0192833Y0315736D02*
X0206333Y0315736D01*
X0206333Y0316534D02*
X0192833Y0316534D01*
X0192833Y0317333D02*
X0200157Y0317333D01*
X0199765Y0318132D02*
X0192833Y0318132D01*
X0192833Y0318930D02*
X0197306Y0318930D01*
X0196507Y0319729D02*
X0192833Y0319729D01*
X0192833Y0320527D02*
X0195709Y0320527D01*
X0198510Y0320554D02*
X0195164Y0323900D01*
X0198510Y0320554D02*
X0203333Y0320554D01*
X0208333Y0320554D01*
X0208333Y0295928D01*
X0205099Y0295773D02*
X0202433Y0295773D01*
X0202469Y0294975D02*
X0205099Y0294975D01*
X0205099Y0294176D02*
X0202433Y0294176D01*
X0202433Y0293378D02*
X0205746Y0293378D01*
X0205099Y0296572D02*
X0202363Y0296572D01*
X0202303Y0297370D02*
X0205099Y0297370D01*
X0205438Y0298169D02*
X0202194Y0298169D01*
X0202019Y0298967D02*
X0206333Y0298967D01*
X0206333Y0299766D02*
X0201782Y0299766D01*
X0201490Y0300564D02*
X0206333Y0300564D01*
X0206333Y0301363D02*
X0201126Y0301363D01*
X0200672Y0302161D02*
X0206333Y0302161D01*
X0206333Y0302960D02*
X0200249Y0302960D01*
X0199651Y0303758D02*
X0206333Y0303758D01*
X0206333Y0304557D02*
X0199074Y0304557D01*
X0198275Y0305355D02*
X0206333Y0305355D01*
X0206333Y0306154D02*
X0197477Y0306154D01*
X0196534Y0306952D02*
X0206333Y0306952D01*
X0206333Y0307751D02*
X0195072Y0307751D01*
X0193609Y0308549D02*
X0206333Y0308549D01*
X0206333Y0309348D02*
X0190535Y0309348D01*
X0190333Y0310146D02*
X0206333Y0310146D01*
X0206333Y0310945D02*
X0190707Y0310945D01*
X0191505Y0311743D02*
X0206333Y0311743D01*
X0210333Y0311743D02*
X0226333Y0311743D01*
X0226333Y0310945D02*
X0210333Y0310945D01*
X0210333Y0310146D02*
X0226333Y0310146D01*
X0226132Y0309348D02*
X0210333Y0309348D01*
X0210333Y0308549D02*
X0223057Y0308549D01*
X0223195Y0308549D02*
X0223328Y0308549D01*
X0221595Y0307751D02*
X0210333Y0307751D01*
X0210333Y0306952D02*
X0220133Y0306952D01*
X0219190Y0306154D02*
X0210333Y0306154D01*
X0210333Y0305355D02*
X0218391Y0305355D01*
X0217593Y0304557D02*
X0210333Y0304557D01*
X0210333Y0303758D02*
X0217015Y0303758D01*
X0216418Y0302960D02*
X0210333Y0302960D01*
X0210333Y0302161D02*
X0215995Y0302161D01*
X0215541Y0301363D02*
X0210333Y0301363D01*
X0210333Y0300564D02*
X0215176Y0300564D01*
X0214885Y0299766D02*
X0210333Y0299766D01*
X0210333Y0298967D02*
X0214648Y0298967D01*
X0214473Y0298169D02*
X0211229Y0298169D01*
X0211567Y0297370D02*
X0214363Y0297370D01*
X0214304Y0296572D02*
X0211567Y0296572D01*
X0211567Y0295773D02*
X0214233Y0295773D01*
X0214198Y0294975D02*
X0211567Y0294975D01*
X0211567Y0294176D02*
X0214233Y0294176D01*
X0214233Y0293378D02*
X0210920Y0293378D01*
X0214233Y0292579D02*
X0202433Y0292579D01*
X0202433Y0291781D02*
X0214233Y0291781D01*
X0214233Y0290982D02*
X0202433Y0290982D01*
X0202433Y0290184D02*
X0214233Y0290184D01*
X0214233Y0289385D02*
X0210563Y0289385D01*
X0210508Y0289417D02*
X0210152Y0289513D01*
X0208553Y0289513D01*
X0208553Y0287093D01*
X0208113Y0287093D01*
X0208113Y0289513D01*
X0206515Y0289513D01*
X0206159Y0289417D01*
X0205840Y0289233D01*
X0205579Y0288972D01*
X0205395Y0288653D01*
X0205299Y0288297D01*
X0205299Y0287093D01*
X0208113Y0287093D01*
X0208113Y0286652D01*
X0208553Y0286652D01*
X0208553Y0284232D01*
X0210152Y0284232D01*
X0210508Y0284328D01*
X0210827Y0284512D01*
X0211087Y0284773D01*
X0211272Y0285092D01*
X0211367Y0285448D01*
X0211367Y0286652D01*
X0208553Y0286652D01*
X0208553Y0287093D01*
X0211367Y0287093D01*
X0211367Y0288297D01*
X0211272Y0288653D01*
X0211087Y0288972D01*
X0210827Y0289233D01*
X0210508Y0289417D01*
X0211290Y0288587D02*
X0214233Y0288587D01*
X0214233Y0287788D02*
X0211367Y0287788D01*
X0211367Y0286191D02*
X0214233Y0286191D01*
X0214233Y0285393D02*
X0211352Y0285393D01*
X0210909Y0284594D02*
X0214233Y0284594D01*
X0214233Y0283796D02*
X0202433Y0283796D01*
X0202433Y0284594D02*
X0205758Y0284594D01*
X0205840Y0284512D02*
X0206159Y0284328D01*
X0206515Y0284232D01*
X0208113Y0284232D01*
X0208113Y0286652D01*
X0205299Y0286652D01*
X0205299Y0285448D01*
X0205395Y0285092D01*
X0205579Y0284773D01*
X0205840Y0284512D01*
X0205314Y0285393D02*
X0202433Y0285393D01*
X0202433Y0286191D02*
X0205299Y0286191D01*
X0205299Y0287788D02*
X0202433Y0287788D01*
X0202433Y0286990D02*
X0208113Y0286990D01*
X0208553Y0286990D02*
X0214233Y0286990D01*
X0208553Y0287788D02*
X0208113Y0287788D01*
X0208113Y0288587D02*
X0208553Y0288587D01*
X0208553Y0289385D02*
X0208113Y0289385D01*
X0206104Y0289385D02*
X0202433Y0289385D01*
X0202433Y0288587D02*
X0205377Y0288587D01*
X0208113Y0286191D02*
X0208553Y0286191D01*
X0208553Y0285393D02*
X0208113Y0285393D01*
X0208113Y0284594D02*
X0208553Y0284594D01*
X0228333Y0295400D02*
X0228333Y0316400D01*
X0218333Y0326400D01*
X0212487Y0320554D01*
X0208333Y0320554D01*
X0210333Y0318132D02*
X0223773Y0318132D01*
X0222975Y0318930D02*
X0213692Y0318930D01*
X0214490Y0319729D02*
X0222176Y0319729D01*
X0221378Y0320527D02*
X0215289Y0320527D01*
X0216087Y0321326D02*
X0220579Y0321326D01*
X0219781Y0322124D02*
X0216886Y0322124D01*
X0217684Y0322923D02*
X0218982Y0322923D01*
X0218333Y0326400D02*
X0218333Y0336400D01*
X0228333Y0346400D01*
X0228333Y0367400D01*
X0195164Y0342400D02*
X0195164Y0338900D01*
X0195164Y0329231D01*
X0190833Y0328900D02*
X0189573Y0327640D01*
X0186896Y0327640D01*
X0186503Y0327246D01*
X0180833Y0327246D01*
X0176333Y0332228D02*
X0176333Y0332228D01*
X0176610Y0332505D02*
X0175872Y0332505D01*
X0176134Y0333303D02*
X0177265Y0333303D01*
X0180833Y0335554D02*
X0186503Y0335554D01*
X0186896Y0335160D01*
X0190833Y0341400D02*
X0190833Y0328900D01*
X0190833Y0341400D02*
X0190833Y0342400D01*
X0203333Y0331400D02*
X0203333Y0327246D01*
X0210333Y0317333D02*
X0224572Y0317333D01*
X0225370Y0316534D02*
X0210333Y0316534D01*
X0210333Y0315736D02*
X0226169Y0315736D01*
X0226333Y0314937D02*
X0210333Y0314937D01*
X0210333Y0314139D02*
X0226333Y0314139D01*
X0226333Y0313340D02*
X0210333Y0313340D01*
X0210333Y0312542D02*
X0226333Y0312542D01*
X0193472Y0308549D02*
X0193338Y0308549D01*
X0177265Y0319729D02*
X0175263Y0319729D01*
X0176062Y0320527D02*
X0177265Y0320527D01*
X0177233Y0321326D02*
X0176134Y0321326D01*
X0176134Y0322124D02*
X0176434Y0322124D01*
D21*
X0168333Y0329400D03*
X0168333Y0334400D03*
X0168333Y0339400D03*
X0156326Y0339928D03*
X0144833Y0340400D03*
X0130333Y0331400D03*
X0126833Y0322900D03*
X0145833Y0321400D03*
X0157833Y0327900D03*
X0198333Y0331400D03*
X0208333Y0291400D03*
M02*
