G75*
%MOIN*%
%OFA0B0*%
%FSLAX25Y25*%
%IPPOS*%
%LPD*%
%AMOC8*
5,1,8,0,0,1.08239X$1,22.5*
%
%ADD10C,0.00591*%
%ADD11R,0.13701X0.00157*%
%ADD12R,0.14646X0.00157*%
%ADD13R,0.15276X0.00157*%
%ADD14R,0.15906X0.00157*%
%ADD15R,0.16220X0.00157*%
%ADD16R,0.16535X0.00157*%
%ADD17R,0.16850X0.00157*%
%ADD18R,0.04252X0.00157*%
%ADD19R,0.11969X0.00157*%
%ADD20R,0.04094X0.00157*%
%ADD21R,0.01260X0.00157*%
%ADD22R,0.01890X0.00157*%
%ADD23R,0.00630X0.00157*%
%ADD24R,0.03780X0.00157*%
%ADD25R,0.00787X0.00157*%
%ADD26R,0.01575X0.00157*%
%ADD27R,0.00472X0.00157*%
%ADD28R,0.01417X0.00157*%
%ADD29R,0.03465X0.00157*%
%ADD30R,0.03622X0.00157*%
%ADD31R,0.01102X0.00157*%
%ADD32R,0.03307X0.00157*%
%ADD33R,0.00945X0.00157*%
%ADD34R,0.02835X0.00157*%
%ADD35R,0.02992X0.00157*%
%ADD36R,0.00157X0.00157*%
%ADD37R,0.00315X0.00157*%
%ADD38R,0.03937X0.00157*%
%ADD39R,0.01732X0.00157*%
%ADD40R,0.12756X0.00157*%
%ADD41R,0.14331X0.00157*%
%ADD42R,0.14961X0.00157*%
%ADD43R,0.15591X0.00157*%
%ADD44R,0.07087X0.00157*%
%ADD45R,0.02362X0.00157*%
%ADD46R,0.02047X0.00157*%
%ADD47R,0.03150X0.00157*%
%ADD48R,0.04409X0.00157*%
%ADD49R,0.02205X0.00157*%
%ADD50R,0.05039X0.00157*%
%ADD51R,0.02520X0.00157*%
%ADD52R,0.13071X0.00157*%
%ADD53R,0.14016X0.00157*%
%ADD54R,0.04567X0.00157*%
%ADD55R,0.02677X0.00157*%
%ADD56R,0.04882X0.00157*%
%ADD57R,0.05354X0.00157*%
%ADD58R,0.12126X0.00157*%
%ADD59R,0.05197X0.00157*%
%ADD60R,0.00197X0.00079*%
%ADD61R,0.00315X0.00079*%
%ADD62R,0.00709X0.00118*%
%ADD63R,0.00984X0.00079*%
%ADD64R,0.01102X0.00118*%
%ADD65R,0.01181X0.00079*%
%ADD66R,0.01142X0.00118*%
%ADD67R,0.01929X0.00118*%
%ADD68R,0.02047X0.00079*%
%ADD69R,0.00591X0.00118*%
%ADD70R,0.02047X0.00118*%
%ADD71R,0.02992X0.00079*%
%ADD72R,0.00394X0.00118*%
%ADD73R,0.02992X0.00118*%
%ADD74R,0.04094X0.00079*%
%ADD75R,0.00354X0.00118*%
%ADD76R,0.04055X0.00118*%
%ADD77R,0.00591X0.00079*%
%ADD78R,0.03976X0.00079*%
%ADD79R,0.05236X0.00079*%
%ADD80R,0.05276X0.00118*%
%ADD81R,0.00472X0.00079*%
%ADD82R,0.05276X0.00079*%
%ADD83R,0.06142X0.00118*%
%ADD84R,0.05906X0.00079*%
%ADD85R,0.05827X0.00118*%
%ADD86R,0.06811X0.00079*%
%ADD87R,0.06732X0.00118*%
%ADD88R,0.06614X0.00079*%
%ADD89R,0.06693X0.00118*%
%ADD90R,0.06299X0.00079*%
%ADD91R,0.06417X0.00118*%
%ADD92R,0.06732X0.00079*%
%ADD93R,0.06299X0.00118*%
%ADD94R,0.06417X0.00079*%
%ADD95R,0.06220X0.00118*%
%ADD96R,0.05866X0.00079*%
%ADD97R,0.05630X0.00118*%
%ADD98R,0.05433X0.00079*%
%ADD99R,0.05354X0.00118*%
%ADD100R,0.05039X0.00079*%
%ADD101R,0.04843X0.00118*%
%ADD102R,0.04764X0.00079*%
%ADD103R,0.04449X0.00118*%
%ADD104R,0.00787X0.00118*%
%ADD105R,0.04173X0.00079*%
%ADD106R,0.01260X0.00079*%
%ADD107R,0.04173X0.00118*%
%ADD108R,0.01732X0.00118*%
%ADD109R,0.03819X0.00079*%
%ADD110R,0.01929X0.00079*%
%ADD111R,0.03701X0.00118*%
%ADD112R,0.02323X0.00118*%
%ADD113R,0.03583X0.00079*%
%ADD114R,0.02520X0.00079*%
%ADD115R,0.03425X0.00118*%
%ADD116R,0.02717X0.00118*%
%ADD117R,0.03425X0.00079*%
%ADD118R,0.02913X0.00079*%
%ADD119R,0.03228X0.00079*%
%ADD120R,0.03110X0.00079*%
%ADD121R,0.00276X0.00118*%
%ADD122R,0.03110X0.00118*%
%ADD123R,0.03307X0.00118*%
%ADD124R,0.00276X0.00079*%
%ADD125R,0.03031X0.00079*%
%ADD126R,0.03504X0.00079*%
%ADD127R,0.02913X0.00118*%
%ADD128R,0.03583X0.00118*%
%ADD129R,0.00394X0.00079*%
%ADD130R,0.02835X0.00079*%
%ADD131R,0.03701X0.00079*%
%ADD132R,0.03465X0.00118*%
%ADD133R,0.04094X0.00118*%
%ADD134R,0.02638X0.00079*%
%ADD135R,0.04291X0.00079*%
%ADD136R,0.02520X0.00118*%
%ADD137R,0.04370X0.00118*%
%ADD138R,0.05354X0.00079*%
%ADD139R,0.04961X0.00079*%
%ADD140R,0.02362X0.00118*%
%ADD141R,0.04961X0.00118*%
%ADD142R,0.02362X0.00079*%
%ADD143R,0.05945X0.00079*%
%ADD144R,0.05118X0.00079*%
%ADD145R,0.00669X0.00118*%
%ADD146R,0.06614X0.00118*%
%ADD147R,0.05433X0.00118*%
%ADD148R,0.00669X0.00079*%
%ADD149R,0.09331X0.00079*%
%ADD150R,0.05551X0.00079*%
%ADD151R,0.00748X0.00118*%
%ADD152R,0.09528X0.00118*%
%ADD153R,0.05669X0.00118*%
%ADD154R,0.00748X0.00079*%
%ADD155R,0.09724X0.00079*%
%ADD156R,0.06024X0.00079*%
%ADD157R,0.00866X0.00118*%
%ADD158R,0.09724X0.00118*%
%ADD159R,0.10000X0.00079*%
%ADD160R,0.01142X0.00079*%
%ADD161R,0.10039X0.00079*%
%ADD162R,0.10000X0.00118*%
%ADD163R,0.05157X0.00118*%
%ADD164R,0.10276X0.00079*%
%ADD165R,0.01260X0.00118*%
%ADD166R,0.10394X0.00118*%
%ADD167R,0.05236X0.00118*%
%ADD168R,0.05157X0.00079*%
%ADD169R,0.01339X0.00118*%
%ADD170R,0.05551X0.00118*%
%ADD171R,0.01457X0.00079*%
%ADD172R,0.05827X0.00079*%
%ADD173R,0.01575X0.00118*%
%ADD174R,0.02441X0.00118*%
%ADD175R,0.03504X0.00118*%
%ADD176R,0.05866X0.00118*%
%ADD177R,0.01772X0.00079*%
%ADD178R,0.02717X0.00079*%
%ADD179R,0.02323X0.00079*%
%ADD180R,0.03780X0.00079*%
%ADD181R,0.01850X0.00118*%
%ADD182R,0.02638X0.00118*%
%ADD183R,0.00315X0.00118*%
%ADD184R,0.06496X0.00118*%
%ADD185R,0.01969X0.00079*%
%ADD186R,0.02441X0.00079*%
%ADD187R,0.01850X0.00079*%
%ADD188R,0.03858X0.00079*%
%ADD189R,0.06693X0.00079*%
%ADD190R,0.02165X0.00118*%
%ADD191R,0.01654X0.00118*%
%ADD192R,0.07205X0.00118*%
%ADD193R,0.04921X0.00079*%
%ADD194R,0.04409X0.00079*%
%ADD195R,0.01063X0.00118*%
%ADD196R,0.00984X0.00118*%
%ADD197R,0.04488X0.00118*%
%ADD198R,0.02795X0.00079*%
%ADD199R,0.01378X0.00079*%
%ADD200R,0.00866X0.00079*%
%ADD201R,0.04685X0.00079*%
%ADD202R,0.00906X0.00118*%
%ADD203R,0.00472X0.00118*%
%ADD204R,0.04567X0.00118*%
%ADD205R,0.00945X0.00079*%
%ADD206R,0.00787X0.00079*%
%ADD207R,0.04449X0.00079*%
%ADD208R,0.01811X0.00079*%
%ADD209R,0.04882X0.00079*%
%ADD210R,0.00906X0.00079*%
%ADD211R,0.04370X0.00079*%
%ADD212R,0.02598X0.00118*%
%ADD213R,0.05039X0.00118*%
%ADD214R,0.01535X0.00079*%
%ADD215R,0.04055X0.00079*%
%ADD216R,0.03228X0.00118*%
%ADD217R,0.03780X0.00118*%
%ADD218R,0.03386X0.00079*%
%ADD219R,0.01969X0.00118*%
%ADD220R,0.02244X0.00118*%
%ADD221R,0.03189X0.00118*%
%ADD222R,0.03622X0.00079*%
%ADD223R,0.01457X0.00118*%
%ADD224R,0.02835X0.00118*%
%ADD225R,0.08937X0.00079*%
%ADD226R,0.09134X0.00118*%
%ADD227R,0.01535X0.00118*%
%ADD228R,0.09252X0.00079*%
%ADD229R,0.02126X0.00079*%
%ADD230R,0.01654X0.00079*%
%ADD231R,0.09843X0.00118*%
%ADD232R,0.02008X0.00118*%
%ADD233R,0.09921X0.00079*%
%ADD234R,0.00079X0.00079*%
%ADD235R,0.10512X0.00118*%
%ADD236R,0.03031X0.00118*%
%ADD237R,0.04685X0.00118*%
%ADD238R,0.14488X0.00079*%
%ADD239R,0.06142X0.00079*%
%ADD240R,0.00709X0.00079*%
%ADD241R,0.01496X0.00079*%
%ADD242R,0.14685X0.00079*%
%ADD243R,0.01496X0.00118*%
%ADD244R,0.16811X0.00118*%
%ADD245R,0.04646X0.00079*%
%ADD246R,0.16890X0.00079*%
%ADD247R,0.00512X0.00118*%
%ADD248R,0.01299X0.00118*%
%ADD249R,0.17008X0.00118*%
%ADD250R,0.01299X0.00079*%
%ADD251R,0.17205X0.00079*%
%ADD252R,0.17323X0.00118*%
%ADD253R,0.17402X0.00079*%
%ADD254R,0.03622X0.00118*%
%ADD255R,0.17402X0.00118*%
%ADD256R,0.01378X0.00118*%
%ADD257R,0.03386X0.00118*%
%ADD258R,0.02008X0.00079*%
%ADD259R,0.03150X0.00079*%
%ADD260R,0.02126X0.00118*%
%ADD261R,0.02205X0.00079*%
%ADD262R,0.03150X0.00118*%
%ADD263R,0.02953X0.00118*%
%ADD264R,0.02756X0.00079*%
%ADD265R,0.02559X0.00079*%
%ADD266R,0.00197X0.00118*%
%ADD267C,0.00300*%
D10*
X0164698Y0289246D02*
X0163680Y0290264D01*
X0164890Y0291748D01*
X0164582Y0292346D01*
X0164377Y0292987D01*
X0162472Y0293180D01*
X0162472Y0294620D01*
X0164377Y0294813D01*
X0164582Y0295454D01*
X0164890Y0296052D01*
X0163680Y0297536D01*
X0164698Y0298554D01*
X0166182Y0297343D01*
X0166780Y0297651D01*
X0167420Y0297856D01*
X0167614Y0299761D01*
X0169053Y0299761D01*
X0169247Y0297856D01*
X0169887Y0297651D01*
X0170485Y0297343D01*
X0171969Y0298554D01*
X0172987Y0297536D01*
X0171777Y0296052D01*
X0172085Y0295454D01*
X0172290Y0294813D01*
X0174195Y0294620D01*
X0174195Y0293180D01*
X0172290Y0292987D01*
X0172085Y0292346D01*
X0171777Y0291748D01*
X0172987Y0290264D01*
X0171969Y0289246D01*
X0170485Y0290457D01*
X0169887Y0290149D01*
X0169040Y0292195D01*
X0169418Y0292407D01*
X0169737Y0292701D01*
X0169978Y0293062D01*
X0170128Y0293469D01*
X0170179Y0293900D01*
X0170126Y0294339D01*
X0169970Y0294752D01*
X0169721Y0295117D01*
X0169392Y0295411D01*
X0169002Y0295620D01*
X0168574Y0295729D01*
X0168133Y0295734D01*
X0167702Y0295634D01*
X0167308Y0295434D01*
X0166973Y0295146D01*
X0166716Y0294787D01*
X0166551Y0294377D01*
X0166489Y0293940D01*
X0166532Y0293500D01*
X0166678Y0293084D01*
X0166920Y0292714D01*
X0167242Y0292412D01*
X0167627Y0292195D01*
X0166779Y0290149D01*
X0166182Y0290457D01*
X0164698Y0289246D01*
X0164297Y0289647D02*
X0165189Y0289647D01*
X0165911Y0290236D02*
X0163708Y0290236D01*
X0164137Y0290825D02*
X0167060Y0290825D01*
X0167304Y0291414D02*
X0164617Y0291414D01*
X0164759Y0292003D02*
X0167548Y0292003D01*
X0167049Y0292592D02*
X0164503Y0292592D01*
X0162472Y0293181D02*
X0166644Y0293181D01*
X0166505Y0293770D02*
X0162472Y0293770D01*
X0162472Y0294359D02*
X0166549Y0294359D01*
X0166831Y0294948D02*
X0164420Y0294948D01*
X0164625Y0295538D02*
X0167513Y0295538D01*
X0169156Y0295538D02*
X0172041Y0295538D01*
X0171838Y0296127D02*
X0164829Y0296127D01*
X0164349Y0296716D02*
X0172318Y0296716D01*
X0172798Y0297305D02*
X0163868Y0297305D01*
X0164038Y0297894D02*
X0165507Y0297894D01*
X0164784Y0298483D02*
X0164627Y0298483D01*
X0167484Y0298483D02*
X0169183Y0298483D01*
X0169123Y0299072D02*
X0167544Y0299072D01*
X0167603Y0299661D02*
X0169063Y0299661D01*
X0169243Y0297894D02*
X0167424Y0297894D01*
X0171160Y0297894D02*
X0172629Y0297894D01*
X0172040Y0298483D02*
X0171882Y0298483D01*
X0172246Y0294948D02*
X0169836Y0294948D01*
X0170118Y0294359D02*
X0174195Y0294359D01*
X0174195Y0293770D02*
X0170164Y0293770D01*
X0170022Y0293181D02*
X0174195Y0293181D01*
X0172163Y0292592D02*
X0169619Y0292592D01*
X0169119Y0292003D02*
X0171908Y0292003D01*
X0172049Y0291414D02*
X0169363Y0291414D01*
X0169607Y0290825D02*
X0172530Y0290825D01*
X0172959Y0290236D02*
X0170756Y0290236D01*
X0170056Y0290236D02*
X0169851Y0290236D01*
X0171478Y0289647D02*
X0172370Y0289647D01*
X0166815Y0290236D02*
X0166610Y0290236D01*
D11*
X0148621Y0309908D03*
X0148621Y0315892D03*
X0148046Y0346908D03*
X0148046Y0352892D03*
X0107861Y0353550D03*
X0107861Y0347250D03*
X0107806Y0315550D03*
X0107806Y0309250D03*
X0228593Y0310065D03*
X0228593Y0315735D03*
X0228073Y0347065D03*
X0228073Y0352735D03*
D12*
X0228073Y0352420D03*
X0228073Y0347380D03*
X0228593Y0315420D03*
X0228593Y0310380D03*
X0188621Y0310065D03*
X0188621Y0315735D03*
X0188046Y0347065D03*
X0188046Y0352735D03*
X0107861Y0353392D03*
X0107861Y0347408D03*
X0107806Y0315392D03*
X0107806Y0309408D03*
D13*
X0107806Y0309565D03*
X0107806Y0315235D03*
X0107861Y0347565D03*
X0107861Y0353235D03*
X0148046Y0352420D03*
X0148046Y0347380D03*
X0148621Y0315420D03*
X0148621Y0310380D03*
X0188621Y0310223D03*
X0188621Y0315577D03*
X0188046Y0347223D03*
X0188046Y0352577D03*
X0228073Y0352105D03*
X0228073Y0347695D03*
X0228593Y0315105D03*
X0228593Y0310695D03*
D14*
X0188621Y0310538D03*
X0188621Y0315262D03*
X0188046Y0347538D03*
X0188046Y0352262D03*
X0148046Y0352105D03*
X0148046Y0347695D03*
X0148621Y0315105D03*
X0148621Y0310695D03*
X0107806Y0309723D03*
X0107806Y0315077D03*
X0107861Y0347723D03*
X0107861Y0353077D03*
D15*
X0107861Y0352920D03*
X0107861Y0347880D03*
X0107806Y0314920D03*
X0107806Y0309880D03*
X0188046Y0347695D03*
X0188046Y0352105D03*
X0188621Y0315105D03*
X0188621Y0310695D03*
D16*
X0107806Y0310038D03*
X0107806Y0314762D03*
X0107861Y0348038D03*
X0107861Y0352762D03*
D17*
X0107861Y0352605D03*
X0107861Y0348195D03*
X0107806Y0314605D03*
X0107806Y0310195D03*
D18*
X0101349Y0310353D03*
X0114262Y0314447D03*
X0101404Y0348353D03*
X0114318Y0352447D03*
X0181849Y0313215D03*
X0181849Y0313057D03*
X0194818Y0349585D03*
X0194818Y0349743D03*
X0221774Y0350215D03*
X0234892Y0312585D03*
D19*
X0190329Y0347853D03*
X0186337Y0314947D03*
X0110459Y0348353D03*
X0105207Y0314447D03*
D20*
X0101113Y0314290D03*
X0114499Y0314290D03*
X0114341Y0310353D03*
X0114554Y0348510D03*
X0101168Y0348510D03*
X0101325Y0352447D03*
X0181770Y0312900D03*
X0181770Y0312743D03*
X0194896Y0349900D03*
X0194896Y0350057D03*
D21*
X0190014Y0349270D03*
X0190014Y0349113D03*
X0187495Y0349113D03*
X0187495Y0350845D03*
X0185290Y0349585D03*
X0183873Y0350687D03*
X0184849Y0331743D03*
X0184849Y0330955D03*
X0183274Y0330955D03*
X0183274Y0331585D03*
X0181385Y0331585D03*
X0181385Y0330955D03*
X0177290Y0330798D03*
X0177290Y0331743D03*
X0175558Y0331743D03*
X0175400Y0330955D03*
X0175558Y0330798D03*
X0176345Y0329853D03*
X0173825Y0331743D03*
X0169888Y0330955D03*
X0168156Y0330955D03*
X0168156Y0331743D03*
X0164849Y0331585D03*
X0164849Y0330955D03*
X0160440Y0331743D03*
X0155715Y0332687D03*
X0155715Y0329853D03*
X0151936Y0331743D03*
X0150329Y0349270D03*
X0151904Y0350530D03*
X0148125Y0349270D03*
X0146235Y0350372D03*
X0146077Y0350057D03*
X0145920Y0349743D03*
X0144030Y0350530D03*
X0111877Y0351187D03*
X0111877Y0349770D03*
X0108097Y0349140D03*
X0105577Y0348510D03*
X0104003Y0351345D03*
X0105577Y0352447D03*
X0107782Y0351975D03*
X0107782Y0351817D03*
X0110089Y0314290D03*
X0107570Y0313660D03*
X0107885Y0310983D03*
X0107885Y0310825D03*
X0110089Y0310353D03*
X0111664Y0311455D03*
X0103790Y0311613D03*
X0103790Y0313030D03*
X0144762Y0312270D03*
X0146337Y0313530D03*
X0148542Y0313530D03*
X0150432Y0312428D03*
X0150589Y0312743D03*
X0150747Y0313057D03*
X0152636Y0312270D03*
X0186652Y0313530D03*
X0186652Y0313687D03*
X0189172Y0313687D03*
X0189172Y0311955D03*
X0191377Y0313215D03*
X0192794Y0312113D03*
X0186581Y0330955D03*
X0186424Y0331743D03*
X0224373Y0350687D03*
X0226420Y0348325D03*
X0229727Y0351947D03*
X0230247Y0314475D03*
X0232294Y0312113D03*
X0226940Y0310853D03*
D22*
X0230247Y0311010D03*
X0231192Y0313372D03*
X0225475Y0349428D03*
X0226420Y0351790D03*
X0191589Y0351475D03*
X0184975Y0349428D03*
X0179337Y0331743D03*
X0176345Y0332530D03*
X0176345Y0330010D03*
X0185077Y0311325D03*
X0191692Y0313372D03*
X0148542Y0314160D03*
X0146022Y0313372D03*
X0150991Y0332530D03*
X0148125Y0348640D03*
X0150644Y0349428D03*
X0107940Y0348510D03*
X0107940Y0352447D03*
X0107727Y0314290D03*
X0107727Y0310353D03*
D23*
X0108199Y0311770D03*
X0107255Y0312872D03*
X0105680Y0314290D03*
X0104105Y0311298D03*
X0105680Y0310510D03*
X0109932Y0310668D03*
X0109932Y0312715D03*
X0109932Y0313502D03*
X0109932Y0313660D03*
X0109932Y0313817D03*
X0109932Y0313975D03*
X0146180Y0314475D03*
X0146337Y0314160D03*
X0146337Y0314002D03*
X0150747Y0313845D03*
X0150747Y0313687D03*
X0150904Y0314160D03*
X0151062Y0314475D03*
X0150203Y0330640D03*
X0153825Y0334105D03*
X0150487Y0348325D03*
X0150329Y0348640D03*
X0150329Y0348798D03*
X0145920Y0348955D03*
X0145920Y0349113D03*
X0145762Y0348640D03*
X0145605Y0348325D03*
X0171306Y0330798D03*
X0186424Y0329538D03*
X0191062Y0314475D03*
X0191062Y0314317D03*
X0191062Y0314160D03*
X0191062Y0312900D03*
X0191062Y0311325D03*
X0189329Y0311798D03*
X0187440Y0311483D03*
X0187440Y0311325D03*
X0187282Y0311640D03*
X0186967Y0312270D03*
X0186810Y0312585D03*
X0186810Y0312743D03*
X0185077Y0312585D03*
X0192636Y0314002D03*
X0226782Y0313845D03*
X0226782Y0314632D03*
X0226782Y0311955D03*
X0230404Y0311955D03*
X0230404Y0311798D03*
X0232136Y0314002D03*
X0229885Y0348168D03*
X0229885Y0348955D03*
X0229885Y0350845D03*
X0226262Y0350845D03*
X0226262Y0351002D03*
X0224530Y0348798D03*
X0191589Y0350215D03*
X0189857Y0350215D03*
X0189857Y0350057D03*
X0189699Y0350530D03*
X0189385Y0351160D03*
X0189227Y0351317D03*
X0189227Y0351475D03*
X0187337Y0351002D03*
X0185605Y0351475D03*
X0185605Y0349900D03*
X0185605Y0348640D03*
X0185605Y0348483D03*
X0185605Y0348325D03*
X0184030Y0348798D03*
X0111562Y0351502D03*
X0109987Y0352290D03*
X0107467Y0351030D03*
X0108412Y0349928D03*
X0109987Y0348510D03*
X0105735Y0348825D03*
X0105735Y0348983D03*
X0105735Y0349140D03*
X0105735Y0349298D03*
X0105735Y0350085D03*
X0105735Y0352132D03*
D24*
X0101010Y0348668D03*
X0100853Y0348825D03*
X0114711Y0348668D03*
X0114869Y0348825D03*
X0141196Y0349270D03*
X0141825Y0347853D03*
X0154266Y0347853D03*
X0154896Y0349900D03*
X0181038Y0349900D03*
X0181668Y0347853D03*
X0195054Y0350530D03*
X0195054Y0350687D03*
X0221538Y0349900D03*
X0222168Y0347853D03*
X0234499Y0314947D03*
X0235129Y0312900D03*
X0195629Y0312900D03*
X0194999Y0314947D03*
X0181613Y0312270D03*
X0181613Y0312113D03*
X0155471Y0313530D03*
X0154841Y0314947D03*
X0142400Y0314947D03*
X0141770Y0312900D03*
X0114814Y0313975D03*
X0114656Y0314132D03*
X0100955Y0314132D03*
X0100798Y0313975D03*
D25*
X0105759Y0310353D03*
X0108121Y0311455D03*
X0108121Y0311613D03*
X0107333Y0313030D03*
X0110010Y0313345D03*
X0110010Y0314132D03*
X0111585Y0311298D03*
X0144684Y0311798D03*
X0144684Y0313845D03*
X0146101Y0314632D03*
X0146416Y0313845D03*
X0146416Y0313687D03*
X0148621Y0313057D03*
X0148621Y0312900D03*
X0150668Y0313530D03*
X0151140Y0314632D03*
X0152558Y0313845D03*
X0152558Y0311798D03*
X0150912Y0329695D03*
X0155322Y0330798D03*
X0155164Y0331743D03*
X0158156Y0332687D03*
X0158156Y0334105D03*
X0160361Y0333632D03*
X0162093Y0332687D03*
X0163353Y0332687D03*
X0164770Y0332687D03*
X0165873Y0332687D03*
X0165873Y0329853D03*
X0164770Y0329853D03*
X0163353Y0329853D03*
X0158156Y0329853D03*
X0168865Y0332687D03*
X0169967Y0332687D03*
X0171385Y0332530D03*
X0173904Y0332687D03*
X0173904Y0329853D03*
X0171385Y0329853D03*
X0181306Y0329853D03*
X0181306Y0332687D03*
X0182566Y0332687D03*
X0184613Y0332687D03*
X0185873Y0332687D03*
X0185526Y0348168D03*
X0185526Y0348798D03*
X0185526Y0349743D03*
X0185526Y0351632D03*
X0189936Y0349900D03*
X0189936Y0349743D03*
X0225869Y0349743D03*
X0226341Y0351160D03*
X0226341Y0351317D03*
X0228388Y0351002D03*
X0229806Y0349113D03*
X0226861Y0313687D03*
X0228278Y0311798D03*
X0230325Y0311640D03*
X0230325Y0311483D03*
X0230798Y0313057D03*
X0191140Y0313057D03*
X0191140Y0314002D03*
X0191140Y0314632D03*
X0191140Y0311168D03*
X0186731Y0312900D03*
X0186731Y0313057D03*
X0151983Y0348955D03*
X0150566Y0348168D03*
X0150251Y0348955D03*
X0150251Y0349113D03*
X0148046Y0349743D03*
X0148046Y0349900D03*
X0145999Y0349270D03*
X0145526Y0348168D03*
X0144109Y0348955D03*
X0144109Y0351002D03*
X0151983Y0351002D03*
X0109908Y0352447D03*
X0107546Y0351345D03*
X0107546Y0351187D03*
X0108333Y0349770D03*
X0105656Y0349455D03*
X0105656Y0348668D03*
X0104081Y0351502D03*
D26*
X0103845Y0351030D03*
X0103845Y0350872D03*
X0107940Y0348668D03*
X0112034Y0350085D03*
X0112034Y0350243D03*
X0112034Y0350400D03*
X0112034Y0350557D03*
X0112034Y0350715D03*
X0145920Y0349900D03*
X0146392Y0350845D03*
X0146392Y0351002D03*
X0148125Y0348955D03*
X0149857Y0350530D03*
X0149699Y0350845D03*
X0149699Y0351002D03*
X0150991Y0332687D03*
X0153510Y0330483D03*
X0153510Y0330325D03*
X0159967Y0330325D03*
X0159967Y0330168D03*
X0159967Y0330483D03*
X0179022Y0330168D03*
X0179180Y0330640D03*
X0186652Y0314002D03*
X0186652Y0313845D03*
X0189014Y0313372D03*
X0189014Y0313215D03*
X0189014Y0312585D03*
X0189014Y0312428D03*
X0189014Y0312270D03*
X0185077Y0311640D03*
X0150747Y0312900D03*
X0150274Y0311955D03*
X0150274Y0311798D03*
X0148542Y0313845D03*
X0146810Y0312270D03*
X0146967Y0311955D03*
X0146967Y0311798D03*
X0111822Y0311770D03*
X0111822Y0311928D03*
X0107727Y0314132D03*
X0103633Y0312715D03*
X0103633Y0312557D03*
X0103633Y0312400D03*
X0103633Y0312243D03*
X0103633Y0312085D03*
X0187652Y0349428D03*
X0187652Y0349585D03*
X0187652Y0350215D03*
X0187652Y0350372D03*
X0187652Y0350530D03*
X0190014Y0348955D03*
X0190014Y0348798D03*
X0191589Y0351160D03*
X0226420Y0351632D03*
X0228467Y0349113D03*
X0228199Y0313687D03*
X0230247Y0311168D03*
D27*
X0230483Y0312113D03*
X0230483Y0312270D03*
X0230483Y0312428D03*
X0230640Y0312743D03*
X0230640Y0312900D03*
X0226703Y0311798D03*
X0226703Y0311640D03*
X0226703Y0311168D03*
X0226703Y0314002D03*
X0226703Y0314475D03*
X0190983Y0312743D03*
X0190983Y0312585D03*
X0190983Y0312428D03*
X0190983Y0312270D03*
X0190983Y0311955D03*
X0190983Y0311798D03*
X0190983Y0311640D03*
X0190983Y0311483D03*
X0187203Y0311798D03*
X0187046Y0311955D03*
X0187046Y0312113D03*
X0186888Y0312428D03*
X0185156Y0312743D03*
X0168865Y0329853D03*
X0171385Y0331585D03*
X0160361Y0333790D03*
X0158156Y0333160D03*
X0150408Y0348483D03*
X0148046Y0350057D03*
X0148046Y0350215D03*
X0145841Y0348798D03*
X0145684Y0348483D03*
X0109908Y0348668D03*
X0109908Y0348825D03*
X0109908Y0348983D03*
X0109908Y0349140D03*
X0109908Y0349298D03*
X0109908Y0349455D03*
X0109908Y0349613D03*
X0109908Y0349770D03*
X0109908Y0349928D03*
X0109908Y0350085D03*
X0109908Y0350243D03*
X0109908Y0350400D03*
X0109908Y0350557D03*
X0109908Y0350715D03*
X0109908Y0350872D03*
X0109908Y0351030D03*
X0109908Y0351187D03*
X0109908Y0351345D03*
X0109908Y0351502D03*
X0109908Y0351660D03*
X0109908Y0351817D03*
X0109908Y0351975D03*
X0109908Y0352132D03*
X0108491Y0350243D03*
X0108491Y0350085D03*
X0107388Y0350872D03*
X0105814Y0350872D03*
X0105814Y0350715D03*
X0105814Y0350557D03*
X0105814Y0350400D03*
X0105814Y0350243D03*
X0105814Y0351030D03*
X0105814Y0351187D03*
X0105814Y0351345D03*
X0105814Y0351502D03*
X0105814Y0351660D03*
X0105814Y0351817D03*
X0105814Y0351975D03*
X0105759Y0314132D03*
X0105759Y0313975D03*
X0105759Y0313817D03*
X0105759Y0313660D03*
X0105759Y0313502D03*
X0105759Y0313345D03*
X0105759Y0313187D03*
X0105759Y0313030D03*
X0105759Y0312872D03*
X0105759Y0312715D03*
X0105759Y0312557D03*
X0105759Y0312400D03*
X0105759Y0312243D03*
X0105759Y0312085D03*
X0105759Y0311928D03*
X0105759Y0311770D03*
X0105759Y0311613D03*
X0105759Y0311455D03*
X0105759Y0311298D03*
X0105759Y0311140D03*
X0105759Y0310983D03*
X0105759Y0310825D03*
X0105759Y0310668D03*
X0107176Y0312557D03*
X0107176Y0312715D03*
X0108278Y0311928D03*
X0109853Y0311928D03*
X0109853Y0312085D03*
X0109853Y0312243D03*
X0109853Y0312400D03*
X0109853Y0312557D03*
X0109853Y0311770D03*
X0109853Y0311613D03*
X0109853Y0311455D03*
X0109853Y0311298D03*
X0109853Y0311140D03*
X0109853Y0310983D03*
X0109853Y0310825D03*
X0146259Y0314317D03*
X0148621Y0312743D03*
X0148621Y0312585D03*
X0150825Y0314002D03*
X0150983Y0314317D03*
X0185684Y0350057D03*
X0185684Y0350215D03*
X0185684Y0350372D03*
X0185684Y0350530D03*
X0185684Y0350845D03*
X0185684Y0351002D03*
X0185684Y0351160D03*
X0185684Y0351317D03*
X0189463Y0351002D03*
X0189621Y0350845D03*
X0189621Y0350687D03*
X0189778Y0350372D03*
X0191510Y0350057D03*
X0226026Y0350057D03*
X0226026Y0349900D03*
X0226184Y0350372D03*
X0226184Y0350530D03*
X0226184Y0350687D03*
X0229963Y0351002D03*
X0229963Y0351160D03*
X0229963Y0351632D03*
X0229963Y0348798D03*
X0229963Y0348325D03*
D28*
X0228388Y0350845D03*
X0228278Y0311955D03*
X0191298Y0310853D03*
X0189093Y0312113D03*
X0189093Y0313530D03*
X0178944Y0330010D03*
X0176424Y0332687D03*
X0169810Y0331743D03*
X0159888Y0330010D03*
X0156581Y0330798D03*
X0156581Y0331743D03*
X0153589Y0330640D03*
X0153432Y0330168D03*
X0153432Y0330010D03*
X0151857Y0330640D03*
X0148621Y0313687D03*
X0150510Y0312585D03*
X0150353Y0312270D03*
X0150353Y0312113D03*
X0146888Y0312113D03*
X0111743Y0311613D03*
X0107806Y0310668D03*
X0107648Y0313817D03*
X0107648Y0313975D03*
X0103711Y0312872D03*
X0103711Y0311928D03*
X0103711Y0311770D03*
X0108018Y0348825D03*
X0108018Y0348983D03*
X0107861Y0352132D03*
X0103924Y0351187D03*
X0111955Y0351030D03*
X0111955Y0350872D03*
X0111955Y0349928D03*
X0146156Y0350215D03*
X0146314Y0350530D03*
X0146314Y0350687D03*
X0148046Y0349113D03*
X0149778Y0350687D03*
X0185369Y0351947D03*
X0187573Y0350687D03*
X0187573Y0349270D03*
D29*
X0180881Y0349270D03*
X0180881Y0349113D03*
X0180881Y0349428D03*
X0181353Y0351790D03*
X0195054Y0351002D03*
X0195054Y0350845D03*
X0221381Y0349585D03*
X0221381Y0349428D03*
X0221381Y0349270D03*
X0221381Y0349113D03*
X0221853Y0348010D03*
X0221853Y0351790D03*
X0222010Y0351947D03*
X0234814Y0314790D03*
X0235286Y0313687D03*
X0235286Y0313530D03*
X0235286Y0313372D03*
X0235286Y0313215D03*
X0234814Y0311010D03*
X0234656Y0310853D03*
X0195786Y0313372D03*
X0195786Y0313530D03*
X0195786Y0313687D03*
X0195314Y0311010D03*
X0181613Y0311798D03*
X0181613Y0311955D03*
X0155629Y0312270D03*
X0155629Y0313687D03*
X0155156Y0314790D03*
X0154999Y0310853D03*
X0142243Y0310853D03*
X0141613Y0312585D03*
X0141613Y0312743D03*
X0141613Y0313215D03*
X0141613Y0313372D03*
X0142085Y0314790D03*
X0115286Y0313187D03*
X0115286Y0313030D03*
X0115129Y0313502D03*
X0114971Y0313817D03*
X0115286Y0311770D03*
X0115286Y0311613D03*
X0115129Y0311298D03*
X0115129Y0311140D03*
X0114971Y0310983D03*
X0100640Y0310983D03*
X0100483Y0311140D03*
X0100483Y0311298D03*
X0100325Y0311613D03*
X0100325Y0313187D03*
X0100483Y0313502D03*
X0100696Y0348983D03*
X0100538Y0349298D03*
X0100381Y0349613D03*
X0100381Y0349770D03*
X0100381Y0351030D03*
X0100381Y0351187D03*
X0100538Y0351502D03*
X0100538Y0351660D03*
X0100696Y0351817D03*
X0115026Y0351817D03*
X0115184Y0351660D03*
X0115184Y0351502D03*
X0115341Y0351187D03*
X0115341Y0349613D03*
X0115184Y0349298D03*
X0141038Y0349113D03*
X0141510Y0348010D03*
X0141038Y0350530D03*
X0141668Y0351947D03*
X0154424Y0351947D03*
X0155054Y0350215D03*
X0155054Y0350057D03*
X0155054Y0349585D03*
X0155054Y0349428D03*
X0154581Y0348010D03*
D30*
X0154975Y0349743D03*
X0180959Y0349743D03*
X0180959Y0349585D03*
X0180959Y0350687D03*
X0181589Y0351947D03*
X0181432Y0348010D03*
X0195235Y0314790D03*
X0195707Y0313215D03*
X0195707Y0313057D03*
X0195707Y0312113D03*
X0195077Y0310853D03*
X0235207Y0312113D03*
X0235207Y0313057D03*
X0221459Y0349743D03*
X0221459Y0350687D03*
X0141692Y0313057D03*
X0115050Y0313660D03*
X0114892Y0310825D03*
X0114735Y0310668D03*
X0100877Y0310668D03*
X0100719Y0310825D03*
X0100562Y0313660D03*
X0100719Y0313817D03*
X0100617Y0349140D03*
X0100774Y0351975D03*
X0100932Y0352132D03*
X0114790Y0352132D03*
X0114948Y0351975D03*
X0115105Y0349140D03*
X0114948Y0348983D03*
D31*
X0111798Y0349613D03*
X0111798Y0351345D03*
X0107703Y0351660D03*
X0108176Y0349298D03*
X0104081Y0349455D03*
X0103451Y0350085D03*
X0107491Y0313502D03*
X0107963Y0311140D03*
X0103869Y0311455D03*
X0103869Y0313187D03*
X0111585Y0313345D03*
X0112215Y0312715D03*
X0144684Y0312113D03*
X0144684Y0311955D03*
X0144841Y0313530D03*
X0144684Y0313687D03*
X0146101Y0314790D03*
X0148621Y0313372D03*
X0148621Y0313215D03*
X0150668Y0313215D03*
X0151140Y0314790D03*
X0152558Y0313687D03*
X0152715Y0313530D03*
X0152558Y0312113D03*
X0152558Y0311955D03*
X0152014Y0330798D03*
X0152014Y0331585D03*
X0150125Y0331585D03*
X0150125Y0331743D03*
X0153747Y0330798D03*
X0156739Y0330955D03*
X0156739Y0331113D03*
X0156739Y0331270D03*
X0156739Y0331428D03*
X0156739Y0331585D03*
X0158156Y0331585D03*
X0158156Y0331428D03*
X0158156Y0331270D03*
X0158156Y0331113D03*
X0158156Y0330955D03*
X0158156Y0330798D03*
X0158156Y0330640D03*
X0158156Y0330483D03*
X0158156Y0330325D03*
X0158156Y0330168D03*
X0158156Y0330010D03*
X0158156Y0331743D03*
X0158156Y0331900D03*
X0158156Y0332057D03*
X0158156Y0332215D03*
X0158156Y0332372D03*
X0158156Y0332530D03*
X0158156Y0333475D03*
X0158156Y0333632D03*
X0158156Y0333790D03*
X0158156Y0333947D03*
X0160361Y0333475D03*
X0160361Y0333317D03*
X0160361Y0333160D03*
X0160361Y0333002D03*
X0160361Y0332845D03*
X0160361Y0331585D03*
X0160361Y0331428D03*
X0160361Y0331270D03*
X0160361Y0331113D03*
X0160361Y0330955D03*
X0160361Y0330798D03*
X0163196Y0331743D03*
X0164770Y0331428D03*
X0164770Y0331270D03*
X0164770Y0331113D03*
X0166660Y0330955D03*
X0166818Y0331270D03*
X0166660Y0331585D03*
X0168077Y0331585D03*
X0168077Y0331428D03*
X0168077Y0331270D03*
X0168077Y0331113D03*
X0169967Y0331113D03*
X0169967Y0331270D03*
X0169967Y0331428D03*
X0169967Y0331585D03*
X0171385Y0331743D03*
X0171385Y0331900D03*
X0171385Y0332057D03*
X0171385Y0332215D03*
X0171385Y0332372D03*
X0171385Y0330640D03*
X0171385Y0330483D03*
X0171385Y0330325D03*
X0171385Y0330168D03*
X0171385Y0330010D03*
X0169967Y0329853D03*
X0169967Y0329695D03*
X0169967Y0329538D03*
X0169967Y0329380D03*
X0169967Y0329223D03*
X0169967Y0329065D03*
X0169967Y0328908D03*
X0173904Y0330010D03*
X0173904Y0330168D03*
X0173904Y0330325D03*
X0173904Y0330483D03*
X0173904Y0330640D03*
X0173904Y0330798D03*
X0173904Y0330955D03*
X0173904Y0331113D03*
X0173904Y0331270D03*
X0173904Y0331428D03*
X0173904Y0331585D03*
X0175322Y0331585D03*
X0175322Y0331428D03*
X0175322Y0331270D03*
X0175322Y0331113D03*
X0177369Y0331113D03*
X0177369Y0331270D03*
X0177369Y0331428D03*
X0177369Y0331585D03*
X0177369Y0330955D03*
X0179416Y0330798D03*
X0181306Y0331113D03*
X0181306Y0331270D03*
X0181306Y0331428D03*
X0183353Y0331428D03*
X0183353Y0331270D03*
X0183353Y0331113D03*
X0184770Y0331113D03*
X0184770Y0331270D03*
X0184770Y0331428D03*
X0184770Y0331585D03*
X0184770Y0329695D03*
X0184770Y0329538D03*
X0185873Y0330010D03*
X0186660Y0331113D03*
X0186660Y0331270D03*
X0186660Y0331428D03*
X0186660Y0331585D03*
X0185369Y0348010D03*
X0183951Y0350845D03*
X0188991Y0351790D03*
X0224451Y0350845D03*
X0225711Y0349585D03*
X0226026Y0348955D03*
X0226184Y0348640D03*
X0226341Y0348483D03*
X0228388Y0348955D03*
X0229806Y0348010D03*
X0226341Y0351475D03*
X0226861Y0314790D03*
X0228278Y0313845D03*
X0230325Y0314317D03*
X0230483Y0314160D03*
X0230640Y0313845D03*
X0230955Y0313215D03*
X0232215Y0311955D03*
X0230325Y0311325D03*
X0192715Y0311955D03*
X0191298Y0314790D03*
X0187676Y0311010D03*
X0151983Y0349113D03*
X0151825Y0349270D03*
X0151983Y0350687D03*
X0151983Y0350845D03*
X0150566Y0348010D03*
X0148046Y0349428D03*
X0148046Y0349585D03*
X0145999Y0349585D03*
X0145526Y0348010D03*
X0144109Y0349113D03*
X0143951Y0349270D03*
X0144109Y0350687D03*
X0144109Y0350845D03*
D32*
X0141432Y0351790D03*
X0140959Y0350687D03*
X0141117Y0348955D03*
X0141117Y0348798D03*
X0141117Y0348640D03*
X0141274Y0348325D03*
X0141432Y0348168D03*
X0154660Y0348168D03*
X0154818Y0348325D03*
X0154975Y0348640D03*
X0155133Y0349113D03*
X0155133Y0349270D03*
X0155133Y0350372D03*
X0155133Y0350530D03*
X0155133Y0350687D03*
X0154660Y0351790D03*
X0180959Y0351160D03*
X0180959Y0351002D03*
X0180959Y0350845D03*
X0181117Y0351475D03*
X0180959Y0348955D03*
X0180959Y0348798D03*
X0180959Y0348640D03*
X0181117Y0348483D03*
X0181117Y0348325D03*
X0181274Y0348168D03*
X0195133Y0351160D03*
X0221459Y0351002D03*
X0221459Y0350845D03*
X0221459Y0348955D03*
X0221459Y0348798D03*
X0221459Y0348640D03*
X0221617Y0348483D03*
X0221617Y0348325D03*
X0221774Y0348168D03*
X0226499Y0347853D03*
X0230168Y0314947D03*
X0234892Y0314632D03*
X0235050Y0314475D03*
X0235050Y0314317D03*
X0235207Y0314160D03*
X0235207Y0314002D03*
X0235207Y0313845D03*
X0235207Y0311955D03*
X0235207Y0311798D03*
X0195707Y0311798D03*
X0195707Y0311955D03*
X0195707Y0311640D03*
X0195550Y0311325D03*
X0195707Y0313845D03*
X0195707Y0314002D03*
X0195707Y0314160D03*
X0195550Y0314317D03*
X0195550Y0314475D03*
X0195392Y0314632D03*
X0181534Y0311640D03*
X0155707Y0312113D03*
X0155235Y0311010D03*
X0155550Y0313845D03*
X0155550Y0314002D03*
X0155550Y0314160D03*
X0155392Y0314475D03*
X0155235Y0314632D03*
X0142007Y0314632D03*
X0141849Y0314475D03*
X0141692Y0314160D03*
X0141534Y0313687D03*
X0141534Y0313530D03*
X0141534Y0312428D03*
X0141534Y0312270D03*
X0141534Y0312113D03*
X0142007Y0311010D03*
X0115365Y0311928D03*
X0115365Y0312085D03*
X0115365Y0312243D03*
X0115365Y0312400D03*
X0115365Y0312557D03*
X0115365Y0312715D03*
X0115365Y0312872D03*
X0115207Y0313345D03*
X0115207Y0311455D03*
X0100404Y0311455D03*
X0100247Y0311770D03*
X0100247Y0311928D03*
X0100247Y0312085D03*
X0100247Y0312243D03*
X0100247Y0312400D03*
X0100247Y0312557D03*
X0100247Y0312715D03*
X0100247Y0312872D03*
X0100247Y0313030D03*
X0100404Y0313345D03*
X0100459Y0349455D03*
X0100302Y0349928D03*
X0100302Y0350085D03*
X0100302Y0350243D03*
X0100302Y0350400D03*
X0100302Y0350557D03*
X0100302Y0350715D03*
X0100302Y0350872D03*
X0100459Y0351345D03*
X0115262Y0351345D03*
X0115420Y0351030D03*
X0115420Y0350872D03*
X0115420Y0350715D03*
X0115420Y0350557D03*
X0115420Y0350400D03*
X0115420Y0350243D03*
X0115420Y0350085D03*
X0115420Y0349928D03*
X0115420Y0349770D03*
X0115262Y0349455D03*
D33*
X0111719Y0349455D03*
X0108255Y0349455D03*
X0108255Y0349613D03*
X0107625Y0351502D03*
X0105735Y0352290D03*
X0103373Y0350715D03*
X0103373Y0350557D03*
X0103373Y0350400D03*
X0103373Y0350243D03*
X0103948Y0313345D03*
X0107412Y0313345D03*
X0107412Y0313187D03*
X0108042Y0311298D03*
X0109932Y0310510D03*
X0112294Y0312085D03*
X0112294Y0312243D03*
X0112294Y0312400D03*
X0112294Y0312557D03*
X0150747Y0313372D03*
X0153353Y0329853D03*
X0153825Y0330955D03*
X0153825Y0331113D03*
X0153825Y0331270D03*
X0153825Y0331428D03*
X0153825Y0331585D03*
X0153825Y0331743D03*
X0153825Y0331900D03*
X0153825Y0332057D03*
X0153825Y0332215D03*
X0153825Y0332372D03*
X0153825Y0332530D03*
X0153825Y0332687D03*
X0153825Y0332845D03*
X0153825Y0333002D03*
X0153825Y0333160D03*
X0153825Y0333317D03*
X0153825Y0333475D03*
X0153825Y0333632D03*
X0153825Y0333790D03*
X0153825Y0333947D03*
X0158235Y0333317D03*
X0159810Y0329853D03*
X0163274Y0330010D03*
X0163274Y0330168D03*
X0163274Y0330325D03*
X0163274Y0330483D03*
X0163274Y0330640D03*
X0163274Y0330798D03*
X0163274Y0330955D03*
X0163274Y0331113D03*
X0163274Y0331270D03*
X0163274Y0331428D03*
X0163274Y0331585D03*
X0166739Y0331428D03*
X0166739Y0331113D03*
X0170046Y0328750D03*
X0172723Y0332687D03*
X0178865Y0329853D03*
X0179495Y0330955D03*
X0179495Y0331113D03*
X0179495Y0331270D03*
X0179495Y0331428D03*
X0179495Y0331585D03*
X0179495Y0332845D03*
X0179495Y0333002D03*
X0179495Y0333160D03*
X0179495Y0333317D03*
X0179495Y0333475D03*
X0179495Y0333632D03*
X0182487Y0329853D03*
X0184692Y0329853D03*
X0184692Y0330010D03*
X0186652Y0313372D03*
X0186652Y0313215D03*
X0187597Y0311168D03*
X0189329Y0313845D03*
X0191219Y0313845D03*
X0192636Y0313845D03*
X0192636Y0311798D03*
X0191219Y0311010D03*
X0226782Y0311010D03*
X0230562Y0314002D03*
X0232136Y0313845D03*
X0232136Y0311798D03*
X0226105Y0348798D03*
X0224530Y0348955D03*
X0224530Y0351002D03*
X0229885Y0351790D03*
X0190014Y0349585D03*
X0190014Y0349428D03*
X0189070Y0351632D03*
X0187337Y0348955D03*
X0185448Y0348955D03*
X0184030Y0348955D03*
X0184030Y0351002D03*
X0185448Y0351790D03*
X0145920Y0349428D03*
D34*
X0151148Y0331270D03*
X0151148Y0331113D03*
X0165636Y0330483D03*
X0165636Y0332057D03*
X0169101Y0332057D03*
X0169101Y0331900D03*
X0169101Y0330798D03*
X0169101Y0330640D03*
X0176345Y0330640D03*
X0176345Y0330483D03*
X0176345Y0331900D03*
X0176345Y0332057D03*
X0182172Y0332057D03*
X0182172Y0332215D03*
X0182172Y0330483D03*
X0182172Y0330325D03*
X0185636Y0330640D03*
X0185636Y0330798D03*
X0185636Y0331900D03*
X0195054Y0351632D03*
X0195054Y0351790D03*
X0228782Y0350530D03*
X0228782Y0350372D03*
X0228782Y0350215D03*
X0228782Y0350057D03*
X0228782Y0349900D03*
X0228782Y0349743D03*
X0228782Y0349585D03*
X0228782Y0349428D03*
X0234451Y0351947D03*
X0234609Y0351790D03*
X0234609Y0351632D03*
X0227885Y0313372D03*
X0227885Y0313215D03*
X0227885Y0313057D03*
X0227885Y0312900D03*
X0227885Y0312743D03*
X0227885Y0312585D03*
X0227885Y0312428D03*
X0227885Y0312270D03*
X0222215Y0310853D03*
X0222058Y0311010D03*
X0222058Y0311168D03*
X0181613Y0311168D03*
X0181613Y0311010D03*
X0111034Y0313187D03*
X0104633Y0349613D03*
D35*
X0104554Y0349770D03*
X0104554Y0349928D03*
X0141117Y0351317D03*
X0146314Y0351947D03*
X0149778Y0351947D03*
X0150723Y0350372D03*
X0154975Y0351317D03*
X0151070Y0331900D03*
X0151070Y0331428D03*
X0165715Y0331743D03*
X0165715Y0331900D03*
X0165715Y0330798D03*
X0165715Y0330640D03*
X0182251Y0330640D03*
X0182251Y0330798D03*
X0182251Y0331743D03*
X0182251Y0331900D03*
X0195133Y0351475D03*
X0194818Y0351947D03*
X0234688Y0351475D03*
X0234688Y0351317D03*
X0221979Y0311483D03*
X0221979Y0311325D03*
X0181849Y0310853D03*
X0181534Y0311325D03*
X0155550Y0311483D03*
X0150353Y0310853D03*
X0146888Y0310853D03*
X0145944Y0312428D03*
X0141692Y0311483D03*
X0111113Y0312872D03*
X0111113Y0313030D03*
D36*
X0108436Y0312400D03*
X0107018Y0312243D03*
X0107231Y0350400D03*
X0108648Y0350557D03*
X0148046Y0350530D03*
X0148046Y0350372D03*
X0161936Y0331743D03*
X0176424Y0329695D03*
X0148621Y0312428D03*
X0148621Y0312270D03*
D37*
X0152479Y0314002D03*
X0144605Y0314002D03*
X0155243Y0330955D03*
X0155243Y0331585D03*
X0159495Y0331743D03*
X0150991Y0332845D03*
X0152062Y0348798D03*
X0144188Y0348798D03*
X0172566Y0331743D03*
X0176345Y0332845D03*
X0179495Y0333790D03*
X0185794Y0329853D03*
X0185077Y0313057D03*
X0185077Y0312900D03*
X0190904Y0312113D03*
X0226625Y0311483D03*
X0226625Y0311325D03*
X0226625Y0314160D03*
X0226625Y0314317D03*
X0230562Y0312585D03*
X0230042Y0348483D03*
X0230042Y0348640D03*
X0230042Y0351317D03*
X0230042Y0351475D03*
X0226105Y0350215D03*
X0191589Y0349900D03*
X0191589Y0349743D03*
X0185762Y0350687D03*
X0108570Y0350400D03*
X0107310Y0350557D03*
X0107310Y0350715D03*
X0107097Y0312400D03*
X0108357Y0312243D03*
X0108357Y0312085D03*
D38*
X0114577Y0310510D03*
X0101034Y0310510D03*
X0101089Y0352290D03*
X0114633Y0352290D03*
X0181117Y0350057D03*
X0194975Y0350215D03*
X0194975Y0350372D03*
X0221617Y0350057D03*
X0235050Y0312743D03*
X0195550Y0312743D03*
X0181692Y0312585D03*
X0181692Y0312428D03*
D39*
X0185156Y0311483D03*
X0187833Y0310853D03*
X0188936Y0312743D03*
X0188936Y0312900D03*
X0188936Y0313057D03*
X0186731Y0314160D03*
X0185715Y0328750D03*
X0179101Y0330325D03*
X0179101Y0330483D03*
X0160046Y0330640D03*
X0155794Y0330010D03*
X0155794Y0332530D03*
X0150912Y0329853D03*
X0148621Y0314002D03*
X0150196Y0311640D03*
X0150196Y0311483D03*
X0147046Y0311483D03*
X0147046Y0311640D03*
X0107806Y0310510D03*
X0148046Y0348798D03*
X0149621Y0351160D03*
X0149621Y0351317D03*
X0146471Y0351317D03*
X0146471Y0351160D03*
X0107861Y0352290D03*
X0187731Y0350057D03*
X0187731Y0349900D03*
X0187731Y0349743D03*
X0188833Y0351947D03*
X0191510Y0351317D03*
X0189936Y0348640D03*
X0226499Y0348168D03*
X0230168Y0314632D03*
D40*
X0148621Y0316050D03*
X0148621Y0309750D03*
X0148046Y0346750D03*
X0148046Y0353050D03*
D41*
X0148046Y0352735D03*
X0148046Y0347065D03*
X0148621Y0315735D03*
X0148621Y0310065D03*
X0228593Y0310223D03*
X0228593Y0315577D03*
X0228073Y0347223D03*
X0228073Y0352577D03*
D42*
X0228073Y0352262D03*
X0228073Y0347538D03*
X0228593Y0315262D03*
X0228593Y0310538D03*
X0148621Y0310223D03*
X0148621Y0315577D03*
X0148046Y0347223D03*
X0148046Y0352577D03*
D43*
X0148046Y0352262D03*
X0148046Y0347538D03*
X0148621Y0315262D03*
X0148621Y0310538D03*
X0188046Y0347380D03*
X0188046Y0352420D03*
X0188621Y0315420D03*
X0188621Y0310380D03*
D44*
X0224341Y0314947D03*
X0232325Y0347853D03*
X0148046Y0347853D03*
X0148621Y0314947D03*
D45*
X0148621Y0314790D03*
X0148621Y0314632D03*
X0146259Y0312585D03*
X0150912Y0330010D03*
X0151070Y0332372D03*
X0155794Y0332215D03*
X0155951Y0331900D03*
X0155951Y0330640D03*
X0155794Y0330325D03*
X0160203Y0331900D03*
X0160203Y0332057D03*
X0160203Y0332215D03*
X0160203Y0332372D03*
X0160203Y0332530D03*
X0165400Y0332530D03*
X0165400Y0330010D03*
X0169337Y0332530D03*
X0173274Y0332530D03*
X0173274Y0332372D03*
X0173274Y0332215D03*
X0173274Y0332057D03*
X0179259Y0332530D03*
X0185400Y0332530D03*
X0185400Y0330168D03*
X0185715Y0328908D03*
X0191928Y0313687D03*
X0185156Y0310853D03*
X0184739Y0349113D03*
X0191510Y0351947D03*
X0225239Y0349113D03*
X0226499Y0348010D03*
X0230168Y0314790D03*
X0231428Y0313687D03*
X0150408Y0350215D03*
X0148046Y0348168D03*
X0148046Y0348010D03*
D46*
X0148046Y0348325D03*
X0148046Y0348483D03*
X0150566Y0349585D03*
X0150566Y0349743D03*
X0149621Y0351475D03*
X0146471Y0351475D03*
X0160203Y0332687D03*
X0155794Y0330168D03*
X0148621Y0314475D03*
X0148621Y0314317D03*
X0146101Y0313215D03*
X0146101Y0313057D03*
X0147046Y0311325D03*
X0150196Y0311325D03*
X0185156Y0311168D03*
X0186731Y0314317D03*
X0189936Y0348483D03*
X0191510Y0351632D03*
D47*
X0195054Y0351317D03*
X0189699Y0348010D03*
X0181196Y0351632D03*
X0181038Y0351317D03*
X0155054Y0351160D03*
X0155054Y0351002D03*
X0155054Y0350845D03*
X0154896Y0351475D03*
X0154739Y0351632D03*
X0155054Y0348955D03*
X0155054Y0348798D03*
X0154896Y0348483D03*
X0141196Y0348483D03*
X0141038Y0350845D03*
X0141038Y0351002D03*
X0141038Y0351160D03*
X0141196Y0351475D03*
X0141353Y0351632D03*
X0141770Y0314317D03*
X0141613Y0314002D03*
X0141613Y0313845D03*
X0141613Y0311955D03*
X0141613Y0311798D03*
X0141613Y0311640D03*
X0141770Y0311325D03*
X0141928Y0311168D03*
X0155314Y0311168D03*
X0155471Y0311325D03*
X0155629Y0311640D03*
X0155629Y0311798D03*
X0155629Y0311955D03*
X0155471Y0314317D03*
X0181613Y0311483D03*
X0186967Y0314790D03*
X0195471Y0311168D03*
X0195629Y0311483D03*
X0234971Y0311168D03*
X0235129Y0311325D03*
X0235129Y0311483D03*
X0235286Y0311640D03*
X0221381Y0351160D03*
X0221538Y0351317D03*
X0221538Y0351475D03*
X0221696Y0351632D03*
D48*
X0194739Y0349428D03*
X0194739Y0349270D03*
X0194581Y0348955D03*
X0194581Y0348798D03*
X0194424Y0348483D03*
X0194266Y0348168D03*
X0181353Y0350215D03*
X0182400Y0314632D03*
X0182243Y0314317D03*
X0182085Y0314002D03*
X0182085Y0313845D03*
X0181928Y0313530D03*
X0181928Y0313372D03*
X0195314Y0312585D03*
X0155156Y0312585D03*
X0155156Y0312743D03*
X0155156Y0312900D03*
X0155156Y0313057D03*
X0155156Y0313215D03*
X0155156Y0313372D03*
X0141510Y0349428D03*
X0141510Y0349585D03*
X0141510Y0349743D03*
X0141510Y0349900D03*
X0141510Y0350057D03*
X0141510Y0350215D03*
D49*
X0146392Y0351632D03*
X0149699Y0351632D03*
X0150487Y0350057D03*
X0150487Y0349900D03*
X0155715Y0332372D03*
X0162644Y0332372D03*
X0162644Y0332215D03*
X0162644Y0332057D03*
X0162644Y0331900D03*
X0162644Y0332530D03*
X0169416Y0330010D03*
X0173353Y0331900D03*
X0176345Y0332372D03*
X0176345Y0330168D03*
X0179337Y0331900D03*
X0179337Y0332687D03*
X0184818Y0349270D03*
X0189857Y0348325D03*
X0191589Y0351790D03*
X0225318Y0349270D03*
X0231349Y0313530D03*
X0191849Y0313530D03*
X0186810Y0314475D03*
X0185077Y0311010D03*
X0150274Y0311168D03*
X0146967Y0311168D03*
X0146180Y0312743D03*
X0146180Y0312900D03*
D50*
X0154841Y0312428D03*
X0141825Y0350372D03*
X0222845Y0314160D03*
X0222845Y0314002D03*
X0222845Y0313845D03*
X0222845Y0311955D03*
X0222845Y0311798D03*
X0222845Y0311640D03*
X0233822Y0348640D03*
X0233822Y0348798D03*
X0233822Y0348955D03*
X0233822Y0350845D03*
X0233822Y0351002D03*
X0233822Y0351160D03*
D51*
X0226420Y0351947D03*
X0185479Y0332372D03*
X0185479Y0330325D03*
X0185636Y0329223D03*
X0185636Y0329065D03*
X0182014Y0330010D03*
X0182014Y0332530D03*
X0179337Y0332372D03*
X0179337Y0332215D03*
X0179337Y0332057D03*
X0176345Y0332215D03*
X0176345Y0330325D03*
X0169259Y0330168D03*
X0169259Y0332372D03*
X0165479Y0332372D03*
X0165479Y0330168D03*
X0155873Y0330483D03*
X0155873Y0332057D03*
X0151306Y0330955D03*
X0151148Y0330483D03*
X0150991Y0330325D03*
X0150991Y0330168D03*
X0150991Y0332215D03*
X0149699Y0351790D03*
X0146392Y0351790D03*
X0146967Y0311010D03*
X0150274Y0311010D03*
X0230247Y0310853D03*
D52*
X0228593Y0309908D03*
X0228593Y0315892D03*
X0228073Y0346908D03*
X0228073Y0352892D03*
X0188046Y0353050D03*
X0188046Y0346750D03*
X0188621Y0316050D03*
X0188621Y0309750D03*
D53*
X0188621Y0309908D03*
X0188621Y0315892D03*
X0188046Y0346908D03*
X0188046Y0352892D03*
D54*
X0194660Y0349113D03*
X0194503Y0348640D03*
X0194345Y0348325D03*
X0194188Y0348010D03*
X0182479Y0314790D03*
X0182322Y0314475D03*
X0182164Y0314160D03*
X0182007Y0313687D03*
D55*
X0186888Y0314632D03*
X0185558Y0329380D03*
X0185558Y0330483D03*
X0185558Y0332057D03*
X0185558Y0332215D03*
X0182093Y0332372D03*
X0182093Y0330168D03*
X0169180Y0330325D03*
X0169180Y0330483D03*
X0169180Y0332215D03*
X0165558Y0332215D03*
X0165558Y0330325D03*
X0151070Y0332057D03*
X0189778Y0348168D03*
X0228861Y0349270D03*
X0228861Y0350687D03*
X0227806Y0313530D03*
X0227806Y0312113D03*
D56*
X0223081Y0314632D03*
X0223081Y0314790D03*
X0222924Y0314475D03*
X0222924Y0314317D03*
X0234577Y0312428D03*
X0233585Y0348010D03*
X0233585Y0348168D03*
X0233743Y0348325D03*
X0233743Y0348483D03*
X0222089Y0350372D03*
X0181589Y0350372D03*
X0195077Y0312428D03*
D57*
X0194841Y0312270D03*
X0181825Y0350530D03*
D58*
X0228073Y0353050D03*
X0228073Y0346750D03*
X0228593Y0316050D03*
X0228593Y0309750D03*
D59*
X0222766Y0312113D03*
X0222766Y0312270D03*
X0222766Y0312428D03*
X0222766Y0312585D03*
X0222766Y0312743D03*
X0222766Y0312900D03*
X0222766Y0313057D03*
X0222766Y0313215D03*
X0222766Y0313372D03*
X0222766Y0313530D03*
X0222766Y0313687D03*
X0234420Y0312270D03*
X0233900Y0349113D03*
X0233900Y0349270D03*
X0233900Y0349428D03*
X0233900Y0349585D03*
X0233900Y0349743D03*
X0233900Y0349900D03*
X0233900Y0350057D03*
X0233900Y0350215D03*
X0233900Y0350372D03*
X0233900Y0350530D03*
X0233900Y0350687D03*
X0222247Y0350530D03*
D60*
X0180136Y0317660D03*
X0179073Y0315416D03*
X0178483Y0315416D03*
X0167381Y0327660D03*
X0160688Y0319313D03*
D61*
X0167440Y0327581D03*
X0171140Y0319983D03*
D62*
X0167636Y0327483D03*
X0180077Y0318152D03*
D63*
X0179743Y0321439D03*
X0167892Y0327384D03*
D64*
X0168030Y0327286D03*
D65*
X0168070Y0327187D03*
X0168266Y0326991D03*
X0164487Y0320180D03*
X0160392Y0319510D03*
X0172558Y0320180D03*
X0173621Y0319707D03*
D66*
X0173325Y0322719D03*
X0179743Y0321262D03*
X0168168Y0327089D03*
D67*
X0168759Y0326892D03*
D68*
X0168818Y0326794D03*
X0173266Y0322620D03*
X0178542Y0315809D03*
X0179605Y0319117D03*
X0156259Y0318920D03*
D69*
X0163010Y0319884D03*
X0166711Y0318821D03*
X0171081Y0319884D03*
X0170609Y0326695D03*
X0179743Y0322325D03*
X0179743Y0322128D03*
D70*
X0178542Y0315711D03*
X0172991Y0320475D03*
X0170156Y0319018D03*
X0168896Y0326695D03*
D71*
X0169487Y0326597D03*
X0163070Y0319510D03*
X0176770Y0319313D03*
D72*
X0178463Y0315514D03*
X0179644Y0322522D03*
X0171967Y0326498D03*
X0158542Y0319018D03*
X0156022Y0318624D03*
X0155550Y0318624D03*
D73*
X0169684Y0326498D03*
X0176967Y0320869D03*
X0179014Y0319884D03*
D74*
X0178581Y0319707D03*
X0173227Y0322424D03*
X0170314Y0326400D03*
D75*
X0173325Y0326302D03*
D76*
X0170412Y0326302D03*
X0167302Y0319609D03*
D77*
X0173325Y0326203D03*
X0175373Y0319786D03*
X0179743Y0322030D03*
X0179743Y0322227D03*
X0180136Y0318054D03*
D78*
X0170570Y0326203D03*
X0167262Y0319510D03*
D79*
X0163325Y0321164D03*
X0171199Y0326124D03*
D80*
X0171377Y0326026D03*
D81*
X0174644Y0325928D03*
X0179684Y0322424D03*
D82*
X0171573Y0325928D03*
D83*
X0172007Y0325829D03*
D84*
X0172203Y0325731D03*
X0175117Y0324471D03*
X0164329Y0321361D03*
D85*
X0164959Y0321538D03*
X0172361Y0325632D03*
D86*
X0172932Y0325534D03*
D87*
X0173089Y0325435D03*
D88*
X0173227Y0325337D03*
D89*
X0173385Y0325239D03*
D90*
X0173660Y0325140D03*
X0162007Y0320573D03*
D91*
X0173798Y0325042D03*
D92*
X0174152Y0324943D03*
D93*
X0174448Y0324845D03*
D94*
X0174585Y0324746D03*
X0159625Y0318250D03*
D95*
X0174802Y0324648D03*
D96*
X0174979Y0324550D03*
D97*
X0175373Y0324372D03*
X0173129Y0322128D03*
D98*
X0175550Y0324274D03*
D99*
X0175707Y0324176D03*
D100*
X0175944Y0324077D03*
D101*
X0176042Y0323979D03*
X0175373Y0318152D03*
D102*
X0178247Y0319510D03*
X0176199Y0323880D03*
X0170766Y0317463D03*
X0167735Y0319983D03*
D103*
X0175570Y0317955D03*
X0176436Y0323782D03*
D104*
X0167873Y0323782D03*
D105*
X0176573Y0323683D03*
D106*
X0179684Y0320967D03*
X0170668Y0319510D03*
X0167833Y0323683D03*
D107*
X0176692Y0323585D03*
X0178542Y0319609D03*
D108*
X0171770Y0315317D03*
X0170314Y0319215D03*
X0167794Y0323585D03*
X0164290Y0319018D03*
D109*
X0176869Y0323487D03*
D110*
X0170215Y0319117D03*
X0167774Y0323487D03*
X0164388Y0318920D03*
D111*
X0163109Y0319215D03*
X0167203Y0319412D03*
X0169054Y0320475D03*
X0169841Y0320869D03*
X0176062Y0319018D03*
X0177007Y0323388D03*
X0157085Y0319215D03*
D112*
X0166908Y0319018D03*
X0167774Y0323388D03*
X0171475Y0315514D03*
X0178562Y0316105D03*
X0178562Y0316971D03*
D113*
X0176199Y0319117D03*
X0177066Y0323290D03*
X0169979Y0320967D03*
D114*
X0167676Y0323290D03*
X0164684Y0318526D03*
X0172164Y0317069D03*
X0178581Y0316676D03*
X0178581Y0316400D03*
X0177715Y0322227D03*
D115*
X0177262Y0323191D03*
D116*
X0177617Y0322522D03*
X0176829Y0320672D03*
X0172066Y0317168D03*
X0172066Y0316774D03*
X0167696Y0323191D03*
D117*
X0177262Y0323093D03*
D118*
X0177007Y0320967D03*
X0176928Y0320770D03*
X0171967Y0316676D03*
X0167597Y0323093D03*
D119*
X0171810Y0316400D03*
X0177361Y0323014D03*
D120*
X0173719Y0320967D03*
X0175451Y0317266D03*
X0175451Y0317069D03*
X0167499Y0323014D03*
D121*
X0179585Y0322916D03*
X0179585Y0322719D03*
X0180176Y0317758D03*
D122*
X0175451Y0317168D03*
X0171869Y0316498D03*
X0177420Y0322916D03*
D123*
X0175471Y0317365D03*
X0167479Y0322916D03*
D124*
X0157735Y0318920D03*
X0179585Y0322817D03*
D125*
X0177459Y0322817D03*
X0171908Y0316597D03*
X0171711Y0316203D03*
X0171633Y0316006D03*
D126*
X0167381Y0322817D03*
X0178759Y0319786D03*
D127*
X0177518Y0322719D03*
X0173621Y0320869D03*
X0175471Y0316971D03*
D128*
X0167262Y0322719D03*
D129*
X0172164Y0319786D03*
X0174014Y0319983D03*
X0179644Y0322620D03*
X0180117Y0317857D03*
X0158266Y0318526D03*
D130*
X0177558Y0322620D03*
D131*
X0169644Y0320770D03*
X0167203Y0322620D03*
X0157203Y0319313D03*
D132*
X0173227Y0322522D03*
D133*
X0175550Y0317758D03*
X0167007Y0322522D03*
D134*
X0166948Y0319117D03*
X0172105Y0316872D03*
X0173483Y0320770D03*
X0177656Y0322424D03*
X0178522Y0316597D03*
D135*
X0175570Y0317857D03*
X0166908Y0322424D03*
D136*
X0177715Y0322325D03*
X0179251Y0320081D03*
X0178581Y0316774D03*
X0178581Y0316302D03*
D137*
X0173168Y0322325D03*
X0166751Y0322325D03*
D138*
X0173188Y0322227D03*
D139*
X0166455Y0322227D03*
D140*
X0176337Y0320278D03*
X0177794Y0321931D03*
X0177794Y0322128D03*
X0179448Y0318821D03*
D141*
X0167833Y0320081D03*
X0166377Y0322128D03*
D142*
X0177794Y0322030D03*
X0179448Y0318920D03*
X0179251Y0318329D03*
D143*
X0173168Y0322030D03*
D144*
X0166180Y0322030D03*
D145*
X0173955Y0319884D03*
X0179782Y0321931D03*
X0160530Y0319412D03*
D146*
X0173148Y0321931D03*
D147*
X0165944Y0321931D03*
D148*
X0165885Y0320376D03*
X0164625Y0319983D03*
X0171436Y0315140D03*
X0179782Y0321833D03*
D149*
X0174310Y0321833D03*
D150*
X0165688Y0321833D03*
D151*
X0179743Y0321735D03*
D152*
X0174211Y0321735D03*
D153*
X0165550Y0321735D03*
D154*
X0179743Y0321636D03*
D155*
X0174113Y0321636D03*
D156*
X0165255Y0321636D03*
X0164664Y0321439D03*
D157*
X0179802Y0321538D03*
D158*
X0173995Y0321538D03*
D159*
X0173857Y0321439D03*
D160*
X0179743Y0321361D03*
X0179743Y0321164D03*
D161*
X0173759Y0321361D03*
D162*
X0173660Y0321262D03*
D163*
X0178050Y0319412D03*
X0163759Y0321262D03*
D164*
X0173522Y0321164D03*
D165*
X0173581Y0319609D03*
X0179684Y0321065D03*
X0155865Y0318821D03*
D166*
X0173463Y0321065D03*
D167*
X0168089Y0320278D03*
X0163010Y0321065D03*
D168*
X0162892Y0320967D03*
X0158680Y0319707D03*
D169*
X0170510Y0319412D03*
X0179644Y0320869D03*
D170*
X0162577Y0320869D03*
D171*
X0161790Y0318920D03*
X0170451Y0319313D03*
X0171829Y0315219D03*
X0178719Y0315613D03*
X0179585Y0320770D03*
D172*
X0162440Y0320770D03*
D173*
X0179644Y0320672D03*
D174*
X0179290Y0318624D03*
X0179290Y0318428D03*
X0173266Y0320672D03*
D175*
X0176436Y0319215D03*
X0169546Y0320672D03*
D176*
X0162341Y0320672D03*
D177*
X0164192Y0319117D03*
X0179546Y0320573D03*
X0179743Y0319313D03*
D178*
X0176711Y0320573D03*
D179*
X0179349Y0320180D03*
X0179349Y0318723D03*
X0178562Y0316872D03*
X0178562Y0316203D03*
X0178562Y0316006D03*
X0173129Y0320573D03*
X0171475Y0315416D03*
D180*
X0175510Y0317660D03*
X0169290Y0320573D03*
X0160629Y0318526D03*
X0157833Y0317463D03*
D181*
X0179507Y0320475D03*
D182*
X0176593Y0320475D03*
X0172696Y0319018D03*
X0172105Y0316971D03*
X0171514Y0315711D03*
X0178522Y0316498D03*
D183*
X0165786Y0320475D03*
X0156849Y0318821D03*
D184*
X0161908Y0320475D03*
D185*
X0179448Y0320376D03*
D186*
X0179290Y0318526D03*
X0176495Y0320376D03*
X0172794Y0319117D03*
X0163070Y0319707D03*
D187*
X0166869Y0318920D03*
X0172892Y0320376D03*
X0173089Y0319313D03*
X0176081Y0320180D03*
D188*
X0168857Y0320376D03*
D189*
X0161810Y0320376D03*
D190*
X0179349Y0320278D03*
X0179546Y0319018D03*
D191*
X0175904Y0320081D03*
X0173188Y0319412D03*
X0172794Y0320278D03*
D192*
X0161554Y0320278D03*
D193*
X0167932Y0320180D03*
D194*
X0159959Y0320180D03*
D195*
X0172499Y0320081D03*
D196*
X0170806Y0319609D03*
X0164585Y0320081D03*
D197*
X0159723Y0320081D03*
D198*
X0179113Y0319983D03*
D199*
X0178877Y0318054D03*
X0175766Y0319983D03*
D200*
X0172400Y0319983D03*
D201*
X0159428Y0319983D03*
D202*
X0175412Y0319884D03*
D203*
X0172203Y0319884D03*
X0172203Y0315042D03*
X0157440Y0318428D03*
D204*
X0159172Y0319884D03*
X0167558Y0319884D03*
D205*
X0173818Y0319786D03*
X0155825Y0318723D03*
D206*
X0170983Y0319786D03*
D207*
X0167499Y0319786D03*
D208*
X0163070Y0319786D03*
D209*
X0158936Y0319786D03*
D210*
X0170845Y0319707D03*
D211*
X0167459Y0319707D03*
D212*
X0163070Y0319609D03*
D213*
X0158542Y0319609D03*
D214*
X0161948Y0319117D03*
X0173325Y0319510D03*
D215*
X0157577Y0319510D03*
D216*
X0163070Y0319412D03*
D217*
X0157322Y0319412D03*
D218*
X0163070Y0319313D03*
X0167046Y0319313D03*
X0175510Y0317463D03*
D219*
X0179644Y0319215D03*
X0164487Y0318821D03*
D220*
X0164625Y0318624D03*
X0172892Y0319215D03*
D221*
X0167066Y0319215D03*
D222*
X0157046Y0319117D03*
D223*
X0159664Y0318624D03*
X0161908Y0319018D03*
D224*
X0156652Y0319018D03*
X0171613Y0315908D03*
D225*
X0173325Y0318920D03*
D226*
X0173227Y0318821D03*
D227*
X0161751Y0318821D03*
D228*
X0173089Y0318723D03*
D229*
X0164566Y0318723D03*
D230*
X0161692Y0318723D03*
D231*
X0172794Y0318624D03*
D232*
X0161514Y0318624D03*
D233*
X0172636Y0318526D03*
D234*
X0177755Y0315613D03*
X0157440Y0318526D03*
D235*
X0172459Y0318428D03*
D236*
X0164822Y0318428D03*
D237*
X0160294Y0318428D03*
D238*
X0170471Y0318329D03*
D239*
X0159566Y0318329D03*
D240*
X0172203Y0315140D03*
X0180077Y0318250D03*
D241*
X0178818Y0318250D03*
D242*
X0170373Y0318250D03*
D243*
X0178818Y0318152D03*
D244*
X0164231Y0318152D03*
D245*
X0175471Y0318054D03*
D246*
X0164192Y0318054D03*
D247*
X0171436Y0315042D03*
X0179113Y0315514D03*
X0180176Y0317955D03*
D248*
X0178916Y0317955D03*
X0178916Y0317758D03*
X0178916Y0317561D03*
D249*
X0164133Y0317955D03*
D250*
X0178916Y0317857D03*
X0178916Y0317660D03*
X0178916Y0317463D03*
D251*
X0164231Y0317857D03*
D252*
X0164290Y0317758D03*
D253*
X0164329Y0317660D03*
D254*
X0175510Y0317561D03*
D255*
X0164448Y0317561D03*
D256*
X0178955Y0317365D03*
D257*
X0171534Y0317365D03*
D258*
X0178719Y0317266D03*
D259*
X0171770Y0317266D03*
D260*
X0178660Y0317168D03*
X0178581Y0315908D03*
D261*
X0178621Y0317069D03*
D262*
X0171770Y0316302D03*
D263*
X0171672Y0316105D03*
D264*
X0171573Y0315809D03*
D265*
X0171475Y0315613D03*
D266*
X0170491Y0315317D03*
D267*
X0170613Y0339101D02*
X0172148Y0339101D01*
X0172148Y0344416D01*
X0171951Y0344455D01*
X0171794Y0344494D01*
X0171597Y0344494D01*
X0171400Y0344534D01*
X0171243Y0344573D01*
X0170849Y0344652D01*
X0170692Y0344691D01*
X0170692Y0343628D01*
X0170534Y0343904D01*
X0170377Y0344101D01*
X0170180Y0344337D01*
X0169983Y0344494D01*
X0169707Y0344652D01*
X0169471Y0344731D01*
X0169196Y0344809D01*
X0168644Y0344809D01*
X0168605Y0344770D01*
X0168566Y0344770D01*
X0168566Y0343353D01*
X0168605Y0343353D01*
X0168684Y0343392D01*
X0169117Y0343392D01*
X0169510Y0343353D01*
X0169825Y0343274D01*
X0170101Y0343117D01*
X0170298Y0342880D01*
X0170455Y0342605D01*
X0170534Y0342329D01*
X0170613Y0341975D01*
X0170613Y0339101D01*
X0170613Y0339311D02*
X0172148Y0339311D01*
X0172148Y0339610D02*
X0170613Y0339610D01*
X0170613Y0339908D02*
X0172148Y0339908D01*
X0172148Y0340207D02*
X0170613Y0340207D01*
X0170613Y0340505D02*
X0172148Y0340505D01*
X0172148Y0340804D02*
X0170613Y0340804D01*
X0170613Y0341102D02*
X0172148Y0341102D01*
X0172148Y0341401D02*
X0170613Y0341401D01*
X0170613Y0341699D02*
X0172148Y0341699D01*
X0172148Y0341998D02*
X0170608Y0341998D01*
X0170541Y0342296D02*
X0172148Y0342296D01*
X0172148Y0342595D02*
X0170458Y0342595D01*
X0170287Y0342893D02*
X0172148Y0342893D01*
X0172148Y0343192D02*
X0169969Y0343192D01*
X0170600Y0343789D02*
X0168566Y0343789D01*
X0168566Y0344087D02*
X0170387Y0344087D01*
X0170692Y0344087D02*
X0172148Y0344087D01*
X0172148Y0343789D02*
X0170692Y0343789D01*
X0170692Y0344386D02*
X0172148Y0344386D01*
X0172148Y0343490D02*
X0168566Y0343490D01*
X0167975Y0343490D02*
X0166440Y0343490D01*
X0166440Y0343192D02*
X0167975Y0343192D01*
X0167975Y0342893D02*
X0166440Y0342893D01*
X0166238Y0342893D02*
X0164532Y0342893D01*
X0164786Y0342644D02*
X0162463Y0339101D01*
X0164314Y0339101D01*
X0165849Y0341581D01*
X0166440Y0341030D01*
X0166440Y0339101D01*
X0167975Y0339101D01*
X0167975Y0345951D01*
X0166440Y0346778D01*
X0166440Y0342683D01*
X0164510Y0344691D01*
X0162699Y0344691D01*
X0164786Y0342644D01*
X0164754Y0342595D02*
X0167975Y0342595D01*
X0167975Y0342296D02*
X0164558Y0342296D01*
X0164362Y0341998D02*
X0167975Y0341998D01*
X0167975Y0341699D02*
X0164167Y0341699D01*
X0163971Y0341401D02*
X0165737Y0341401D01*
X0166042Y0341401D02*
X0167975Y0341401D01*
X0167975Y0341102D02*
X0166362Y0341102D01*
X0166440Y0340804D02*
X0167975Y0340804D01*
X0167975Y0340505D02*
X0166440Y0340505D01*
X0166440Y0340207D02*
X0167975Y0340207D01*
X0167975Y0339908D02*
X0166440Y0339908D01*
X0166440Y0339610D02*
X0167975Y0339610D01*
X0167975Y0339311D02*
X0166440Y0339311D01*
X0164998Y0340207D02*
X0163188Y0340207D01*
X0163384Y0340505D02*
X0165183Y0340505D01*
X0165368Y0340804D02*
X0163580Y0340804D01*
X0163775Y0341102D02*
X0165553Y0341102D01*
X0164813Y0339908D02*
X0162993Y0339908D01*
X0162797Y0339610D02*
X0164629Y0339610D01*
X0164444Y0339311D02*
X0162601Y0339311D01*
X0161518Y0339311D02*
X0160022Y0339311D01*
X0160022Y0339101D02*
X0161518Y0339101D01*
X0161518Y0343668D01*
X0163054Y0343668D01*
X0162896Y0343786D01*
X0162266Y0344416D01*
X0162109Y0344534D01*
X0161991Y0344691D01*
X0161518Y0344691D01*
X0161518Y0345479D01*
X0161400Y0345794D01*
X0161282Y0346069D01*
X0161085Y0346306D01*
X0160810Y0346502D01*
X0160495Y0346660D01*
X0160101Y0346778D01*
X0158959Y0346778D01*
X0158881Y0346739D01*
X0158881Y0345636D01*
X0159550Y0345636D01*
X0159707Y0345597D01*
X0159865Y0345518D01*
X0159944Y0345400D01*
X0159983Y0345321D01*
X0159983Y0345164D01*
X0160022Y0345006D01*
X0160022Y0344691D01*
X0158959Y0344691D01*
X0158959Y0343668D01*
X0160022Y0343668D01*
X0160022Y0339101D01*
X0160022Y0339610D02*
X0161518Y0339610D01*
X0161518Y0339908D02*
X0160022Y0339908D01*
X0160022Y0340207D02*
X0161518Y0340207D01*
X0161518Y0340505D02*
X0160022Y0340505D01*
X0160022Y0340804D02*
X0161518Y0340804D01*
X0161518Y0341102D02*
X0160022Y0341102D01*
X0160022Y0341401D02*
X0161518Y0341401D01*
X0161518Y0341699D02*
X0160022Y0341699D01*
X0160022Y0341998D02*
X0161518Y0341998D01*
X0161518Y0342296D02*
X0160022Y0342296D01*
X0160022Y0342595D02*
X0161518Y0342595D01*
X0161518Y0342893D02*
X0160022Y0342893D01*
X0160022Y0343192D02*
X0161518Y0343192D01*
X0161518Y0343490D02*
X0160022Y0343490D01*
X0158959Y0343789D02*
X0162893Y0343789D01*
X0162595Y0344087D02*
X0158959Y0344087D01*
X0158959Y0344386D02*
X0162296Y0344386D01*
X0161996Y0344684D02*
X0158959Y0344684D01*
X0158487Y0344684D02*
X0156991Y0344684D01*
X0156991Y0344691D02*
X0156991Y0341542D01*
X0156912Y0340912D01*
X0156873Y0340676D01*
X0156636Y0340361D01*
X0156440Y0340243D01*
X0156243Y0340203D01*
X0156007Y0340164D01*
X0155692Y0340203D01*
X0155455Y0340243D01*
X0155259Y0340361D01*
X0155101Y0340518D01*
X0154983Y0340754D01*
X0154865Y0341030D01*
X0154825Y0341345D01*
X0154825Y0344691D01*
X0153290Y0344691D01*
X0153290Y0339101D01*
X0154747Y0339101D01*
X0154747Y0339888D01*
X0154786Y0339888D01*
X0154944Y0339652D01*
X0155101Y0339455D01*
X0155298Y0339298D01*
X0155534Y0339180D01*
X0155731Y0339101D01*
X0155967Y0339022D01*
X0156243Y0338983D01*
X0156479Y0338943D01*
X0157030Y0338983D01*
X0157463Y0339140D01*
X0157818Y0339337D01*
X0158093Y0339573D01*
X0158290Y0339928D01*
X0158408Y0340321D01*
X0158487Y0340754D01*
X0158487Y0344691D01*
X0156991Y0344691D01*
X0156991Y0344386D02*
X0158487Y0344386D01*
X0158487Y0344087D02*
X0156991Y0344087D01*
X0156991Y0343789D02*
X0158487Y0343789D01*
X0158487Y0343490D02*
X0156991Y0343490D01*
X0156991Y0343192D02*
X0158487Y0343192D01*
X0158487Y0342893D02*
X0156991Y0342893D01*
X0156991Y0342595D02*
X0158487Y0342595D01*
X0158487Y0342296D02*
X0156991Y0342296D01*
X0156991Y0341998D02*
X0158487Y0341998D01*
X0158487Y0341699D02*
X0156991Y0341699D01*
X0156973Y0341401D02*
X0158487Y0341401D01*
X0158487Y0341102D02*
X0156936Y0341102D01*
X0156894Y0340804D02*
X0158487Y0340804D01*
X0158442Y0340505D02*
X0156745Y0340505D01*
X0156261Y0340207D02*
X0158374Y0340207D01*
X0158279Y0339908D02*
X0153290Y0339908D01*
X0153290Y0339610D02*
X0154747Y0339610D01*
X0154977Y0339610D02*
X0158113Y0339610D01*
X0157771Y0339311D02*
X0155281Y0339311D01*
X0154747Y0339311D02*
X0153290Y0339311D01*
X0152463Y0339311D02*
X0150928Y0339311D01*
X0150928Y0339101D02*
X0152463Y0339101D01*
X0152463Y0344691D01*
X0151007Y0344691D01*
X0151007Y0343904D01*
X0150967Y0343904D01*
X0150810Y0344140D01*
X0150652Y0344298D01*
X0150455Y0344455D01*
X0150219Y0344613D01*
X0149747Y0344770D01*
X0149510Y0344809D01*
X0149274Y0344809D01*
X0148723Y0344770D01*
X0148290Y0344652D01*
X0147936Y0344455D01*
X0147660Y0344180D01*
X0147463Y0343865D01*
X0147345Y0343471D01*
X0147266Y0343038D01*
X0147227Y0342526D01*
X0147227Y0339101D01*
X0148762Y0339101D01*
X0148762Y0342250D01*
X0148802Y0342565D01*
X0148841Y0342841D01*
X0148881Y0343077D01*
X0148999Y0343274D01*
X0149117Y0343431D01*
X0149314Y0343550D01*
X0149510Y0343589D01*
X0149747Y0343628D01*
X0150062Y0343589D01*
X0150298Y0343550D01*
X0150495Y0343431D01*
X0150652Y0343235D01*
X0150770Y0343038D01*
X0150888Y0342762D01*
X0150928Y0342408D01*
X0150928Y0339101D01*
X0150928Y0339610D02*
X0152463Y0339610D01*
X0152463Y0339908D02*
X0150928Y0339908D01*
X0150928Y0340207D02*
X0152463Y0340207D01*
X0152463Y0340505D02*
X0150928Y0340505D01*
X0150928Y0340804D02*
X0152463Y0340804D01*
X0152463Y0341102D02*
X0150928Y0341102D01*
X0150928Y0341401D02*
X0152463Y0341401D01*
X0152463Y0341699D02*
X0150928Y0341699D01*
X0150928Y0341998D02*
X0152463Y0341998D01*
X0152463Y0342296D02*
X0150928Y0342296D01*
X0150907Y0342595D02*
X0152463Y0342595D01*
X0152463Y0342893D02*
X0150832Y0342893D01*
X0150678Y0343192D02*
X0152463Y0343192D01*
X0152463Y0343490D02*
X0150397Y0343490D01*
X0150845Y0344087D02*
X0147603Y0344087D01*
X0147441Y0343789D02*
X0152463Y0343789D01*
X0152463Y0344087D02*
X0151007Y0344087D01*
X0151007Y0344386D02*
X0152463Y0344386D01*
X0152463Y0344684D02*
X0151007Y0344684D01*
X0150542Y0344386D02*
X0147866Y0344386D01*
X0148409Y0344684D02*
X0150004Y0344684D01*
X0149215Y0343490D02*
X0147351Y0343490D01*
X0147294Y0343192D02*
X0148949Y0343192D01*
X0148850Y0342893D02*
X0147255Y0342893D01*
X0147232Y0342595D02*
X0148806Y0342595D01*
X0148768Y0342296D02*
X0147227Y0342296D01*
X0147227Y0341998D02*
X0148762Y0341998D01*
X0148762Y0341699D02*
X0147227Y0341699D01*
X0147227Y0341401D02*
X0148762Y0341401D01*
X0148762Y0341102D02*
X0147227Y0341102D01*
X0147227Y0340804D02*
X0148762Y0340804D01*
X0148762Y0340505D02*
X0147227Y0340505D01*
X0147227Y0340207D02*
X0148762Y0340207D01*
X0148762Y0339908D02*
X0147227Y0339908D01*
X0147227Y0339610D02*
X0148762Y0339610D01*
X0148762Y0339311D02*
X0147227Y0339311D01*
X0153290Y0340207D02*
X0155670Y0340207D01*
X0155114Y0340505D02*
X0153290Y0340505D01*
X0153290Y0340804D02*
X0154962Y0340804D01*
X0154856Y0341102D02*
X0153290Y0341102D01*
X0153290Y0341401D02*
X0154825Y0341401D01*
X0154825Y0341699D02*
X0153290Y0341699D01*
X0153290Y0341998D02*
X0154825Y0341998D01*
X0154825Y0342296D02*
X0153290Y0342296D01*
X0153290Y0342595D02*
X0154825Y0342595D01*
X0154825Y0342893D02*
X0153290Y0342893D01*
X0153290Y0343192D02*
X0154825Y0343192D01*
X0154825Y0343490D02*
X0153290Y0343490D01*
X0153290Y0343789D02*
X0154825Y0343789D01*
X0154825Y0344087D02*
X0153290Y0344087D01*
X0153290Y0344386D02*
X0154825Y0344386D01*
X0154825Y0344684D02*
X0153290Y0344684D01*
X0158881Y0345878D02*
X0161364Y0345878D01*
X0161480Y0345580D02*
X0159741Y0345580D01*
X0159983Y0345281D02*
X0161518Y0345281D01*
X0161518Y0344983D02*
X0160022Y0344983D01*
X0158881Y0346177D02*
X0161192Y0346177D01*
X0160847Y0346475D02*
X0158881Y0346475D01*
X0158951Y0346774D02*
X0160114Y0346774D01*
X0160543Y0348565D02*
X0164825Y0348565D01*
X0164825Y0348267D02*
X0162489Y0348267D01*
X0162542Y0348235D02*
X0162345Y0348353D01*
X0162109Y0348392D01*
X0161361Y0348392D01*
X0160888Y0348471D01*
X0160455Y0348589D01*
X0160062Y0348746D01*
X0159668Y0348983D01*
X0159353Y0349258D01*
X0159038Y0349573D01*
X0158762Y0349928D01*
X0158369Y0350636D01*
X0158172Y0351345D01*
X0158133Y0352054D01*
X0158251Y0352683D01*
X0158448Y0353235D01*
X0158723Y0353707D01*
X0159038Y0354061D01*
X0159353Y0354219D01*
X0159353Y0353904D01*
X0159432Y0353668D01*
X0159550Y0353589D01*
X0159668Y0353550D01*
X0159944Y0353550D01*
X0160259Y0353707D01*
X0160377Y0353786D01*
X0160534Y0353904D01*
X0160652Y0353983D01*
X0160770Y0354101D01*
X0160849Y0354258D01*
X0160928Y0354376D01*
X0160967Y0354534D01*
X0161007Y0354652D01*
X0160967Y0354770D01*
X0160928Y0354849D01*
X0160888Y0354967D01*
X0160810Y0355085D01*
X0160652Y0355203D01*
X0160495Y0355282D01*
X0160298Y0355321D01*
X0160140Y0355361D01*
X0160022Y0355361D01*
X0159904Y0355321D01*
X0159786Y0355321D01*
X0159825Y0355361D01*
X0159983Y0355479D01*
X0160219Y0355597D01*
X0160534Y0355715D01*
X0160888Y0355833D01*
X0161282Y0355833D01*
X0161715Y0355754D01*
X0162148Y0355518D01*
X0162503Y0355203D01*
X0162699Y0354928D01*
X0162818Y0354573D01*
X0162818Y0354258D01*
X0162739Y0353904D01*
X0162542Y0353550D01*
X0162266Y0353235D01*
X0161951Y0352880D01*
X0161676Y0352565D01*
X0161558Y0352290D01*
X0161558Y0352014D01*
X0161636Y0351778D01*
X0161794Y0351581D01*
X0162030Y0351424D01*
X0162345Y0351345D01*
X0162660Y0351345D01*
X0162857Y0351384D01*
X0163054Y0351463D01*
X0163172Y0351542D01*
X0163290Y0351660D01*
X0163369Y0351817D01*
X0163408Y0351935D01*
X0163408Y0352054D01*
X0163369Y0352172D01*
X0163290Y0352290D01*
X0163133Y0352447D01*
X0163014Y0352487D01*
X0162857Y0352565D01*
X0162818Y0352605D01*
X0162896Y0352644D01*
X0162975Y0352644D01*
X0163133Y0352683D01*
X0163448Y0352683D01*
X0163684Y0352644D01*
X0164077Y0352487D01*
X0164235Y0352369D01*
X0164432Y0352250D01*
X0164550Y0352054D01*
X0164668Y0351817D01*
X0164747Y0351581D01*
X0164825Y0350872D01*
X0164825Y0345833D01*
X0164786Y0345833D01*
X0164707Y0345951D01*
X0164589Y0346069D01*
X0164471Y0346227D01*
X0164274Y0346424D01*
X0164077Y0346660D01*
X0163841Y0346896D01*
X0163644Y0347172D01*
X0163133Y0347683D01*
X0162936Y0347920D01*
X0162542Y0348235D01*
X0162875Y0347968D02*
X0164825Y0347968D01*
X0164825Y0347670D02*
X0163146Y0347670D01*
X0163445Y0347371D02*
X0164825Y0347371D01*
X0164825Y0347072D02*
X0163715Y0347072D01*
X0163963Y0346774D02*
X0164825Y0346774D01*
X0164825Y0346475D02*
X0164231Y0346475D01*
X0164508Y0346177D02*
X0164825Y0346177D01*
X0164825Y0345878D02*
X0164756Y0345878D01*
X0164517Y0344684D02*
X0162707Y0344684D01*
X0163011Y0344386D02*
X0164804Y0344386D01*
X0165091Y0344087D02*
X0163315Y0344087D01*
X0163619Y0343789D02*
X0165378Y0343789D01*
X0165664Y0343490D02*
X0163924Y0343490D01*
X0164228Y0343192D02*
X0165951Y0343192D01*
X0166440Y0343789D02*
X0167975Y0343789D01*
X0167975Y0344087D02*
X0166440Y0344087D01*
X0166440Y0344386D02*
X0167975Y0344386D01*
X0167975Y0344684D02*
X0166440Y0344684D01*
X0166440Y0344983D02*
X0167975Y0344983D01*
X0167975Y0345281D02*
X0166440Y0345281D01*
X0166440Y0345580D02*
X0167975Y0345580D01*
X0167975Y0345878D02*
X0166440Y0345878D01*
X0166440Y0346177D02*
X0167556Y0346177D01*
X0167001Y0346475D02*
X0166440Y0346475D01*
X0166440Y0346774D02*
X0166447Y0346774D01*
X0164825Y0348864D02*
X0159867Y0348864D01*
X0159463Y0349162D02*
X0164825Y0349162D01*
X0164825Y0349461D02*
X0159151Y0349461D01*
X0158894Y0349759D02*
X0164825Y0349759D01*
X0164825Y0350058D02*
X0158690Y0350058D01*
X0158524Y0350356D02*
X0164825Y0350356D01*
X0164825Y0350655D02*
X0158364Y0350655D01*
X0158281Y0350953D02*
X0164816Y0350953D01*
X0164783Y0351252D02*
X0158198Y0351252D01*
X0158161Y0351550D02*
X0161840Y0351550D01*
X0161613Y0351849D02*
X0158144Y0351849D01*
X0158150Y0352147D02*
X0161558Y0352147D01*
X0161625Y0352446D02*
X0158206Y0352446D01*
X0158272Y0352744D02*
X0161832Y0352744D01*
X0162096Y0353043D02*
X0158379Y0353043D01*
X0158510Y0353341D02*
X0162360Y0353341D01*
X0162592Y0353640D02*
X0160124Y0353640D01*
X0160586Y0353938D02*
X0162746Y0353938D01*
X0162813Y0354237D02*
X0160838Y0354237D01*
X0160968Y0354535D02*
X0162818Y0354535D01*
X0162731Y0354834D02*
X0160935Y0354834D01*
X0160747Y0355132D02*
X0162553Y0355132D01*
X0162247Y0355431D02*
X0159919Y0355431D01*
X0160577Y0355729D02*
X0161761Y0355729D01*
X0159353Y0353938D02*
X0158929Y0353938D01*
X0158684Y0353640D02*
X0159474Y0353640D01*
X0163134Y0352446D02*
X0164132Y0352446D01*
X0164494Y0352147D02*
X0163377Y0352147D01*
X0163379Y0351849D02*
X0164652Y0351849D01*
X0164750Y0351550D02*
X0163180Y0351550D01*
X0168566Y0344684D02*
X0169610Y0344684D01*
X0170119Y0344386D02*
X0168566Y0344386D01*
X0170692Y0344684D02*
X0170719Y0344684D01*
X0173102Y0343789D02*
X0177805Y0343789D01*
X0177778Y0343825D02*
X0177660Y0344022D01*
X0177542Y0344180D01*
X0177385Y0344298D01*
X0176991Y0344534D01*
X0176794Y0344613D01*
X0176597Y0344652D01*
X0176361Y0344731D01*
X0176125Y0344770D01*
X0175928Y0344809D01*
X0175022Y0344809D01*
X0174825Y0344770D01*
X0174589Y0344770D01*
X0174392Y0344731D01*
X0174196Y0344652D01*
X0173999Y0344613D01*
X0173802Y0344534D01*
X0173329Y0344180D01*
X0173211Y0344022D01*
X0173133Y0343865D01*
X0173054Y0343668D01*
X0173014Y0343471D01*
X0173014Y0340046D01*
X0172975Y0339967D01*
X0172975Y0339613D01*
X0172936Y0339534D01*
X0172936Y0339455D01*
X0172896Y0339376D01*
X0172896Y0339258D01*
X0172857Y0339180D01*
X0172818Y0339140D01*
X0172818Y0339101D01*
X0174353Y0339101D01*
X0174353Y0339140D01*
X0174392Y0339180D01*
X0174392Y0339219D01*
X0174432Y0339258D01*
X0174432Y0339376D01*
X0174471Y0339416D01*
X0174471Y0339652D01*
X0174550Y0339534D01*
X0174668Y0339455D01*
X0174747Y0339376D01*
X0174865Y0339298D01*
X0174983Y0339258D01*
X0175101Y0339180D01*
X0175573Y0339022D01*
X0175692Y0339022D01*
X0175810Y0338983D01*
X0175967Y0338983D01*
X0176085Y0338943D01*
X0176518Y0338943D01*
X0176715Y0338983D01*
X0176912Y0338983D01*
X0177070Y0339022D01*
X0177266Y0339101D01*
X0177424Y0339180D01*
X0177542Y0339258D01*
X0177699Y0339337D01*
X0177818Y0339455D01*
X0177896Y0339573D01*
X0178014Y0339731D01*
X0178093Y0339849D01*
X0178133Y0340046D01*
X0178211Y0340203D01*
X0178211Y0340400D01*
X0178251Y0340597D01*
X0178172Y0341030D01*
X0178054Y0341384D01*
X0177896Y0341660D01*
X0177621Y0341896D01*
X0177345Y0342054D01*
X0177030Y0342172D01*
X0176715Y0342250D01*
X0176361Y0342290D01*
X0176046Y0341463D01*
X0176164Y0341424D01*
X0176243Y0341384D01*
X0176282Y0341345D01*
X0176440Y0341266D01*
X0176479Y0341227D01*
X0176558Y0341187D01*
X0176676Y0340951D01*
X0176676Y0340872D01*
X0176715Y0340794D01*
X0176715Y0340597D01*
X0176676Y0340479D01*
X0176676Y0340400D01*
X0176636Y0340321D01*
X0176597Y0340282D01*
X0176558Y0340203D01*
X0176479Y0340164D01*
X0176440Y0340124D01*
X0176282Y0340046D01*
X0176203Y0340046D01*
X0176125Y0340006D01*
X0176046Y0340006D01*
X0175967Y0339967D01*
X0175770Y0339967D01*
X0175573Y0340006D01*
X0175377Y0340006D01*
X0175219Y0340085D01*
X0175062Y0340124D01*
X0174944Y0340203D01*
X0174865Y0340282D01*
X0174786Y0340400D01*
X0174707Y0340479D01*
X0174629Y0340715D01*
X0174589Y0340794D01*
X0174550Y0340912D01*
X0174550Y0341817D01*
X0174629Y0341739D01*
X0174707Y0341739D01*
X0174865Y0341660D01*
X0174944Y0341660D01*
X0175022Y0341620D01*
X0175180Y0341620D01*
X0175377Y0342408D01*
X0175101Y0342487D01*
X0174865Y0342565D01*
X0174668Y0342683D01*
X0174550Y0342841D01*
X0174550Y0343274D01*
X0174668Y0343510D01*
X0174707Y0343550D01*
X0174747Y0343628D01*
X0174983Y0343746D01*
X0175062Y0343746D01*
X0175140Y0343786D01*
X0175849Y0343786D01*
X0176243Y0343589D01*
X0176400Y0343431D01*
X0176440Y0343353D01*
X0176479Y0343235D01*
X0176518Y0343156D01*
X0176518Y0342959D01*
X0178054Y0342959D01*
X0177975Y0343431D01*
X0177896Y0343668D01*
X0177778Y0343825D01*
X0177611Y0344087D02*
X0173260Y0344087D01*
X0173605Y0344386D02*
X0177237Y0344386D01*
X0176500Y0344684D02*
X0174277Y0344684D01*
X0174658Y0343490D02*
X0173018Y0343490D01*
X0173014Y0343192D02*
X0174550Y0343192D01*
X0174550Y0342893D02*
X0173014Y0342893D01*
X0173014Y0342595D02*
X0174816Y0342595D01*
X0175377Y0342408D02*
X0175180Y0341620D01*
X0175259Y0341581D01*
X0175337Y0341581D01*
X0175455Y0341542D01*
X0175613Y0341542D01*
X0175731Y0341502D01*
X0175888Y0341502D01*
X0175967Y0341463D01*
X0176046Y0341463D01*
X0176361Y0342290D01*
X0175652Y0342369D01*
X0175377Y0342408D01*
X0175349Y0342296D02*
X0173014Y0342296D01*
X0173014Y0341998D02*
X0175274Y0341998D01*
X0176250Y0341998D01*
X0177443Y0341998D01*
X0177850Y0341699D02*
X0176136Y0341699D01*
X0175199Y0341699D01*
X0174786Y0341699D01*
X0174550Y0341699D02*
X0173014Y0341699D01*
X0173014Y0341401D02*
X0174550Y0341401D01*
X0174550Y0341102D02*
X0173014Y0341102D01*
X0173014Y0340804D02*
X0174586Y0340804D01*
X0174699Y0340505D02*
X0173014Y0340505D01*
X0173014Y0340207D02*
X0174940Y0340207D01*
X0174499Y0339610D02*
X0177924Y0339610D01*
X0178105Y0339908D02*
X0172975Y0339908D01*
X0172974Y0339610D02*
X0174471Y0339610D01*
X0174432Y0339311D02*
X0172896Y0339311D01*
X0174844Y0339311D02*
X0177648Y0339311D01*
X0177032Y0339013D02*
X0175720Y0339013D01*
X0176560Y0340207D02*
X0178211Y0340207D01*
X0178232Y0340505D02*
X0176685Y0340505D01*
X0176710Y0340804D02*
X0178213Y0340804D01*
X0178148Y0341102D02*
X0176600Y0341102D01*
X0176210Y0341401D02*
X0178044Y0341401D01*
X0178713Y0341401D02*
X0180237Y0341401D01*
X0180219Y0341542D02*
X0180219Y0341857D01*
X0180219Y0342211D01*
X0180259Y0342526D01*
X0180377Y0342841D01*
X0180495Y0343117D01*
X0180692Y0343353D01*
X0180928Y0343510D01*
X0181203Y0343628D01*
X0181558Y0343668D01*
X0181873Y0343628D01*
X0182188Y0343510D01*
X0182385Y0343353D01*
X0182581Y0343117D01*
X0182699Y0342841D01*
X0182818Y0342526D01*
X0182857Y0342211D01*
X0182857Y0341542D01*
X0182699Y0340912D01*
X0182581Y0340636D01*
X0182385Y0340439D01*
X0182148Y0340243D01*
X0181873Y0340164D01*
X0181518Y0340124D01*
X0181203Y0340164D01*
X0180888Y0340243D01*
X0180652Y0340439D01*
X0180495Y0340636D01*
X0180377Y0340912D01*
X0179038Y0340282D01*
X0179274Y0339849D01*
X0179629Y0339494D01*
X0180062Y0339180D01*
X0180534Y0339022D01*
X0181125Y0338943D01*
X0181833Y0339061D01*
X0182070Y0339180D01*
X0182463Y0339416D01*
X0182778Y0339809D01*
X0182818Y0339809D01*
X0182818Y0335794D01*
X0183172Y0336148D01*
X0183762Y0336620D01*
X0184117Y0336975D01*
X0184314Y0337132D01*
X0184314Y0344416D01*
X0184156Y0344455D01*
X0183959Y0344494D01*
X0183762Y0344494D01*
X0183605Y0344534D01*
X0183408Y0344573D01*
X0183251Y0344613D01*
X0182857Y0344691D01*
X0182857Y0343983D01*
X0182699Y0344180D01*
X0182542Y0344337D01*
X0182345Y0344494D01*
X0181951Y0344731D01*
X0181479Y0344809D01*
X0181203Y0344809D01*
X0180613Y0344770D01*
X0180062Y0344573D01*
X0179629Y0344298D01*
X0179274Y0343904D01*
X0178999Y0343471D01*
X0178841Y0342959D01*
X0178723Y0342408D01*
X0178684Y0341817D01*
X0180219Y0341857D01*
X0178684Y0341817D01*
X0178723Y0341266D01*
X0178841Y0340754D01*
X0179038Y0340282D01*
X0180377Y0340912D01*
X0180259Y0341227D01*
X0180219Y0341542D01*
X0180219Y0341699D02*
X0178692Y0341699D01*
X0178696Y0341998D02*
X0180219Y0341998D01*
X0180230Y0342296D02*
X0178716Y0342296D01*
X0178763Y0342595D02*
X0180284Y0342595D01*
X0180399Y0342893D02*
X0178827Y0342893D01*
X0178913Y0343192D02*
X0180557Y0343192D01*
X0180898Y0343490D02*
X0179011Y0343490D01*
X0179201Y0343789D02*
X0184314Y0343789D01*
X0184314Y0344087D02*
X0182857Y0344087D01*
X0182773Y0344087D02*
X0179439Y0344087D01*
X0179767Y0344386D02*
X0182481Y0344386D01*
X0182857Y0344386D02*
X0184314Y0344386D01*
X0184314Y0343490D02*
X0182213Y0343490D01*
X0182519Y0343192D02*
X0184314Y0343192D01*
X0184314Y0342893D02*
X0182677Y0342893D01*
X0182792Y0342595D02*
X0184314Y0342595D01*
X0184314Y0342296D02*
X0182846Y0342296D01*
X0182857Y0341998D02*
X0184314Y0341998D01*
X0184314Y0341699D02*
X0182857Y0341699D01*
X0182822Y0341401D02*
X0184314Y0341401D01*
X0184314Y0341102D02*
X0182747Y0341102D01*
X0182653Y0340804D02*
X0184314Y0340804D01*
X0184314Y0340505D02*
X0182450Y0340505D01*
X0182023Y0340207D02*
X0184314Y0340207D01*
X0184314Y0339908D02*
X0179242Y0339908D01*
X0179079Y0340207D02*
X0181032Y0340207D01*
X0180600Y0340505D02*
X0179513Y0340505D01*
X0178945Y0340505D01*
X0178830Y0340804D02*
X0180147Y0340804D01*
X0180423Y0340804D01*
X0180305Y0341102D02*
X0178761Y0341102D01*
X0179513Y0339610D02*
X0182618Y0339610D01*
X0182818Y0339610D02*
X0184314Y0339610D01*
X0184314Y0339311D02*
X0182818Y0339311D01*
X0182818Y0339013D02*
X0184314Y0339013D01*
X0184314Y0338714D02*
X0182818Y0338714D01*
X0182818Y0338416D02*
X0184314Y0338416D01*
X0184314Y0338117D02*
X0182818Y0338117D01*
X0182818Y0337819D02*
X0184314Y0337819D01*
X0184314Y0337520D02*
X0182818Y0337520D01*
X0182818Y0337222D02*
X0184314Y0337222D01*
X0184065Y0336923D02*
X0182818Y0336923D01*
X0182818Y0336625D02*
X0183767Y0336625D01*
X0183394Y0336326D02*
X0182818Y0336326D01*
X0182818Y0336028D02*
X0183051Y0336028D01*
X0181541Y0339013D02*
X0180604Y0339013D01*
X0179881Y0339311D02*
X0182289Y0339311D01*
X0185022Y0340400D02*
X0185180Y0339967D01*
X0185416Y0339652D01*
X0185731Y0339376D01*
X0186125Y0339180D01*
X0186558Y0339061D01*
X0187030Y0338983D01*
X0187503Y0338943D01*
X0187975Y0338983D01*
X0188448Y0339061D01*
X0188881Y0339180D01*
X0189274Y0339376D01*
X0189589Y0339652D01*
X0189865Y0340006D01*
X0190022Y0340400D01*
X0190101Y0340912D01*
X0188644Y0340912D01*
X0188644Y0340676D01*
X0188566Y0340479D01*
X0188448Y0340321D01*
X0188133Y0340085D01*
X0187896Y0340046D01*
X0187699Y0340006D01*
X0187463Y0339967D01*
X0187306Y0340006D01*
X0187148Y0340006D01*
X0186991Y0340046D01*
X0186833Y0340124D01*
X0186676Y0340243D01*
X0186558Y0340361D01*
X0186479Y0340676D01*
X0186518Y0340833D01*
X0186597Y0340991D01*
X0186755Y0341109D01*
X0186951Y0341227D01*
X0187188Y0341306D01*
X0187818Y0341463D01*
X0188211Y0341542D01*
X0188566Y0341620D01*
X0188881Y0341739D01*
X0189156Y0341857D01*
X0189432Y0342014D01*
X0189668Y0342172D01*
X0189825Y0342408D01*
X0189944Y0342683D01*
X0189983Y0343038D01*
X0189944Y0343510D01*
X0189786Y0343904D01*
X0189510Y0344219D01*
X0189235Y0344455D01*
X0188841Y0344652D01*
X0188448Y0344731D01*
X0188014Y0344809D01*
X0187109Y0344809D01*
X0186676Y0344731D01*
X0186282Y0344613D01*
X0185928Y0344455D01*
X0185613Y0344219D01*
X0185377Y0343904D01*
X0185180Y0343510D01*
X0185101Y0343038D01*
X0186558Y0343038D01*
X0186597Y0343235D01*
X0186676Y0343431D01*
X0186755Y0343550D01*
X0186873Y0343628D01*
X0187030Y0343707D01*
X0187227Y0343786D01*
X0187896Y0343786D01*
X0188014Y0343746D01*
X0188172Y0343707D01*
X0188290Y0343668D01*
X0188448Y0343431D01*
X0188448Y0343274D01*
X0188408Y0343117D01*
X0188290Y0342959D01*
X0188133Y0342841D01*
X0187896Y0342723D01*
X0187660Y0342644D01*
X0187345Y0342605D01*
X0186400Y0342369D01*
X0186046Y0342290D01*
X0185495Y0341975D01*
X0185259Y0341778D01*
X0185101Y0341542D01*
X0184983Y0341266D01*
X0184944Y0340912D01*
X0185022Y0340400D01*
X0185006Y0340505D02*
X0186522Y0340505D01*
X0186511Y0340804D02*
X0184960Y0340804D01*
X0184965Y0341102D02*
X0186746Y0341102D01*
X0187569Y0341401D02*
X0185041Y0341401D01*
X0185206Y0341699D02*
X0188776Y0341699D01*
X0189403Y0341998D02*
X0185535Y0341998D01*
X0186075Y0342296D02*
X0189751Y0342296D01*
X0189906Y0342595D02*
X0187306Y0342595D01*
X0186589Y0343192D02*
X0185127Y0343192D01*
X0185176Y0343490D02*
X0186715Y0343490D01*
X0186521Y0344684D02*
X0188679Y0344684D01*
X0189316Y0344386D02*
X0185836Y0344386D01*
X0185514Y0344087D02*
X0189626Y0344087D01*
X0189832Y0343789D02*
X0185319Y0343789D01*
X0182892Y0344684D02*
X0182857Y0344684D01*
X0182029Y0344684D02*
X0180373Y0344684D01*
X0177955Y0343490D02*
X0176341Y0343490D01*
X0176500Y0343192D02*
X0178015Y0343192D01*
X0176302Y0342296D02*
X0175349Y0342296D01*
X0185093Y0340207D02*
X0186724Y0340207D01*
X0186850Y0339013D02*
X0188155Y0339013D01*
X0189144Y0339311D02*
X0185861Y0339311D01*
X0185464Y0339610D02*
X0189541Y0339610D01*
X0189789Y0339908D02*
X0185224Y0339908D01*
X0188295Y0340207D02*
X0189945Y0340207D01*
X0190038Y0340505D02*
X0188576Y0340505D01*
X0188644Y0340804D02*
X0190084Y0340804D01*
X0189967Y0342893D02*
X0188202Y0342893D01*
X0188427Y0343192D02*
X0189970Y0343192D01*
X0189945Y0343490D02*
X0188408Y0343490D01*
X0157113Y0339013D02*
X0156033Y0339013D01*
M02*
