%
M48
M72
T01C0.0150
T02C0.1200
T03C0.1575
%
T01
X20833Y29140
X16833Y32940
X16833Y33440
X16833Y33940
X15633Y33993
X14483Y34040
X13033Y33140
X12683Y32290
X14583Y32140
X15783Y32790
X19833Y33140
T02
X23333Y33140
X10333Y33140
T03
X10833Y36740
X14833Y36740
X18833Y36740
X22833Y36740
X22833Y29540
X18833Y29540
X14833Y29540
X10833Y29540
M30
